<?xml version="1.0" standalone="no"?>
<!DOCTYPE svg PUBLIC "-//W3C//DTD SVG 1.1//EN" "http://www.w3.org/Graphics/SVG/1.1/DTD/svg11.dtd" >
<svg xmlns="http://www.w3.org/2000/svg" xmlns:xlink="http://www.w3.org/1999/xlink" version="1.1">
<metadata>
Created by FontForge 20170731 at Mon Nov 30 22:38:32 2015
 By Aleksey,,,
Copyright (c) 2015 by Mariya Pigoulevskaya. All rights reserved.
</metadata>
<defs>
<font id="Stolzl-Light" horiz-adv-x="0" >
  <font-face 
    font-family="Stolzl Light"
    font-weight="300"
    font-stretch="normal"
    units-per-em="1000"
    panose-1="0 0 4 0 0 0 0 0 0 0"
    ascent="800"
    descent="-200"
    x-height="550"
    cap-height="700"
    bbox="-533 -261 1369 1035"
    underline-thickness="50"
    underline-position="-200"
    unicode-range="U+0020-25CA"
  />
<missing-glyph horiz-adv-x="510" 
d="M418 770v-1020h-323v1020h323zM340 702h-169v-34h67v-38h-68v-33h170v33h-68v38h68v34zM272 570h-102v-106h170v35h-68v71zM238 535v-36h-34v36h34zM340 436h-170v-33h68v-38h-68v-34h102v72h68v33zM340 375h-34v-67h-136v-35h170v102zM340 251h-102v-57h34v23h34v-48
h-102v82h-34v-115h170v115zM340 74h-170v-115h170v115zM306 41v-48h-102v48h102zM340 -64h-170v-34h72l-72 -48v-34h170v34h-104l71 48h33v34z" />
    <glyph glyph-name=".notdef" horiz-adv-x="510" 
d="M418 770v-1020h-323v1020h323zM340 702h-169v-34h67v-38h-68v-33h170v33h-68v38h68v34zM272 570h-102v-106h170v35h-68v71zM238 535v-36h-34v36h34zM340 436h-170v-33h68v-38h-68v-34h102v72h68v33zM340 375h-34v-67h-136v-35h170v102zM340 251h-102v-57h34v23h34v-48
h-102v82h-34v-115h170v115zM340 74h-170v-115h170v115zM306 41v-48h-102v48h102zM340 -64h-170v-34h72l-72 -48v-34h170v34h-104l71 48h33v34z" />
    <glyph glyph-name=".null" 
 />
    <glyph glyph-name="nonmarkingreturn" horiz-adv-x="333" 
 />
    <glyph glyph-name="space" unicode=" " horiz-adv-x="300" 
 />
    <glyph glyph-name="exclam" unicode="!" horiz-adv-x="273" 
d="M164 700v-292l-4 -215h-47l-4 215v292h55zM136 73q18 0 30.5 -12t12.5 -29q0 -18 -12.5 -30.5t-30.5 -12.5t-30 12.5t-12 30.5q0 17 12 29t30 12z" />
    <glyph glyph-name="quotedbl" unicode="&#x22;" horiz-adv-x="397" 
d="M100 377l-6 193v130h53v-130l-7 -193h-40zM257 377l-7 193v130h53v-130l-6 -193h-40z" />
    <glyph glyph-name="numbersign" unicode="#" horiz-adv-x="895" 
d="M789 496h-160l-52 -199h160l-12 -45h-160l-66 -252h-50l66 252h-212l-66 -252h-50l66 252h-159l12 45h159l53 199h-160l12 45h160l60 229h50l-60 -229h211l61 229h50l-61 -229h160zM527 297l52 199h-211l-53 -199h212z" />
    <glyph glyph-name="dollar" unicode="$" horiz-adv-x="638" 
d="M591 190q0 -96 -69 -147.5t-176 -53.5v-113h-53v116q-106 10 -167.5 66t-78.5 145h53q42 -164 238 -164q92 0 146 39t54 109q0 62 -47 88.5t-170 53.5q-67 15 -108 28.5t-77.5 34.5t-52.5 51t-16 73q0 89 66 140.5t168 53.5v114h53v-115q92 -9 149 -54t77 -115h-53
q-50 121 -214 121q-87 0 -140 -38t-53 -109q0 -51 44 -78t169 -55q56 -12 88.5 -21t69.5 -24.5t55.5 -33.5t31.5 -46.5t13 -65.5z" />
    <glyph glyph-name="percent" unicode="%" horiz-adv-x="1046" 
d="M270 290q-80 0 -128 54t-48 156q0 103 48 157t128 54t128.5 -54t48.5 -157q0 -102 -48.5 -156t-128.5 -54zM750 700l-400 -700h-54l400 700h54zM270 334q59 0 93.5 41.5t34.5 124.5q0 84 -34 125t-94 41t-94 -41t-34 -125q0 -83 34.5 -124.5t93.5 -41.5zM776 410
q80 0 128.5 -54t48.5 -156q0 -103 -48.5 -157t-128.5 -54t-128 54t-48 157q0 102 48 156t128 54zM776 366q-59 0 -93.5 -41.5t-34.5 -124.5q0 -84 34 -125t94 -41t94 41t34 125q0 83 -34.5 124.5t-93.5 41.5z" />
    <glyph glyph-name="ampersand" unicode="&#x26;" horiz-adv-x="670" 
d="M623 0h-67l-73 76q-85 -87 -213 -87q-101 0 -162 48.5t-61 131.5q0 33 10.5 59.5t37 51.5t48 40.5t66.5 44.5q-53 62 -74 103t-21 81q0 73 50 117.5t128 44.5q75 0 119.5 -41.5t44.5 -106.5q0 -56 -39 -99t-131 -106q-2 -2 -3 -2q13 -15 195 -205q44 67 59 166h54
q-15 -121 -76 -204q26 -26 108 -113zM167 547q0 -33 18 -66.5t66 -88.5q9 5 16 11q81 56 108 88.5t27 70.5q0 44 -29 71.5t-81 27.5q-57 0 -91 -30.5t-34 -83.5zM274 39q106 0 174 73q-160 165 -206 216q-44 -29 -61.5 -42t-41 -34t-31.5 -40t-8 -43q0 -58 46 -94t128 -36z
" />
    <glyph glyph-name="quotesingle" unicode="'" horiz-adv-x="241" 
d="M147 700v-130l-7 -193h-40l-6 193v130h53z" />
    <glyph glyph-name="parenleft" unicode="(" horiz-adv-x="382" 
d="M288 757q-76 -141 -108.5 -255t-32.5 -242t32.5 -242t108.5 -255l-40 -24q-154 260 -154 521t154 521z" />
    <glyph glyph-name="parenright" unicode=")" horiz-adv-x="382" 
d="M94 757l41 24q153 -258 153 -521t-153 -521l-41 24q76 141 108.5 255t32.5 242t-32.5 242t-108.5 255z" />
    <glyph glyph-name="asterisk" unicode="*" horiz-adv-x="552" 
d="M458 568l-149 -58l103 -123l-34 -27l-102 124l-103 -124l-33 27l102 123l-148 58l16 39l145 -56v149h41v-149l145 56z" />
    <glyph glyph-name="plus" unicode="+" horiz-adv-x="689" 
d="M371 545v-220h224v-51h-224v-219h-53v219h-224v51h224v220h53z" />
    <glyph glyph-name="comma" unicode="," horiz-adv-x="300" 
d="M206 30q2 -24 -70 -202h-42l61 162q-34 7 -34 40q0 19 12.5 31t30.5 12q16 0 29 -10.5t13 -32.5z" />
    <glyph glyph-name="hyphen" unicode="-" horiz-adv-x="504" 
d="M411 329v-51h-317v51h317z" />
    <glyph glyph-name="period" unicode="." horiz-adv-x="273" 
d="M136 73q18 0 30.5 -12t12.5 -29q0 -18 -12.5 -30.5t-30.5 -12.5t-30 12.5t-12 30.5q0 17 12 29t30 12z" />
    <glyph glyph-name="slash" unicode="/" horiz-adv-x="309" 
d="M283 770l-203 -770h-54l203 770h54z" />
    <glyph glyph-name="zero" unicode="0" horiz-adv-x="673" 
d="M336 711q130 0 201.5 -93.5t71.5 -267.5t-71.5 -267.5t-201.5 -93.5q-129 0 -200.5 93t-71.5 268t71.5 268t200.5 93zM336 40q101 0 160 74.5t59 235.5t-59 235.5t-160 74.5q-100 0 -159 -74.5t-59 -235.5t59 -235.5t159 -74.5z" />
    <glyph glyph-name="one" unicode="1" horiz-adv-x="348" 
d="M229 700h25v-700h-53v638l-164 -66v53z" />
    <glyph glyph-name="two" unicode="2" horiz-adv-x="614" 
d="M134 51h433v-51h-520v39l202 176q154 135 190 176q53 60 53 118q0 67 -50.5 109t-132.5 42t-133.5 -44t-69.5 -121h-54q19 100 88.5 158t171.5 58q103 0 168.5 -56.5t65.5 -143.5q0 -31 -11 -60t-25.5 -52.5t-52.5 -61.5t-68.5 -65.5t-96.5 -84.5l-157 -135z" />
    <glyph glyph-name="three" unicode="3" horiz-adv-x="611" 
d="M429 370q64 -18 99.5 -65t35.5 -113q0 -91 -68.5 -147t-176.5 -56q-105 0 -179.5 51.5t-92.5 150.5h54q19 -77 77 -114t141 -37q86 0 139 42.5t53 113.5q0 65 -44.5 104.5t-136.5 39.5h-99v48h73q92 0 137.5 33.5t45.5 92.5q0 67 -51 106.5t-128 39.5q-76 0 -124.5 -32.5
t-69.5 -108.5h-54q42 192 249 192q98 0 164.5 -53.5t66.5 -138.5q0 -52 -28.5 -91.5t-82.5 -57.5z" />
    <glyph glyph-name="four" unicode="4" horiz-adv-x="622" 
d="M585 226v-50h-106v-176h-53v176l-389 -1v51l361 474h81v-474h106zM98 226h328v424h-6z" />
    <glyph glyph-name="five" unicode="5" horiz-adv-x="614" 
d="M327 458q103 0 171.5 -63.5t68.5 -166.5q0 -102 -71.5 -170.5t-176.5 -68.5q-103 0 -177.5 55.5t-94.5 153.5h54q19 -74 77.5 -116t140.5 -42q84 0 139 54t55 135q0 82 -54.5 132.5t-138.5 50.5q-127 0 -192 -107h-51l84 395h374v-51h-334l-56 -266q69 75 182 75z" />
    <glyph glyph-name="six" unicode="6" horiz-adv-x="608" 
d="M317 469q101 0 172.5 -64.5t71.5 -171.5q0 -108 -74 -176t-185 -68q-109 0 -182 67t-73 182q0 80 48.5 162.5t210.5 299.5h61l-205 -280q73 49 155 49zM303 40q87 0 145.5 53.5t58.5 139.5q0 88 -58 140t-144 52q-90 0 -147.5 -52.5t-57.5 -141.5q0 -86 58.5 -138.5
t144.5 -52.5z" />
    <glyph glyph-name="seven" unicode="7" horiz-adv-x="540" 
d="M37 700h466v-43l-324 -657h-60l322 649h-404v51z" />
    <glyph glyph-name="eight" unicode="8" horiz-adv-x="602" 
d="M418 370q65 -19 101 -67.5t36 -115.5q0 -91 -72.5 -144.5t-181.5 -53.5t-181.5 53.5t-72.5 144.5q0 67 36 115.5t101 67.5q-111 38 -111 153q0 84 65.5 136t162.5 52t162.5 -52t65.5 -136q0 -115 -111 -153zM126 517q0 -59 42.5 -93.5t132.5 -34.5q89 0 132 34.5t43 93.5
q0 67 -49 105t-126 38t-126 -38t-49 -105zM301 40q88 0 144.5 40t56.5 111q0 150 -201 150t-201 -150q0 -71 56 -111t145 -40z" />
    <glyph glyph-name="nine" unicode="9" horiz-adv-x="608" 
d="M305 711q109 0 182.5 -67t73.5 -182q0 -80 -48.5 -162.5t-210.5 -299.5h-61l205 280q-73 -49 -156 -49q-100 0 -171.5 64.5t-71.5 171.5q0 109 73.5 176.5t184.5 67.5zM100 467q0 -87 58.5 -139.5t144.5 -52.5q90 0 147 52.5t57 141.5q0 86 -58 138.5t-144 52.5
q-87 0 -146 -53.5t-59 -139.5z" />
    <glyph glyph-name="colon" unicode=":" horiz-adv-x="273" 
d="M136 493q18 0 30.5 -12t12.5 -30q0 -17 -12.5 -29t-30.5 -12t-30 12t-12 29q0 18 12 30t30 12zM136 73q18 0 30.5 -12t12.5 -29q0 -18 -12.5 -30.5t-30.5 -12.5t-30 12.5t-12 30.5q0 17 12 29t30 12z" />
    <glyph glyph-name="semicolon" unicode=";" horiz-adv-x="300" 
d="M164 410q-18 0 -30.5 12t-12.5 29q0 18 12.5 30t30.5 12t30 -12t12 -30q0 -17 -12 -29t-30 -12zM206 30q2 -24 -70 -202h-42l61 162q-34 7 -34 40q0 19 12.5 31t30.5 12q16 0 29 -10.5t13 -32.5z" />
    <glyph glyph-name="less" unicode="&#x3c;" horiz-adv-x="689" 
d="M595 500v-55l-420 -140l420 -141v-56l-501 176v41z" />
    <glyph glyph-name="equal" unicode="=" horiz-adv-x="689" 
d="M595 431v-50h-501v50h501zM595 228v-49h-501v49h501z" />
    <glyph glyph-name="greater" unicode="&#x3e;" horiz-adv-x="689" 
d="M94 500l501 -174v-42l-501 -176v56l420 141l-420 140v55z" />
    <glyph glyph-name="question" unicode="?" horiz-adv-x="571" 
d="M244 193v51q0 17 3.5 31.5t14 27t16.5 20t26 19.5t27 16t33 17q56 29 81.5 57t25.5 78q0 69 -49 110t-134 41q-166 0 -187 -164h-54q12 107 77 160.5t165 53.5q106 0 170.5 -54.5t64.5 -145.5q0 -66 -33.5 -103.5t-97.5 -70.5q-61 -32 -77 -51q-19 -22 -19 -50v-43h-53z
M273 -11q-18 0 -30.5 12.5t-12.5 30.5t12.5 29.5t30.5 11.5t30.5 -11.5t12.5 -29.5t-12.5 -30.5t-30.5 -12.5z" />
    <glyph glyph-name="at" unicode="@" horiz-adv-x="1150" 
d="M584 781q140 0 252.5 -57.5t181 -173.5t68.5 -274q0 -137 -50 -210.5t-134 -73.5q-55 0 -96.5 32.5t-47.5 96.5q-30 -60 -84.5 -94.5t-123.5 -34.5q-102 0 -167.5 72t-65.5 183q0 112 65 183.5t167 71.5q69 0 123.5 -34t84.5 -94v119h49v-352q0 -51 28 -76.5t69 -25.5
q57 0 95 56.5t38 175.5q0 113 -36 202.5t-98.5 145.5t-143.5 85.5t-174 29.5q-206 0 -338.5 -133t-132.5 -350q0 -215 130.5 -340t332.5 -125q120 0 216 47l10 -47q-107 -47 -227 -47q-146 0 -261.5 60.5t-182.5 178t-67 273.5q0 238 147 384t373 146zM557 39q85 0 142 59
t57 149t-57 149t-142 59q-84 0 -137.5 -58.5t-53.5 -149.5t53.5 -149.5t137.5 -58.5z" />
    <glyph glyph-name="A" unicode="A" horiz-adv-x="723" 
d="M629 0l-95 233h-345l-95 -233h-57l289 700h71l289 -700h-57zM210 283h303l-152 369z" />
    <glyph glyph-name="B" unicode="B" horiz-adv-x="654" 
d="M478 371q129 -36 129 -180q0 -89 -56.5 -140t-169.5 -51h-287v700h279q212 0 212 -176q0 -116 -107 -153zM532 519q0 63 -37.5 96.5t-125.5 33.5h-222v-260h216q92 0 130.5 33.5t38.5 96.5zM380 51q173 0 173 143q0 71 -41 108.5t-134 37.5h-231v-289h233z" />
    <glyph glyph-name="C" unicode="C" horiz-adv-x="800" 
d="M425 -11q-155 0 -257.5 102.5t-102.5 258.5t102.5 258.5t257.5 102.5q114 0 202 -61t126 -165h-57q-36 80 -108.5 127.5t-164.5 47.5q-129 0 -217 -89t-88 -221t88 -221t217 -89q92 0 164.5 47.5t108.5 127.5h57q-38 -104 -126 -165t-202 -61z" />
    <glyph glyph-name="D" unicode="D" horiz-adv-x="746" 
d="M323 700q154 0 256.5 -98.5t102.5 -251.5q0 -152 -103 -251t-256 -99h-229v700h229zM325 51q129 0 216 84t88 215q0 130 -87.5 214.5t-216.5 84.5h-178v-598h178z" />
    <glyph glyph-name="E" unicode="E" horiz-adv-x="573" 
d="M526 649h-379v-262h356v-51h-356v-285h379v-51h-432v700h432v-51z" />
    <glyph glyph-name="F" unicode="F" horiz-adv-x="573" 
d="M526 649h-379v-266h356v-50h-356v-333h-53v700h432v-51z" />
    <glyph glyph-name="G" unicode="G" horiz-adv-x="846" 
d="M391 356h366v-356h-48v187q-28 -93 -106 -145.5t-182 -52.5q-153 0 -255 103t-102 258q0 156 103 258.5t256 102.5q115 0 202.5 -60.5t126.5 -163.5h-57q-36 79 -108.5 126t-164.5 47q-129 0 -217 -89.5t-88 -222.5q0 -131 87 -220t219 -89q120 0 199 75t82 195h-313v47z
" />
    <glyph glyph-name="H" unicode="H" horiz-adv-x="747" 
d="M601 700h53v-700h-53v337h-454v-337h-53v700h53v-312h454v312z" />
    <glyph glyph-name="I" unicode="I" horiz-adv-x="242" 
d="M95 0v700h53v-700h-53z" />
    <glyph glyph-name="J" unicode="J" horiz-adv-x="546" 
d="M399 700h53v-487q0 -105 -57 -164.5t-151 -59.5t-150.5 57.5t-56.5 161.5v50h53v-49q0 -83 41.5 -126t113.5 -43q70 0 112 44.5t42 129.5v486z" />
    <glyph glyph-name="K" unicode="K" horiz-adv-x="616" 
d="M579 0h-70l-362 344v-344h-53v700h53v-335l352 335h70l-361 -344z" />
    <glyph glyph-name="L" unicode="L" horiz-adv-x="539" 
d="M147 51h356v-51h-409v700h53v-649z" />
    <glyph glyph-name="M" unicode="M" horiz-adv-x="812" 
d="M647 700h71v-700h-53v638l-259 -389h-6l-258 389v-638h-53v700h70l245 -366z" />
    <glyph glyph-name="N" unicode="N" horiz-adv-x="737" 
d="M595 700h53v-700h-71l-439 636l4 -343v-293h-53v700h70l440 -636l-4 343v293z" />
    <glyph glyph-name="O" unicode="O" horiz-adv-x="847" 
d="M424 711q153 0 256 -103.5t103 -257.5t-103 -257.5t-256 -103.5t-256.5 103.5t-103.5 257.5t104 257.5t256 103.5zM424 660q-129 0 -217.5 -89t-88.5 -221t88.5 -221t217.5 -89t217.5 89t87.5 221q1 132 -87.5 221t-217.5 89z" />
    <glyph glyph-name="P" unicode="P" horiz-adv-x="671" 
d="M368 700q114 0 176.5 -62t62.5 -157q0 -94 -63 -158t-176 -64h-220v-259h-54v700h274zM367 310q91 0 138.5 49t47.5 122t-47 120.5t-139 47.5h-219v-339h219z" />
    <glyph glyph-name="Q" unicode="Q" horiz-adv-x="847" 
d="M783 350q0 -83 -32 -154.5t-90 -120.5l122 -162l-41 -31l-123 162q-86 -55 -195 -55q-153 0 -256.5 103.5t-103.5 257.5t104 257.5t256 103.5q153 0 256 -103.5t103 -257.5zM424 40q129 0 217.5 89t87.5 221q1 132 -87.5 221t-217.5 89t-217.5 -89t-88.5 -221t88.5 -221
t217.5 -89z" />
    <glyph glyph-name="R" unicode="R" horiz-adv-x="654" 
d="M550 0l-241 280h-161v-280h-54v700h265q114 0 175 -58.5t61 -150.5q0 -90 -57 -147.5t-163 -62.5l242 -281h-67zM148 649v-321h207q92 0 139.5 45.5t47.5 116.5t-47 115t-140 44h-207z" />
    <glyph glyph-name="S" unicode="S" horiz-adv-x="638" 
d="M333 381q56 -12 88.5 -21t69.5 -24.5t55.5 -33.5t31.5 -46.5t13 -65.5q0 -97 -71 -149t-180 -52q-127 0 -200.5 58t-92.5 156h53q42 -164 238 -164q92 0 146 39t54 109q0 62 -47 88.5t-170 53.5q-67 15 -108 28.5t-77.5 34.5t-52.5 51t-16 73q0 90 69.5 142.5t174.5 52.5
q110 0 178 -46t91 -125h-53q-50 121 -214 121q-87 0 -140 -39t-53 -108q0 -51 44 -78t169 -55z" />
    <glyph glyph-name="T" unicode="T" horiz-adv-x="603" 
d="M566 700v-51h-238v-649h-53v649h-238v51h529z" />
    <glyph glyph-name="U" unicode="U" horiz-adv-x="725" 
d="M582 700h54v-428q0 -138 -75.5 -210.5t-195.5 -72.5t-195.5 72.5t-75.5 210.5v428h54v-425q0 -116 60 -175.5t157 -59.5t157 59.5t60 175.5v425z" />
    <glyph glyph-name="V" unicode="V" horiz-adv-x="668" 
d="M575 700h56l-262 -700h-70l-262 700h56l241 -645z" />
    <glyph glyph-name="W" unicode="W" horiz-adv-x="990" 
d="M898 700h55l-203 -700h-70l-74 253l-106 381h-10l-106 -381l-73 -253h-70l-204 700h55l98 -335l86 -310l87 310l97 335h71l97 -335l86 -311l87 311z" />
    <glyph glyph-name="X" unicode="X" horiz-adv-x="607" 
d="M571 0h-64l-203 313l-204 -313h-63l234 358l-224 342h64l193 -298l194 298h64l-225 -343z" />
    <glyph glyph-name="Y" unicode="Y" horiz-adv-x="656" 
d="M619 700l-264 -438v-262h-54v260l-264 440h61l230 -380l230 380h61z" />
    <glyph glyph-name="Z" unicode="Z" horiz-adv-x="594" 
d="M112 51h435v-51h-500v51l434 598h-416v51h482v-51z" />
    <glyph glyph-name="bracketleft" unicode="[" horiz-adv-x="382" 
d="M288 770v-51h-140v-918h140v-51h-194v1020h194z" />
    <glyph glyph-name="backslash" unicode="\" horiz-adv-x="445" 
d="M148 770l203 -770h-54l-203 770h54z" />
    <glyph glyph-name="bracketright" unicode="]" horiz-adv-x="382" 
d="M94 770h194v-1020h-194v51h140v918h-140v51z" />
    <glyph glyph-name="asciicircum" unicode="^" horiz-adv-x="555" 
d="M277 711l184 -184l-37 -37l-147 146l-146 -146l-37 37z" />
    <glyph glyph-name="underscore" unicode="_" horiz-adv-x="648" 
d="M554 -19v-50h-460v50h460z" />
    <glyph glyph-name="grave" unicode="`" horiz-adv-x="388" 
d="M128 840l166 -166l-29 -29l-171 161z" />
    <glyph glyph-name="a" unicode="a" horiz-adv-x="682" 
d="M547 550h53v-550h-53v131q-33 -65 -93.5 -103.5t-136.5 -38.5q-115 0 -188 81t-73 205t73 205t187 81q77 0 137.5 -38.5t93.5 -104.5v132zM324 40q96 0 160 66.5t64 168.5t-64 168.5t-160 66.5q-95 0 -155 -66.5t-60 -168.5t60 -168.5t155 -66.5z" />
    <glyph glyph-name="b" unicode="b" horiz-adv-x="682" 
d="M366 561q114 0 187 -81t73 -205t-73 -205t-187 -81q-77 0 -137.5 38.5t-93.5 104.5v-132h-53v770h53v-352q33 66 93.5 104.5t137.5 38.5zM358 40q95 0 155 66.5t60 168.5q0 103 -60 169t-155 66q-96 0 -160 -66.5t-64 -168.5t64 -168.5t160 -66.5z" />
    <glyph glyph-name="c" unicode="c" horiz-adv-x="648" 
d="M338 -11q-119 0 -200.5 81.5t-81.5 204.5t81.5 204.5t201.5 81.5q94 0 166 -52.5t97 -141.5h-56q-22 65 -78 104.5t-129 39.5q-98 0 -164 -67t-66 -169q0 -101 66 -168.5t163 -67.5q73 0 129.5 39.5t78.5 104.5h56q-25 -89 -97.5 -141.5t-166.5 -52.5z" />
    <glyph glyph-name="d" unicode="d" horiz-adv-x="684" 
d="M550 770h53v-770h-53v132q-34 -66 -94.5 -104.5t-136.5 -38.5q-115 0 -188 81t-73 205t73 205t187 81q77 0 137.5 -38.5t94.5 -104.5v352zM326 40q96 0 160 66.5t64 168.5t-64 168.5t-160 66.5q-95 0 -155 -66.5t-60 -168.5t60 -168.5t155 -66.5z" />
    <glyph glyph-name="e" unicode="e" horiz-adv-x="654" 
d="M334 561q126 0 200 -84t72 -219h-496q4 -101 67.5 -159.5t160.5 -58.5q67 0 119 28t79 81h55q-33 -78 -101 -119t-153 -41q-123 0 -202 79t-79 205t78.5 207t199.5 81zM334 511q-90 0 -151 -56.5t-72 -146.5h439q-10 90 -68.5 146.5t-147.5 56.5z" />
    <glyph glyph-name="f" unicode="f" horiz-adv-x="471" 
d="M338 733q-147 0 -147 -179v-4h242v-50h-242v-500h-53v500h-110v50h110v6q0 105 51 165t144 60q60 0 112 -22l-10 -46l-10 4q-41 16 -87 16z" />
    <glyph glyph-name="g" unicode="g" horiz-adv-x="682" 
d="M547 550h53v-544q0 -124 -68.5 -195.5t-186.5 -71.5q-97 0 -169.5 51t-95.5 140h56q20 -65 75.5 -103.5t132.5 -38.5q97 0 150 57t53 159v129q-33 -65 -94 -103.5t-136 -38.5q-115 0 -188 80.5t-73 204.5t73.5 204.5t187.5 80.5q75 0 136 -39t94 -104v132zM324 42
q96 0 160 66.5t64 167.5t-64 167.5t-160 66.5q-95 0 -155 -66t-60 -168t60 -168t155 -66z" />
    <glyph glyph-name="h" unicode="h" horiz-adv-x="627" 
d="M351 561q94 0 146.5 -55t52.5 -156v-350h-53v343q0 82 -41.5 124.5t-116.5 42.5q-94 0 -146.5 -63.5t-52.5 -168.5v-278h-53v770h53v-347q59 138 211 138z" />
    <glyph glyph-name="i" unicode="i" horiz-adv-x="217" 
d="M108 786q19 0 31 -12t12 -29q0 -18 -12 -30t-31 -12q-17 0 -29.5 12t-12.5 30q0 17 12.5 29t29.5 12zM82 0v550h53v-550h-53z" />
    <glyph glyph-name="j" unicode="j" horiz-adv-x="217" 
d="M108 786q19 0 31 -12t12 -29q0 -18 -12 -30t-31 -12q-17 0 -29.5 12t-12.5 30q0 17 12.5 29t29.5 12zM82 -250v800h53v-800h-53z" />
    <glyph glyph-name="k" unicode="k" horiz-adv-x="569" 
d="M541 0h-73l-328 276v-276h-53v770h53v-471l299 251h72l-311 -260z" />
    <glyph glyph-name="l" unicode="l" horiz-adv-x="217" 
d="M86 0v770h54v-770h-54z" />
    <glyph glyph-name="m" unicode="m" horiz-adv-x="944" 
d="M688 561q86 0 132.5 -51.5t46.5 -147.5v-362h-53v354q0 156 -138 156q-84 0 -129.5 -66.5t-45.5 -165.5l1 -278h-54v354q0 156 -138 156q-84 0 -129.5 -66.5t-45.5 -165.5l1 -278h-54v550h54v-124q55 135 186 135q72 0 116.5 -36.5t57.5 -105.5q54 142 192 142z" />
    <glyph glyph-name="n" unicode="n" horiz-adv-x="621" 
d="M346 561q93 0 145.5 -55t52.5 -156v-350h-53v343q0 82 -41 124.5t-115 42.5q-94 0 -147 -63.5t-53 -168.5v-278h-53v550h53v-129q59 140 211 140z" />
    <glyph glyph-name="o" unicode="o" horiz-adv-x="675" 
d="M338 561q118 0 200 -81.5t82 -204.5q0 -122 -81.5 -204t-200.5 -82t-200.5 82t-81.5 204t82 204t200 82zM338 510q-96 0 -162 -66.5t-66 -168.5q0 -101 66 -168t162 -67t162 67t66 168q0 102 -66 168.5t-162 66.5z" />
    <glyph glyph-name="p" unicode="p" horiz-adv-x="687" 
d="M371 561q114 0 187 -81t73 -205t-73 -205t-187 -81q-77 0 -137.5 38.5t-93.5 104.5v-382h-53v800h53v-132q33 66 93.5 104.5t137.5 38.5zM363 40q95 0 155 66.5t60 168.5q0 103 -60 169t-155 66q-96 0 -160 -66.5t-64 -168.5t64 -168.5t160 -66.5z" />
    <glyph glyph-name="q" unicode="q" horiz-adv-x="682" 
d="M547 550h53v-800h-53v382q-33 -66 -93.5 -104.5t-136.5 -38.5q-115 0 -188 81t-73 205t73 205t187 81q77 0 137.5 -38.5t93.5 -104.5v132zM324 40q96 0 160 66.5t64 168.5t-64 168.5t-160 66.5q-95 0 -155 -66.5t-60 -168.5t60 -168.5t155 -66.5z" />
    <glyph glyph-name="r" unicode="r" horiz-adv-x="407" 
d="M343 561q23 0 36 -3v-53q-18 2 -35 2q-95 0 -152 -65t-57 -175v-267h-53v550h53v-137q25 68 78 108t130 40z" />
    <glyph glyph-name="s" unicode="s" horiz-adv-x="562" 
d="M300 -11q-107 0 -176 48t-86 135h54q35 -132 207 -132q72 0 119 28t47 79q0 29 -22 48.5t-47 28t-88 24.5q-15 4 -23 6q-126 32 -171.5 60.5t-45.5 87.5q0 74 59.5 116.5t153.5 42.5q90 0 150.5 -40t78.5 -112h-54q-37 101 -174 101q-71 0 -116 -28.5t-45 -75.5
q0 -40 35.5 -57.5t145.5 -45.5q44 -11 66 -17.5t52 -16.5t44 -20t29 -24t20.5 -32.5t5.5 -41.5q0 -78 -62.5 -120t-156.5 -42z" />
    <glyph glyph-name="t" unicode="t" horiz-adv-x="510" 
d="M461 66l10 -45q-64 -32 -140 -32q-91 0 -142 58t-51 162v291h-110v50h110v138l53 12v-150h269v-50h-269v-289q0 -83 37 -127.5t111 -44.5q56 0 122 27z" />
    <glyph glyph-name="u" unicode="u" horiz-adv-x="612" 
d="M481 550h53v-550h-53v129q-60 -140 -209 -140q-92 0 -143.5 55.5t-51.5 155.5v350h53v-343q0 -82 39.5 -124.5t113.5 -42.5q92 0 145 63.5t53 168.5v278z" />
    <glyph glyph-name="v" unicode="v" horiz-adv-x="557" 
d="M472 550h57l-216 -550h-69l-216 550h57l193 -500z" />
    <glyph glyph-name="w" unicode="w" horiz-adv-x="825" 
d="M743 550h54l-168 -550h-67l-57 185l-88 307h-10l-87 -306l-57 -186h-67l-168 550h54l53 -173l95 -323l96 323l52 173h68l53 -173l95 -321l96 321z" />
    <glyph glyph-name="x" unicode="x" horiz-adv-x="528" 
d="M500 0h-64l-172 241l-171 -241h-65l203 283l-191 267h64l161 -226l159 226h65l-192 -267z" />
    <glyph glyph-name="y" unicode="y" horiz-adv-x="572" 
d="M487 550h57l-377 -800h-58l148 313l-229 487h57l200 -428z" />
    <glyph glyph-name="z" unicode="z" horiz-adv-x="536" 
d="M110 50l383 1v-51h-450v51l381 449l-360 -1v51h427v-51z" />
    <glyph glyph-name="braceleft" unicode="{" horiz-adv-x="486" 
d="M271 457q0 -85 -20 -132.5t-73 -64.5q53 -17 73 -64.5t20 -132.5v-67q0 -111 23.5 -158t98.5 -48v-51q-94 0 -134.5 61.5t-40.5 182.5v70q0 38 -1.5 61.5t-8 49t-18 39t-33 22.5t-52.5 9h-11v52h11q31 0 52.5 9t33 22.5t18 39t8 49t1.5 61.5v70q0 121 40.5 182.5
t134.5 61.5v-51q-75 -1 -98.5 -48t-23.5 -158v-67z" />
    <glyph glyph-name="bar" unicode="|" horiz-adv-x="241" 
d="M147 700v-794h-53v794h53z" />
    <glyph glyph-name="braceright" unicode="}" horiz-adv-x="486" 
d="M382 286h11v-52h-11q-31 0 -52.5 -9t-33.5 -22.5t-18.5 -39t-8 -49t-1.5 -61.5v-70q0 -121 -40 -182.5t-134 -61.5v51q75 1 98 48t23 158v67q0 85 20 132.5t73 64.5q-53 17 -73 64.5t-20 132.5v67q0 111 -23 158t-98 48v51q94 0 134 -61.5t40 -182.5v-70q0 -38 1.5 -61.5
t8 -49t18.5 -39t33.5 -22.5t52.5 -9z" />
    <glyph glyph-name="asciitilde" unicode="~" horiz-adv-x="638" 
d="M432 255q-23 0 -46.5 10t-37 20t-36.5 30q-4 3 -17.5 14t-20 15.5t-18 11.5t-22.5 10t-22 3q-35 0 -53 -27t-18 -72h-47q0 71 30 109t82 38q23 0 46.5 -10t36.5 -19.5t37 -29.5q4 -3 17.5 -14t20 -15.5t18 -11.5t22.5 -10t22 -3q35 0 53 27t18 72h47q0 -71 -30.5 -109.5
t-81.5 -38.5z" />
    <glyph glyph-name="exclamdown" unicode="&#xa1;" horiz-adv-x="273" 
d="M136 381q-18 0 -30 12t-12 29q0 18 12 30.5t30 12.5t30.5 -12.5t12.5 -30.5q0 -17 -12.5 -29t-30.5 -12zM164 -246h-55v292l4 215h47l4 -215v-292z" />
    <glyph glyph-name="cent" unicode="&#xa2;" horiz-adv-x="648" 
d="M338 39q73 0 129.5 39.5t78.5 104.5h56q-23 -82 -87.5 -133.5t-150.5 -58.5v-141h-53v141q-110 10 -182.5 89.5t-72.5 194.5t72.5 194.5t182.5 89.5v141h53v-140q86 -8 150.5 -59.5t87.5 -133.5h-56q-22 65 -78 104.5t-129 39.5q-98 0 -164 -67t-66 -169
q0 -101 66 -168.5t163 -67.5z" />
    <glyph glyph-name="sterling" unicode="&#xa3;" horiz-adv-x="716" 
d="M608 149h54q0 -83 -38.5 -116t-119.5 -33h-450v51h59q39 0 53 16.5t14 53.5v188h-126v48h126v135q0 102 58.5 160.5t161.5 58.5q102 0 160.5 -57.5t58.5 -154.5h-54q0 74 -41 117.5t-121 43.5q-82 0 -126 -43.5t-44 -125.5v-134h231v-48h-231v-186q0 -52 -28 -72h294
q60 0 84.5 20.5t24.5 77.5z" />
    <glyph glyph-name="currency" unicode="&#xa4;" horiz-adv-x="714" 
d="M586 353q0 -82 -46 -144l80 -81l-38 -38l-79 81q-64 -51 -146 -51t-146 51l-79 -81l-38 38l81 81q-47 61 -47 144q0 81 47 144l-81 81l38 38l80 -81q62 50 145 50q82 0 144 -49l81 80l38 -38l-81 -81q47 -61 47 -144zM357 168q76 0 128 52.5t52 132.5q0 79 -52 131.5
t-128 52.5q-75 0 -127.5 -52t-52.5 -132t52 -132.5t128 -52.5z" />
    <glyph glyph-name="yen" unicode="&#xa5;" horiz-adv-x="690" 
d="M636 700l-249 -413h190v-36h-205v-86h205v-35h-205v-130h-53v130h-205v35h205v86h-205v36h188l-248 413h61l230 -380l230 380h61z" />
    <glyph glyph-name="brokenbar" unicode="&#xa6;" horiz-adv-x="241" 
d="M147 700v-354h-53v354h53zM147 260v-354h-53v354h53z" />
    <glyph glyph-name="section" unicode="&#xa7;" horiz-adv-x="651" 
d="M467 162q40 -18 58 -43t18 -63q0 -74 -56.5 -115.5t-150.5 -41.5q-89 0 -152.5 39t-80.5 115h54q17 -58 67.5 -84t113.5 -26q69 0 110.5 29.5t41.5 79.5q0 40 -36 59t-142 46q-51 13 -76.5 20t-58 20t-47.5 27t-25.5 35t-10.5 49q0 82 89 140q-40 18 -58 43t-18 63
q0 73 59.5 115t151.5 42q89 0 150.5 -37t78.5 -110h-53q-33 103 -177 103q-67 0 -111.5 -30t-44.5 -79q0 -41 36 -59.5t141 -45.5q51 -13 76.5 -20t58 -20t47.5 -27t25.5 -35t10.5 -49q0 -84 -89 -140zM149 316q0 -43 32 -61.5t121 -41.5q18 -5 27 -7q52 -13 94 -27
q79 53 79 115q0 30 -21 49.5t-42.5 27t-88.5 25.5q-18 5 -28 8q-52 13 -94 27q-79 -53 -79 -115z" />
    <glyph glyph-name="dieresis" unicode="&#xa8;" horiz-adv-x="496" 
d="M134 784q17 0 29 -11.5t12 -27.5q0 -17 -12 -28.5t-29 -11.5t-28.5 11.5t-11.5 28.5q0 16 11.5 27.5t28.5 11.5zM361 784q17 0 29 -11.5t12 -27.5q0 -17 -12 -28.5t-29 -11.5t-29 11.5t-12 28.5q0 16 12 27.5t29 11.5z" />
    <glyph glyph-name="copyright" unicode="&#xa9;" horiz-adv-x="728" 
d="M364 781q112 0 191 -79t79 -191t-79 -191t-191 -79t-191 79t-79 191t79 191t191 79zM364 272q99 0 168.5 69.5t69.5 169.5q0 99 -69.5 168.5t-168.5 69.5t-168.5 -69.5t-69.5 -168.5q0 -100 69.5 -169.5t168.5 -69.5zM364 620q-44 0 -74.5 -31t-30.5 -78t30.5 -78.5
t74.5 -31.5q32 0 57.5 17t37.5 46h38q-13 -43 -49.5 -69.5t-83.5 -26.5q-59 0 -99.5 40.5t-40.5 102.5q0 61 40.5 101.5t99.5 40.5q47 0 83.5 -26.5t49.5 -69.5h-38q-12 29 -37.5 46t-57.5 17z" />
    <glyph glyph-name="guillemotleft" unicode="&#xab;" horiz-adv-x="583" 
d="M277 96l-183 183l183 183l36 -37l-146 -146l146 -146zM453 96l-183 183l183 183l37 -37l-147 -146l147 -146z" />
    <glyph glyph-name="logicalnot" unicode="&#xac;" horiz-adv-x="689" 
d="M595 329v-190h-53v139h-448v51h501z" />
    <glyph glyph-name="registered" unicode="&#xae;" horiz-adv-x="728" 
d="M364 781q112 0 191 -79t79 -191t-79 -191t-191 -79t-191 79t-79 191t79 191t191 79zM364 271q98 0 168 70t70 170q0 99 -70 169t-168 70t-168 -70t-70 -169q0 -100 70 -170t168 -70zM477 564q0 -37 -22 -61t-65 -26l95 -115h-44l-94 115h-46v-115h-35v288h120
q46 0 68.5 -24t22.5 -62zM301 619v-112h73q38 0 53 14.5t15 42.5t-15 41.5t-53 13.5h-73z" />
    <glyph glyph-name="macron" unicode="&#xaf;" horiz-adv-x="439" 
d="M345 770v-42h-251v42h251z" />
    <glyph glyph-name="degree" unicode="&#xb0;" horiz-adv-x="531" 
d="M265 781q72 0 122 -50t50 -121t-50.5 -121.5t-121.5 -50.5t-121.5 50.5t-49.5 121.5q-1 71 49.5 121t121.5 50zM265 738q-53 0 -90.5 -37.5t-37.5 -91.5t37.5 -91.5t90.5 -37.5t91 37.5t38 91.5t-37.5 91.5t-91.5 37.5z" />
    <glyph glyph-name="plusminus" unicode="&#xb1;" horiz-adv-x="689" 
d="M371 545v-155h224v-43h-224v-161h-53v161h-224v43h224v155h53zM595 141v-43h-501v43h501z" />
    <glyph glyph-name="uni00B2" unicode="&#xb2;" horiz-adv-x="411" 
d="M110 412h263v-41h-335v35l145 108q75 55 100 83t25 62q0 36 -26.5 59.5t-71.5 23.5q-100 0 -115 -103h-49q8 67 52 104.5t113 37.5q67 0 106 -36t39 -87q0 -46 -31 -81.5t-106 -87.5z" />
    <glyph glyph-name="uni00B3" unicode="&#xb3;" horiz-adv-x="407" 
d="M301 586q30 -12 49 -39t19 -65q0 -52 -41 -87t-114 -35q-68 0 -116.5 34t-59.5 97h48q10 -45 44 -68.5t82 -23.5q51 0 80 23t29 62q0 36 -21 56t-54 20h-85v36h58q35 0 61 17t26 50q0 36 -27 57.5t-71 21.5q-43 0 -74 -23t-38 -69h-48q8 63 52 97t109 34q67 0 106 -33.5
t39 -84.5t-53 -77z" />
    <glyph glyph-name="acute" unicode="&#xb4;" horiz-adv-x="388" 
d="M260 841l34 -35l-172 -160l-28 28z" />
    <glyph glyph-name="paragraph" unicode="&#xb6;" horiz-adv-x="606" 
d="M196 700h316v-801h-54v750h-160v-750h-53v519h-49q-44 0 -73 29t-29 73v78q0 44 29 73t73 29z" />
    <glyph glyph-name="periodcentered" unicode="&#xb7;" horiz-adv-x="273" 
d="M136 354q18 0 30.5 -12t12.5 -30q0 -17 -12.5 -29t-30.5 -12t-30 12t-12 29q0 18 12 30t30 12z" />
    <glyph glyph-name="cedilla" unicode="&#xb8;" horiz-adv-x="372" 
d="M175 -84q43 -4 75.5 -25t32.5 -63q0 -43 -35.5 -66t-93.5 -23q-37 0 -60 5v34q22 -5 55 -5q41 0 65 14t24 42q0 59 -112 62l47 109h40z" />
    <glyph glyph-name="uni00B9" unicode="&#xb9;" horiz-adv-x="255" 
d="M193 770h24v-399h-48v346l-131 -49v46z" />
    <glyph glyph-name="guillemotright" unicode="&#xbb;" horiz-adv-x="583" 
d="M130 96l-36 37l146 146l-146 146l36 37l183 -183zM307 96l-37 37l147 146l-147 146l37 37l183 -183z" />
    <glyph glyph-name="onequarter" unicode="&#xbc;" horiz-adv-x="806" 
d="M169 301v346l-131 -49v46l155 56h24v-399h-48zM553 700h54l-400 -700h-54zM767 131v-41h-74v-90h-48v90h-224v41l209 268h63v-268h74zM466 131h179v231z" />
    <glyph glyph-name="onehalf" unicode="&#xbd;" horiz-adv-x="871" 
d="M169 301v346l-131 -49v46l155 56h24v-399h-48zM553 700h54l-400 -700h-54zM569 41h263v-41h-335v35l145 108q75 55 100 83t25 62q0 36 -26.5 59.5t-71.5 23.5q-100 0 -115 -103h-49q8 67 52 104.5t113 37.5q67 0 106 -36t39 -86q0 -46 -31 -81.5t-106 -88.5z" />
    <glyph glyph-name="threequarters" unicode="&#xbe;" horiz-adv-x="912" 
d="M369 412q0 -52 -41 -87t-114 -35q-68 0 -116.5 34t-59.5 97h48q10 -45 44 -68.5t82 -23.5q51 0 80 23t29 62q0 36 -21 56t-54 20h-85v36h58q35 0 61 17t26 50q0 36 -27 57.5t-71 21.5q-43 0 -74 -23t-38 -69h-48q8 63 52 97t109 34q67 0 106 -33.5t39 -84.5t-53 -77
q30 -12 49 -39t19 -65zM659 700h54l-400 -700h-54zM873 131v-41h-74v-90h-48v90h-224v41l209 268h63v-268h74zM572 131h179v231z" />
    <glyph glyph-name="questiondown" unicode="&#xbf;" horiz-adv-x="571" 
d="M298 461q18 0 30.5 -12.5t12.5 -30.5t-12.5 -29.5t-30.5 -11.5q-19 0 -31 11.5t-12 29.5t12 30.5t31 12.5zM326 257v-51q0 -26 -7.5 -44.5t-28.5 -35.5t-34.5 -25t-48.5 -26q-56 -29 -81.5 -57t-25.5 -78q0 -69 49 -110t134 -41q167 0 187 164h54q-12 -107 -77 -160.5
t-165 -53.5q-106 0 -170.5 54.5t-64.5 145.5q0 66 33.5 103.5t97.5 70.5q61 32 77 51q19 21 19 50v43h52z" />
    <glyph glyph-name="Agrave" unicode="&#xc0;" horiz-adv-x="723" 
d="M461 798l-29 -28l-171 160l34 35zM629 0l-95 233h-345l-95 -233h-57l289 700h71l289 -700h-57zM210 283h303l-152 369z" />
    <glyph glyph-name="Aacute" unicode="&#xc1;" horiz-adv-x="723" 
d="M461 930l-172 -160l-28 28l166 167zM629 0l-95 233h-345l-95 -233h-57l289 700h71l289 -700h-57zM210 283h303l-152 369z" />
    <glyph glyph-name="Acircumflex" unicode="&#xc2;" horiz-adv-x="723" 
d="M361 906l-134 -136l-32 32l166 166l166 -166l-32 -32zM629 0l-95 233h-345l-95 -233h-57l289 700h71l289 -700h-57zM210 283h303l-152 369z" />
    <glyph glyph-name="Atilde" unicode="&#xc3;" horiz-adv-x="723" 
d="M279 890q-28 0 -38 -23t-10 -68h-39q0 135 86 135q23 0 41 -11t50 -42l12 -12t12.5 -12t10.5 -8.5t12.5 -8.5t12 -4t14.5 -2q48 0 48 91h39q0 -135 -87 -135q-23 0 -41.5 11t-48.5 41l-12.5 12.5l-12 12t-11 9t-12.5 8t-12 4.5t-14 2zM629 0l-95 233h-345l-95 -233h-57
l289 700h71l289 -700h-57zM210 283h303l-152 369z" />
    <glyph glyph-name="Adieresis" unicode="&#xc4;" horiz-adv-x="723" 
d="M247 830q-17 0 -28.5 11.5t-11.5 27.5q0 17 11.5 28.5t28.5 11.5t29 -11.5t12 -28.5q0 -16 -12 -27.5t-29 -11.5zM474 830q-17 0 -29 11.5t-12 27.5q0 17 12 28.5t29 11.5t29 -11.5t12 -28.5q0 -16 -12 -27.5t-29 -11.5zM629 0l-95 233h-345l-95 -233h-57l289 700h71
l289 -700h-57zM210 283h303l-152 369z" />
    <glyph glyph-name="Aring" unicode="&#xc5;" horiz-adv-x="723" 
d="M361 770q-48 0 -82 34t-34 83t33.5 82.5t82.5 33.5q50 0 84 -33.5t33 -82.5q1 -49 -33.5 -83t-83.5 -34zM361 966q-33 0 -56 -23t-22 -57q0 -33 23 -56.5t55 -23.5q33 0 56 23.5t23 56.5q0 34 -22.5 57t-56.5 23zM629 0l-95 233h-345l-95 -233h-57l289 700h71l289 -700
h-57zM210 283h303l-152 369z" />
    <glyph glyph-name="AE" unicode="&#xc6;" horiz-adv-x="841" 
d="M794 649h-378v-262h355v-51h-355v-285h378v-51h-431v233h-174l-95 -233h-57l289 700h71h397v-51zM210 283h153v372z" />
    <glyph glyph-name="Ccedilla" unicode="&#xc7;" horiz-adv-x="800" 
d="M423 40q92 0 164.5 47.5t108.5 127.5h57q-38 -104 -126 -165t-202 -61h-9l-33 -73q42 -4 75 -25.5t33 -62.5q0 -43 -35.5 -66t-93.5 -23q-37 0 -60 5v34q23 -5 55 -5q41 0 65 14t24 42q0 59 -112 62l44 101q-137 17 -225 116.5t-88 241.5q0 156 102.5 258.5t257.5 102.5
q114 0 202 -61t126 -165h-57q-36 80 -108.5 127.5t-164.5 47.5q-129 0 -217 -89t-88 -221t88 -221t217 -89z" />
    <glyph glyph-name="Egrave" unicode="&#xc8;" horiz-adv-x="573" 
d="M386 798l-29 -28l-171 160l34 35zM526 649h-379v-262h356v-51h-356v-285h379v-51h-432v700h432v-51z" />
    <glyph glyph-name="Eacute" unicode="&#xc9;" horiz-adv-x="573" 
d="M386 930l-172 -160l-28 28l166 167zM526 649h-379v-262h356v-51h-356v-285h379v-51h-432v700h432v-51z" />
    <glyph glyph-name="Ecircumflex" unicode="&#xca;" horiz-adv-x="573" 
d="M286 906l-134 -136l-32 32l166 166l166 -166l-32 -32zM526 649h-379v-262h356v-51h-356v-285h379v-51h-432v700h432v-51z" />
    <glyph glyph-name="Edieresis" unicode="&#xcb;" horiz-adv-x="573" 
d="M172 830q-17 0 -28.5 11.5t-11.5 27.5q0 17 11.5 28.5t28.5 11.5t29 -11.5t12 -28.5q0 -16 -12 -27.5t-29 -11.5zM399 830q-17 0 -29 11.5t-12 27.5q0 17 12 28.5t29 11.5t29 -11.5t12 -28.5q0 -16 -12 -27.5t-29 -11.5zM526 649h-379v-262h356v-51h-356v-285h379v-51
h-432v700h432v-51z" />
    <glyph glyph-name="Igrave" unicode="&#xcc;" horiz-adv-x="242" 
d="M54 965l166 -167l-29 -28l-171 160zM95 0v700h53v-700h-53z" />
    <glyph glyph-name="Iacute" unicode="&#xcd;" horiz-adv-x="242" 
d="M186 965l34 -35l-172 -160l-28 28zM95 0v700h53v-700h-53z" />
    <glyph glyph-name="Icircumflex" unicode="&#xce;" horiz-adv-x="242" 
d="M286 802l-32 -32l-134 136l-134 -136l-32 32l166 166zM95 0v700h53v-700h-53z" />
    <glyph glyph-name="Idieresis" unicode="&#xcf;" horiz-adv-x="242" 
d="M6 909q17 0 29 -11.5t12 -28.5q0 -16 -12 -27.5t-29 -11.5t-28.5 11.5t-11.5 27.5q0 17 11.5 28.5t28.5 11.5zM233 909q17 0 29 -11.5t12 -28.5q0 -16 -12 -27.5t-29 -11.5t-29 11.5t-12 27.5q0 17 12 28.5t29 11.5zM95 0v700h53v-700h-53z" />
    <glyph glyph-name="Eth" unicode="&#xd0;" horiz-adv-x="746" 
d="M323 700q154 0 256.5 -98.5t102.5 -251.5q0 -152 -103 -251t-256 -99h-229v324h-78v51h78v325h229zM325 51q129 0 216 84t88 215q0 130 -87.5 214.5t-216.5 84.5h-178v-274h157v-51h-157v-273h178z" />
    <glyph glyph-name="Ntilde" unicode="&#xd1;" horiz-adv-x="737" 
d="M286 890q-28 0 -38 -23t-10 -68h-39q0 135 86 135q23 0 41 -11t50 -42l12 -12t12.5 -12t10.5 -8.5t12.5 -8.5t12 -4t14.5 -2q48 0 48 91h39q0 -135 -87 -135q-23 0 -41.5 11t-48.5 41l-12.5 12.5l-12 12t-11 9t-12.5 8t-12 4.5t-14 2zM595 700h53v-700h-71l-439 636
l4 -343v-293h-53v700h70l440 -636l-4 343v293z" />
    <glyph glyph-name="Ograve" unicode="&#xd2;" horiz-adv-x="847" 
d="M357 965l166 -167l-29 -28l-171 160zM424 711q153 0 256 -103.5t103 -257.5t-103 -257.5t-256 -103.5t-256.5 103.5t-103.5 257.5t104 257.5t256 103.5zM424 660q-129 0 -217.5 -89t-88.5 -221t88.5 -221t217.5 -89t217.5 89t87.5 221q1 132 -87.5 221t-217.5 89z" />
    <glyph glyph-name="Oacute" unicode="&#xd3;" horiz-adv-x="847" 
d="M489 965l34 -35l-172 -160l-28 28zM424 711q153 0 256 -103.5t103 -257.5t-103 -257.5t-256 -103.5t-256.5 103.5t-103.5 257.5t104 257.5t256 103.5zM424 660q-129 0 -217.5 -89t-88.5 -221t88.5 -221t217.5 -89t217.5 89t87.5 221q1 132 -87.5 221t-217.5 89z" />
    <glyph glyph-name="Ocircumflex" unicode="&#xd4;" horiz-adv-x="847" 
d="M589 802l-32 -32l-134 136l-134 -136l-32 32l166 166zM424 711q153 0 256 -103.5t103 -257.5t-103 -257.5t-256 -103.5t-256.5 103.5t-103.5 257.5t104 257.5t256 103.5zM424 660q-129 0 -217.5 -89t-88.5 -221t88.5 -221t217.5 -89t217.5 89t87.5 221q1 132 -87.5 221
t-217.5 89z" />
    <glyph glyph-name="Otilde" unicode="&#xd5;" horiz-adv-x="847" 
d="M553 925h39q0 -135 -87 -135q-23 0 -41.5 11t-48.5 41l-12.5 12.5l-12 12t-11 9t-12.5 8t-12 4.5t-14 2q-28 0 -38 -23t-10 -68h-39q0 135 86 135q23 0 41 -11t50 -42l12 -12t12.5 -12t10.5 -8.5t12.5 -8.5t12 -4t14.5 -2q48 0 48 91zM424 711q153 0 256 -103.5
t103 -257.5t-103 -257.5t-256 -103.5t-256.5 103.5t-103.5 257.5t104 257.5t256 103.5zM424 660q-129 0 -217.5 -89t-88.5 -221t88.5 -221t217.5 -89t217.5 89t87.5 221q1 132 -87.5 221t-217.5 89z" />
    <glyph glyph-name="Odieresis" unicode="&#xd6;" horiz-adv-x="847" 
d="M309 909q17 0 29 -11.5t12 -28.5q0 -16 -12 -27.5t-29 -11.5t-28.5 11.5t-11.5 27.5q0 17 11.5 28.5t28.5 11.5zM536 909q17 0 29 -11.5t12 -28.5q0 -16 -12 -27.5t-29 -11.5t-29 11.5t-12 27.5q0 17 12 28.5t29 11.5zM424 711q153 0 256 -103.5t103 -257.5t-103 -257.5
t-256 -103.5t-256.5 103.5t-103.5 257.5t104 257.5t256 103.5zM424 660q-129 0 -217.5 -89t-88.5 -221t88.5 -221t217.5 -89t217.5 89t87.5 221q1 132 -87.5 221t-217.5 89z" />
    <glyph glyph-name="multiply" unicode="&#xd7;" horiz-adv-x="682" 
d="M552 549l37 -36l-212 -210l212 -212l-37 -36l-211 212l-211 -212l-36 36l211 212l-211 210l36 36l211 -210z" />
    <glyph glyph-name="Oslash" unicode="&#xd8;" horiz-adv-x="847" 
d="M607 663q81 -47 128.5 -129.5t47.5 -183.5q0 -154 -103 -257.5t-256 -103.5q-73 0 -140 27l-26 -51h-54l36 72q-81 47 -128.5 129.5t-47.5 183.5q0 154 104 257.5t256 103.5q72 0 140 -27l25 51h54zM118 350q0 -86 39 -156t106 -110l277 554q-55 22 -116 22
q-129 0 -217.5 -89t-88.5 -221zM424 40q129 0 217.5 89t87.5 221q1 85 -38.5 155t-106.5 111l-277 -554q57 -22 117 -22z" />
    <glyph glyph-name="Ugrave" unicode="&#xd9;" horiz-adv-x="725" 
d="M296 965l166 -167l-29 -28l-171 160zM582 700h54v-428q0 -138 -75.5 -210.5t-195.5 -72.5t-195.5 72.5t-75.5 210.5v428h54v-425q0 -116 60 -175.5t157 -59.5t157 59.5t60 175.5v425z" />
    <glyph glyph-name="Uacute" unicode="&#xda;" horiz-adv-x="725" 
d="M428 965l34 -35l-172 -160l-28 28zM582 700h54v-428q0 -138 -75.5 -210.5t-195.5 -72.5t-195.5 72.5t-75.5 210.5v428h54v-425q0 -116 60 -175.5t157 -59.5t157 59.5t60 175.5v425z" />
    <glyph glyph-name="Ucircumflex" unicode="&#xdb;" horiz-adv-x="725" 
d="M529 802l-32 -32l-134 136l-134 -136l-32 32l166 166zM582 700h54v-428q0 -138 -75.5 -210.5t-195.5 -72.5t-195.5 72.5t-75.5 210.5v428h54v-425q0 -116 60 -175.5t157 -59.5t157 59.5t60 175.5v425z" />
    <glyph glyph-name="Udieresis" unicode="&#xdc;" horiz-adv-x="725" 
d="M249 909q17 0 29 -11.5t12 -28.5q0 -16 -12 -27.5t-29 -11.5t-28.5 11.5t-11.5 27.5q0 17 11.5 28.5t28.5 11.5zM476 909q17 0 29 -11.5t12 -28.5q0 -16 -12 -27.5t-29 -11.5t-29 11.5t-12 27.5q0 17 12 28.5t29 11.5zM582 700h54v-428q0 -138 -75.5 -210.5t-195.5 -72.5
t-195.5 72.5t-75.5 210.5v428h54v-425q0 -116 60 -175.5t157 -59.5t157 59.5t60 175.5v425z" />
    <glyph glyph-name="Yacute" unicode="&#xdd;" horiz-adv-x="656" 
d="M428 930l-172 -160l-28 28l166 167zM619 700l-264 -438v-262h-54v260l-264 440h61l230 -380l230 380h61z" />
    <glyph glyph-name="Thorn" unicode="&#xde;" horiz-adv-x="671" 
d="M368 597q114 0 176.5 -61.5t62.5 -156.5t-63 -159t-176 -64h-220v-156h-54v700h54v-103h220zM367 207q91 0 138.5 49.5t47.5 121.5q0 73 -47 121t-139 48h-219v-340h219z" />
    <glyph glyph-name="germandbls" unicode="&#xdf;" horiz-adv-x="614" 
d="M421 405q73 -17 111.5 -71.5t38.5 -130.5q0 -101 -66 -157.5t-170 -56.5q-83 0 -138 21l11 49q52 -19 121 -19q85 0 137 43t52 122q0 73 -46 120t-136 47h-95v51h71q85 0 129.5 41t44.5 108q0 69 -46.5 113.5t-128.5 44.5q-83 0 -129.5 -49t-46.5 -134v-547h-53v547
q0 107 61.5 170.5t167.5 63.5q104 0 166 -58.5t62 -145.5q0 -60 -30.5 -105.5t-87.5 -66.5z" />
    <glyph glyph-name="agrave" unicode="&#xe0;" horiz-adv-x="682" 
d="M443 674l-29 -29l-171 161l34 34zM547 550h53v-550h-53v131q-33 -65 -93.5 -103.5t-136.5 -38.5q-115 0 -188 81t-73 205t73 205t187 81q77 0 137.5 -38.5t93.5 -104.5v132zM324 40q96 0 160 66.5t64 168.5t-64 168.5t-160 66.5q-95 0 -155 -66.5t-60 -168.5t60 -168.5
t155 -66.5z" />
    <glyph glyph-name="aacute" unicode="&#xe1;" horiz-adv-x="682" 
d="M443 806l-172 -160l-28 28l166 167zM547 550h53v-550h-53v131q-33 -65 -93.5 -103.5t-136.5 -38.5q-115 0 -188 81t-73 205t73 205t187 81q77 0 137.5 -38.5t93.5 -104.5v132zM324 40q96 0 160 66.5t64 168.5t-64 168.5t-160 66.5q-95 0 -155 -66.5t-60 -168.5t60 -168.5
t155 -66.5z" />
    <glyph glyph-name="acircumflex" unicode="&#xe2;" horiz-adv-x="682" 
d="M343 782l-134 -136l-32 31l166 167l166 -167l-32 -31zM547 550h53v-550h-53v131q-33 -65 -93.5 -103.5t-136.5 -38.5q-115 0 -188 81t-73 205t73 205t187 81q77 0 137.5 -38.5t93.5 -104.5v132zM324 40q96 0 160 66.5t64 168.5t-64 168.5t-160 66.5q-95 0 -155 -66.5
t-60 -168.5t60 -168.5t155 -66.5z" />
    <glyph glyph-name="atilde" unicode="&#xe3;" horiz-adv-x="682" 
d="M261 768q-28 0 -38 -23t-10 -68h-39q0 135 86 135q23 0 41 -11t50 -42l12.5 -12.5l12 -12t11 -9t12.5 -8t12 -4.5t14 -2q27 0 37.5 23.5t10.5 68.5h39q0 -136 -87 -136q-23 0 -41 11.5t-49 41.5l-12.5 12.5l-12 12t-11 9t-12.5 8t-12 4.5t-14 2zM547 550h53v-550h-53v131
q-33 -65 -93.5 -103.5t-136.5 -38.5q-115 0 -188 81t-73 205t73 205t187 81q77 0 137.5 -38.5t93.5 -104.5v132zM324 40q96 0 160 66.5t64 168.5t-64 168.5t-160 66.5q-95 0 -155 -66.5t-60 -168.5t60 -168.5t155 -66.5z" />
    <glyph glyph-name="adieresis" unicode="&#xe4;" horiz-adv-x="682" 
d="M229 705q-17 0 -28.5 11.5t-11.5 28.5q0 16 11.5 27.5t28.5 11.5t29 -11.5t12 -27.5q0 -17 -12 -28.5t-29 -11.5zM456 705q-17 0 -29 11.5t-12 28.5q0 16 12 27.5t29 11.5t29 -11.5t12 -27.5q0 -17 -12 -28.5t-29 -11.5zM547 550h53v-550h-53v131q-33 -65 -93.5 -103.5
t-136.5 -38.5q-115 0 -188 81t-73 205t73 205t187 81q77 0 137.5 -38.5t93.5 -104.5v132zM324 40q96 0 160 66.5t64 168.5t-64 168.5t-160 66.5q-95 0 -155 -66.5t-60 -168.5t60 -168.5t155 -66.5z" />
    <glyph glyph-name="aring" unicode="&#xe5;" horiz-adv-x="682" 
d="M343 646q-48 0 -82 34t-34 82q0 49 33.5 83t82.5 34q50 0 84 -34t33 -83q1 -48 -33.5 -82t-83.5 -34zM343 842q-33 0 -56 -23t-22 -57q0 -34 23 -57t55 -23q33 0 56 23t23 57t-22.5 57t-56.5 23zM547 550h53v-550h-53v131q-33 -65 -93.5 -103.5t-136.5 -38.5
q-115 0 -188 81t-73 205t73 205t187 81q77 0 137.5 -38.5t93.5 -104.5v132zM324 40q96 0 160 66.5t64 168.5t-64 168.5t-160 66.5q-95 0 -155 -66.5t-60 -168.5t60 -168.5t155 -66.5z" />
    <glyph glyph-name="ae" unicode="&#xe6;" horiz-adv-x="1147" 
d="M827 561q126 0 200 -84t71 -219h-496q5 -101 68 -159.5t161 -58.5q67 0 118.5 28t78.5 81h56q-33 -78 -101.5 -119t-153.5 -41q-76 0 -137 31.5t-98 88.5v-109h-46v131q-34 -66 -94 -104t-137 -38q-115 0 -188 81t-73 205t73.5 205t187.5 81q76 0 137 -39t94 -105v133h47
l-1 -112q37 58 97.5 90.5t135.5 32.5zM827 511q-91 0 -152 -57t-71 -146h438q-9 90 -67.5 146.5t-147.5 56.5zM324 40q97 0 161 66.5t64 168.5t-64 168.5t-161 66.5q-95 0 -154.5 -66t-59.5 -169t59.5 -169t154.5 -66z" />
    <glyph glyph-name="ccedilla" unicode="&#xe7;" horiz-adv-x="648" 
d="M338 39q73 0 129.5 39.5t78.5 104.5h56q-25 -88 -96 -140t-163 -54l-33 -73q42 -4 75 -25.5t33 -62.5q0 -43 -35.5 -66t-93.5 -23q-37 0 -60 5v34q23 -5 55 -5q41 0 65 14t24 42q0 59 -112 62l43 100q-108 12 -178 91t-70 193q0 123 81.5 204.5t201.5 81.5
q94 0 166 -52.5t97 -141.5h-56q-22 65 -78 104.5t-129 39.5q-98 0 -164 -67t-66 -169q0 -101 66 -168.5t163 -67.5z" />
    <glyph glyph-name="egrave" unicode="&#xe8;" horiz-adv-x="654" 
d="M427 674l-29 -29l-171 161l34 34zM334 561q126 0 200 -84t72 -219h-496q4 -101 67.5 -159.5t160.5 -58.5q67 0 119 28t79 81h55q-33 -78 -101 -119t-153 -41q-123 0 -202 79t-79 205t78.5 207t199.5 81zM334 511q-90 0 -151 -56.5t-72 -146.5h439q-10 90 -68.5 146.5
t-147.5 56.5z" />
    <glyph glyph-name="eacute" unicode="&#xe9;" horiz-adv-x="654" 
d="M427 806l-172 -160l-28 28l166 167zM334 561q126 0 200 -84t72 -219h-496q4 -101 67.5 -159.5t160.5 -58.5q67 0 119 28t79 81h55q-33 -78 -101 -119t-153 -41q-123 0 -202 79t-79 205t78.5 207t199.5 81zM334 511q-90 0 -151 -56.5t-72 -146.5h439q-10 90 -68.5 146.5
t-147.5 56.5z" />
    <glyph glyph-name="ecircumflex" unicode="&#xea;" horiz-adv-x="654" 
d="M328 782l-134 -136l-32 31l166 167l166 -167l-32 -31zM334 561q126 0 200 -84t72 -219h-496q4 -101 67.5 -159.5t160.5 -58.5q67 0 119 28t79 81h55q-33 -78 -101 -119t-153 -41q-123 0 -202 79t-79 205t78.5 207t199.5 81zM334 511q-90 0 -151 -56.5t-72 -146.5h439
q-10 90 -68.5 146.5t-147.5 56.5z" />
    <glyph glyph-name="edieresis" unicode="&#xeb;" horiz-adv-x="654" 
d="M214 705q-17 0 -28.5 11.5t-11.5 28.5q0 16 11.5 27.5t28.5 11.5t29 -11.5t12 -27.5q0 -17 -12 -28.5t-29 -11.5zM441 705q-17 0 -29 11.5t-12 28.5q0 16 12 27.5t29 11.5t29 -11.5t12 -27.5q0 -17 -12 -28.5t-29 -11.5zM334 561q126 0 200 -84t72 -219h-496
q4 -101 67.5 -159.5t160.5 -58.5q67 0 119 28t79 81h55q-33 -78 -101 -119t-153 -41q-123 0 -202 79t-79 205t78.5 207t199.5 81zM334 511q-90 0 -151 -56.5t-72 -146.5h439q-10 90 -68.5 146.5t-147.5 56.5z" />
    <glyph glyph-name="igrave" unicode="&#xec;" horiz-adv-x="217" 
d="M42 840l166 -166l-29 -29l-171 161zM82 0v550h53v-550h-53z" />
    <glyph glyph-name="iacute" unicode="&#xed;" horiz-adv-x="217" 
d="M174 841l34 -35l-172 -160l-28 28zM82 0v550h53v-550h-53z" />
    <glyph glyph-name="icircumflex" unicode="&#xee;" horiz-adv-x="217" 
d="M274 677l-32 -31l-134 136l-134 -136l-32 31l166 167zM82 0v550h53v-550h-53z" />
    <glyph glyph-name="idieresis" unicode="&#xef;" horiz-adv-x="217" 
d="M-6 784q17 0 29 -11.5t12 -27.5q0 -17 -12 -28.5t-29 -11.5t-28.5 11.5t-11.5 28.5q0 16 11.5 27.5t28.5 11.5zM221 784q17 0 29 -11.5t12 -27.5q0 -17 -12 -28.5t-29 -11.5t-29 11.5t-12 28.5q0 16 12 27.5t29 11.5zM82 0v550h53v-550h-53z" />
    <glyph glyph-name="eth" unicode="&#xf0;" horiz-adv-x="669" 
d="M613 725l-86 -75q86 -114 86 -357q-1 -141 -79 -222.5t-198 -81.5t-200 80t-80 206q0 120 73.5 195t185.5 75q79 0 144.5 -39t96.5 -110q-8 101 -36 167t-79 102.5t-114.5 50.5t-156.5 14v51q223 0 323 -92l86 74zM337 37q97 0 160 64.5t63 171.5q0 100 -70 162.5
t-165 62.5q-94 0 -155 -62.5t-61 -162.5q0 -106 65.5 -171t162.5 -65z" />
    <glyph glyph-name="ntilde" unicode="&#xf1;" horiz-adv-x="621" 
d="M228 768q-28 0 -38 -23t-10 -68h-39q0 135 86 135q23 0 41 -11t50 -42l12.5 -12.5l12 -12t11 -9t12.5 -8t12 -4.5t14 -2q27 0 37.5 23.5t10.5 68.5h39q0 -136 -87 -136q-23 0 -41 11.5t-49 41.5l-12.5 12.5l-12 12t-11 9t-12.5 8t-12 4.5t-14 2zM346 561q93 0 145.5 -55
t52.5 -156v-350h-53v343q0 82 -41 124.5t-115 42.5q-94 0 -147 -63.5t-53 -168.5v-278h-53v550h53v-129q59 140 211 140z" />
    <glyph glyph-name="ograve" unicode="&#xf2;" horiz-adv-x="675" 
d="M271 840l166 -166l-29 -29l-171 161zM338 561q118 0 200 -81.5t82 -204.5q0 -122 -81.5 -204t-200.5 -82t-200.5 82t-81.5 204t82 204t200 82zM338 510q-96 0 -162 -66.5t-66 -168.5q0 -101 66 -168t162 -67t162 67t66 168q0 102 -66 168.5t-162 66.5z" />
    <glyph glyph-name="oacute" unicode="&#xf3;" horiz-adv-x="675" 
d="M403 841l34 -35l-172 -160l-28 28zM338 561q118 0 200 -81.5t82 -204.5q0 -122 -81.5 -204t-200.5 -82t-200.5 82t-81.5 204t82 204t200 82zM338 510q-96 0 -162 -66.5t-66 -168.5q0 -101 66 -168t162 -67t162 67t66 168q0 102 -66 168.5t-162 66.5z" />
    <glyph glyph-name="ocircumflex" unicode="&#xf4;" horiz-adv-x="675" 
d="M503 677l-32 -31l-134 136l-134 -136l-32 31l166 167zM338 561q118 0 200 -81.5t82 -204.5q0 -122 -81.5 -204t-200.5 -82t-200.5 82t-81.5 204t82 204t200 82zM338 510q-96 0 -162 -66.5t-66 -168.5q0 -101 66 -168t162 -67t162 67t66 168q0 102 -66 168.5t-162 66.5z
" />
    <glyph glyph-name="otilde" unicode="&#xf5;" horiz-adv-x="675" 
d="M467 803h39q0 -136 -87 -136q-23 0 -41 11.5t-49 41.5l-12.5 12.5l-12 12t-11 9t-12.5 8t-12 4.5t-14 2q-28 0 -38 -23t-10 -68h-39q0 135 86 135q23 0 41 -11t50 -42l12.5 -12.5l12 -12t11 -9t12.5 -8t12 -4.5t14 -2q27 0 37.5 23.5t10.5 68.5zM338 561q118 0 200 -81.5
t82 -204.5q0 -122 -81.5 -204t-200.5 -82t-200.5 82t-81.5 204t82 204t200 82zM338 510q-96 0 -162 -66.5t-66 -168.5q0 -101 66 -168t162 -67t162 67t66 168q0 102 -66 168.5t-162 66.5z" />
    <glyph glyph-name="odieresis" unicode="&#xf6;" horiz-adv-x="675" 
d="M223 784q17 0 29 -11.5t12 -27.5q0 -17 -12 -28.5t-29 -11.5t-28.5 11.5t-11.5 28.5q0 16 11.5 27.5t28.5 11.5zM450 784q17 0 29 -11.5t12 -27.5q0 -17 -12 -28.5t-29 -11.5t-29 11.5t-12 28.5q0 16 12 27.5t29 11.5zM338 561q118 0 200 -81.5t82 -204.5
q0 -122 -81.5 -204t-200.5 -82t-200.5 82t-81.5 204t82 204t200 82zM338 510q-96 0 -162 -66.5t-66 -168.5q0 -101 66 -168t162 -67t162 67t66 168q0 102 -66 168.5t-162 66.5z" />
    <glyph glyph-name="divide" unicode="&#xf7;" horiz-adv-x="689" 
d="M345 507q18 0 30 -12t12 -29q0 -18 -12 -29.5t-30 -11.5q-19 0 -31.5 11.5t-12.5 29.5q0 17 12.5 29t31.5 12zM595 329v-51h-501v51h501zM345 183q18 0 30 -12t12 -29q0 -18 -12 -29.5t-30 -11.5q-19 0 -31.5 11.5t-12.5 29.5q0 17 12.5 29t31.5 12z" />
    <glyph glyph-name="oslash" unicode="&#xf8;" horiz-adv-x="675" 
d="M518 496q102 -84 102 -221q0 -122 -81.5 -204t-200.5 -82q-84 0 -153 44l-23 -33h-44l38 54q-100 84 -100 221q0 122 82 204t200 82q81 0 151 -43l23 32h45zM110 275q0 -112 77 -179l272 380q-54 34 -121 34q-96 0 -162 -66.5t-66 -168.5zM338 40q96 0 162 67t66 168
q0 111 -78 179l-272 -379q53 -35 122 -35z" />
    <glyph glyph-name="ugrave" unicode="&#xf9;" horiz-adv-x="612" 
d="M405 674l-29 -29l-171 161l34 34zM481 550h53v-550h-53v129q-60 -140 -209 -140q-92 0 -143.5 55.5t-51.5 155.5v350h53v-343q0 -82 39.5 -124.5t113.5 -42.5q92 0 145 63.5t53 168.5v278z" />
    <glyph glyph-name="uacute" unicode="&#xfa;" horiz-adv-x="612" 
d="M405 806l-172 -160l-28 28l166 167zM481 550h53v-550h-53v129q-60 -140 -209 -140q-92 0 -143.5 55.5t-51.5 155.5v350h53v-343q0 -82 39.5 -124.5t113.5 -42.5q92 0 145 63.5t53 168.5v278z" />
    <glyph glyph-name="ucircumflex" unicode="&#xfb;" horiz-adv-x="612" 
d="M305 782l-134 -136l-32 31l166 167l166 -167l-32 -31zM481 550h53v-550h-53v129q-60 -140 -209 -140q-92 0 -143.5 55.5t-51.5 155.5v350h53v-343q0 -82 39.5 -124.5t113.5 -42.5q92 0 145 63.5t53 168.5v278z" />
    <glyph glyph-name="udieresis" unicode="&#xfc;" horiz-adv-x="612" 
d="M191 705q-17 0 -28.5 11.5t-11.5 28.5q0 16 11.5 27.5t28.5 11.5t29 -11.5t12 -27.5q0 -17 -12 -28.5t-29 -11.5zM418 705q-17 0 -29 11.5t-12 28.5q0 16 12 27.5t29 11.5t29 -11.5t12 -27.5q0 -17 -12 -28.5t-29 -11.5zM481 550h53v-550h-53v129q-60 -140 -209 -140
q-92 0 -143.5 55.5t-51.5 155.5v350h53v-343q0 -82 39.5 -124.5t113.5 -42.5q92 0 145 63.5t53 168.5v278z" />
    <glyph glyph-name="yacute" unicode="&#xfd;" horiz-adv-x="572" 
d="M386 806l-172 -160l-28 28l166 167zM487 550h57l-377 -800h-58l148 313l-229 487h57l200 -428z" />
    <glyph glyph-name="thorn" unicode="&#xfe;" horiz-adv-x="687" 
d="M371 561q114 0 187 -81t73 -205t-73 -205t-187 -81q-77 0 -137.5 38.5t-93.5 104.5v-382h-53v1020h53v-352q33 66 93.5 104.5t137.5 38.5zM363 40q95 0 155 66.5t60 168.5q0 103 -60 169t-155 66q-96 0 -160 -66.5t-64 -168.5t64 -168.5t160 -66.5z" />
    <glyph glyph-name="ydieresis" unicode="&#xff;" horiz-adv-x="572" 
d="M172 705q-17 0 -28.5 11.5t-11.5 28.5q0 16 11.5 27.5t28.5 11.5t29 -11.5t12 -27.5q0 -17 -12 -28.5t-29 -11.5zM399 705q-17 0 -29 11.5t-12 28.5q0 16 12 27.5t29 11.5t29 -11.5t12 -27.5q0 -17 -12 -28.5t-29 -11.5zM487 550h57l-377 -800h-58l148 313l-229 487h57
l200 -428z" />
    <glyph glyph-name="Amacron" unicode="&#x100;" horiz-adv-x="723" 
d="M487 894v-42h-251v42h251zM629 0l-95 233h-345l-95 -233h-57l289 700h71l289 -700h-57zM210 283h303l-152 369z" />
    <glyph glyph-name="amacron" unicode="&#x101;" horiz-adv-x="682" 
d="M469 770v-42h-251v42h251zM547 550h53v-550h-53v131q-33 -65 -93.5 -103.5t-136.5 -38.5q-115 0 -188 81t-73 205t73 205t187 81q77 0 137.5 -38.5t93.5 -104.5v132zM324 40q96 0 160 66.5t64 168.5t-64 168.5t-160 66.5q-95 0 -155 -66.5t-60 -168.5t60 -168.5
t155 -66.5z" />
    <glyph glyph-name="Abreve" unicode="&#x102;" horiz-adv-x="723" 
d="M361 785q-67 0 -112 41t-45 107v13h46v-11q0 -49 30.5 -77.5t80.5 -28.5t80.5 28.5t30.5 77.5v11h46v-13q0 -66 -45 -107t-112 -41zM629 0l-95 233h-345l-95 -233h-57l289 700h71l289 -700h-57zM210 283h303l-152 369z" />
    <glyph glyph-name="abreve" unicode="&#x103;" horiz-adv-x="682" 
d="M343 661q-68 0 -112.5 40.5t-44.5 107.5v13h46v-11q0 -49 30.5 -77.5t80.5 -28.5t80.5 28.5t30.5 77.5v11h46v-13q0 -67 -45 -107.5t-112 -40.5zM547 550h53v-550h-53v131q-33 -65 -93.5 -103.5t-136.5 -38.5q-115 0 -188 81t-73 205t73 205t187 81q77 0 137.5 -38.5
t93.5 -104.5v132zM324 40q96 0 160 66.5t64 168.5t-64 168.5t-160 66.5q-95 0 -155 -66.5t-60 -168.5t60 -168.5t155 -66.5z" />
    <glyph glyph-name="Aogonek" unicode="&#x104;" horiz-adv-x="723" 
d="M569 -167q0 -58 69 -58q26 0 48 5v-36q-22 -5 -55 -5q-48 0 -77.5 23t-29.5 66q0 27 17.5 56.5t37.5 50.5t67 65h-17l-95 233h-345l-95 -233h-57l289 700h71l289 -700q-66 -66 -91.5 -101t-25.5 -66zM210 283h303l-152 369z" />
    <glyph glyph-name="aogonek" unicode="&#x105;" horiz-adv-x="682" 
d="M547 550h53v-550q-66 -66 -91.5 -101t-25.5 -66q0 -58 69 -58q26 0 48 5v-36q-22 -5 -55 -5q-48 0 -77.5 23t-29.5 66q0 39 26.5 75t90.5 97h-8v131q-33 -65 -93.5 -103.5t-136.5 -38.5q-115 0 -188 81t-73 205t73 205t187 81q77 0 137.5 -38.5t93.5 -104.5v132zM324 40
q96 0 160 66.5t64 168.5t-64 168.5t-160 66.5q-95 0 -155 -66.5t-60 -168.5t60 -168.5t155 -66.5z" />
    <glyph glyph-name="Cacute" unicode="&#x106;" horiz-adv-x="800" 
d="M465 965l34 -35l-172 -160l-28 28zM425 -11q-155 0 -257.5 102.5t-102.5 258.5t102.5 258.5t257.5 102.5q114 0 202 -61t126 -165h-57q-36 80 -108.5 127.5t-164.5 47.5q-129 0 -217 -89t-88 -221t88 -221t217 -89q92 0 164.5 47.5t108.5 127.5h57q-38 -104 -126 -165
t-202 -61z" />
    <glyph glyph-name="cacute" unicode="&#x107;" horiz-adv-x="648" 
d="M392 841l34 -35l-172 -160l-28 28zM338 -11q-119 0 -200.5 81.5t-81.5 204.5t81.5 204.5t201.5 81.5q94 0 166 -52.5t97 -141.5h-56q-22 65 -78 104.5t-129 39.5q-98 0 -164 -67t-66 -169q0 -101 66 -168.5t163 -67.5q73 0 129.5 39.5t78.5 104.5h56
q-25 -89 -97.5 -141.5t-166.5 -52.5z" />
    <glyph glyph-name="Ccaron" unicode="&#x10c;" horiz-adv-x="800" 
d="M566 937l-166 -166l-166 166l32 32l134 -136l134 136zM425 -11q-155 0 -257.5 102.5t-102.5 258.5t102.5 258.5t257.5 102.5q114 0 202 -61t126 -165h-57q-36 80 -108.5 127.5t-164.5 47.5q-129 0 -217 -89t-88 -221t88 -221t217 -89q92 0 164.5 47.5t108.5 127.5h57
q-38 -104 -126 -165t-202 -61z" />
    <glyph glyph-name="ccaron" unicode="&#x10d;" horiz-adv-x="648" 
d="M492 812l-166 -166l-166 166l32 32l134 -136l134 136zM338 -11q-119 0 -200.5 81.5t-81.5 204.5t81.5 204.5t201.5 81.5q94 0 166 -52.5t97 -141.5h-56q-22 65 -78 104.5t-129 39.5q-98 0 -164 -67t-66 -169q0 -101 66 -168.5t163 -67.5q73 0 129.5 39.5t78.5 104.5h56
q-25 -89 -97.5 -141.5t-166.5 -52.5z" />
    <glyph glyph-name="Dcaron" unicode="&#x10e;" horiz-adv-x="746" 
d="M489 937l-166 -166l-166 166l32 32l134 -136l134 136zM323 700q154 0 256.5 -98.5t102.5 -251.5q0 -152 -103 -251t-256 -99h-229v700h229zM325 51q129 0 216 84t88 215q0 130 -87.5 214.5t-216.5 84.5h-178v-598h178z" />
    <glyph glyph-name="dcaron" unicode="&#x10f;" horiz-adv-x="684" 
d="M757 746q0 -19 -46 -139h-38l41 105q-32 4 -32 34q0 15 11 25.5t26 10.5t26 -9t12 -27zM550 418v352h53v-770h-53v132q-34 -66 -94.5 -104.5t-136.5 -38.5q-115 0 -188 81t-73 205t73 205t187 81q77 0 137.5 -38.5t94.5 -104.5zM326 40q96 0 160 66.5t64 168.5t-64 168.5
t-160 66.5q-95 0 -155 -66.5t-60 -168.5t60 -168.5t155 -66.5z" />
    <glyph glyph-name="Dcroat" unicode="&#x110;" horiz-adv-x="746" 
d="M323 700q154 0 256.5 -98.5t102.5 -251.5q0 -152 -103 -251t-256 -99h-229v324h-78v51h78v325h229zM325 51q129 0 216 84t88 215q0 130 -87.5 214.5t-216.5 84.5h-178v-274h157v-51h-157v-273h178z" />
    <glyph glyph-name="dcroat" unicode="&#x111;" horiz-adv-x="684" 
d="M665 689v-51h-62v-638h-53v132q-34 -66 -94.5 -104.5t-136.5 -38.5q-115 0 -188 81t-73 205t73 205t187 81q77 0 137.5 -38.5t94.5 -104.5v220h-173v51h173v81h53v-81h62zM326 40q96 0 160 66.5t64 168.5t-64 168.5t-160 66.5q-95 0 -155 -66.5t-60 -168.5t60 -168.5
t155 -66.5z" />
    <glyph glyph-name="Emacron" unicode="&#x112;" horiz-adv-x="573" 
d="M412 894v-42h-251v42h251zM526 649h-379v-262h356v-51h-356v-285h379v-51h-432v700h432v-51z" />
    <glyph glyph-name="emacron" unicode="&#x113;" horiz-adv-x="654" 
d="M453 770v-42h-251v42h251zM334 561q126 0 200 -84t72 -219h-496q4 -101 67.5 -159.5t160.5 -58.5q67 0 119 28t79 81h55q-33 -78 -101 -119t-153 -41q-123 0 -202 79t-79 205t78.5 207t199.5 81zM334 511q-90 0 -151 -56.5t-72 -146.5h439q-10 90 -68.5 146.5
t-147.5 56.5z" />
    <glyph glyph-name="Edotaccent" unicode="&#x116;" horiz-adv-x="573" 
d="M286 830q-17 0 -28.5 11.5t-11.5 27.5q0 17 11.5 28.5t28.5 11.5t29 -11.5t12 -28.5q0 -16 -12 -27.5t-29 -11.5zM526 649h-379v-262h356v-51h-356v-285h379v-51h-432v700h432v-51z" />
    <glyph glyph-name="edotaccent" unicode="&#x117;" horiz-adv-x="654" 
d="M328 703q-17 0 -29.5 12t-12.5 30q0 17 12.5 29t29.5 12q19 0 31 -12t12 -29q0 -18 -12 -30t-31 -12zM334 561q126 0 200 -84t72 -219h-496q4 -101 67.5 -159.5t160.5 -58.5q67 0 119 28t79 81h55q-33 -78 -101 -119t-153 -41q-123 0 -202 79t-79 205t78.5 207t199.5 81z
M334 511q-90 0 -151 -56.5t-72 -146.5h439q-10 90 -68.5 146.5t-147.5 56.5z" />
    <glyph glyph-name="Eogonek" unicode="&#x118;" horiz-adv-x="573" 
d="M409 -167q0 -58 69 -58q26 0 48 5v-36q-22 -5 -55 -5q-48 0 -77.5 23t-29.5 66q0 27 17.5 56.5t37.5 50.5t67 65h-392v700h432v-51h-379v-262h356v-51h-356v-285h379v-51q-66 -66 -91.5 -101t-25.5 -66z" />
    <glyph glyph-name="eogonek" unicode="&#x119;" horiz-adv-x="654" 
d="M334 561q126 0 200 -84t72 -219h-496q4 -101 67.5 -159.5t160.5 -58.5q67 0 119 28t79 81h55q-48 -116 -171 -149h1q-66 -66 -91.5 -101t-25.5 -66q0 -58 69 -58q26 0 48 5v-36q-23 -5 -55 -5q-48 0 -77.5 23t-29.5 66q0 37 24.5 72t82.5 91q-20 -2 -29 -2
q-123 0 -202 79t-79 205t78.5 207t199.5 81zM334 511q-90 0 -151 -56.5t-72 -146.5h439q-10 90 -68.5 146.5t-147.5 56.5z" />
    <glyph glyph-name="Ecaron" unicode="&#x11a;" horiz-adv-x="573" 
d="M452 937l-166 -166l-166 166l32 32l134 -136l134 136zM526 649h-379v-262h356v-51h-356v-285h379v-51h-432v700h432v-51z" />
    <glyph glyph-name="ecaron" unicode="&#x11b;" horiz-adv-x="654" 
d="M494 812l-166 -166l-166 166l32 32l134 -136l134 136zM334 561q126 0 200 -84t72 -219h-496q4 -101 67.5 -159.5t160.5 -58.5q67 0 119 28t79 81h55q-33 -78 -101 -119t-153 -41q-123 0 -202 79t-79 205t78.5 207t199.5 81zM334 511q-90 0 -151 -56.5t-72 -146.5h439
q-10 90 -68.5 146.5t-147.5 56.5z" />
    <glyph glyph-name="Gcommaaccent" unicode="&#x122;" horiz-adv-x="846" 
d="M391 356h366v-356h-48v187q-28 -93 -106 -145.5t-182 -52.5q-153 0 -255 103t-102 258q0 156 103 258.5t256 102.5q115 0 202.5 -60.5t126.5 -163.5h-57q-36 79 -108.5 126t-164.5 47q-129 0 -217 -89.5t-88 -222.5q0 -131 87 -220t219 -89q120 0 199 75t82 195h-313v47z
M430 -75q15 0 25.5 -9.5t11.5 -26.5q2 -18 -45 -139h-39l42 104q-32 5 -32 34q0 16 11 26.5t26 10.5z" />
    <glyph glyph-name="gcommaaccent" unicode="&#x123;" horiz-adv-x="682" 
d="M337 646q-14 0 -25 9t-12 26q-1 16 46 140h38l-43 -105q15 -2 24 -11t9 -23q0 -16 -11 -26t-26 -10zM547 550h53v-544q0 -124 -68.5 -195.5t-186.5 -71.5q-97 0 -169.5 51t-95.5 140h56q20 -65 75.5 -103.5t132.5 -38.5q97 0 150 57t53 159v129q-33 -65 -94 -103.5
t-136 -38.5q-115 0 -188 80.5t-73 204.5t73.5 204.5t187.5 80.5q75 0 136 -39t94 -104v132zM324 42q96 0 160 66.5t64 167.5t-64 167.5t-160 66.5q-95 0 -155 -66t-60 -168t60 -168t155 -66z" />
    <glyph glyph-name="Imacron" unicode="&#x12a;" horiz-adv-x="242" 
d="M246 894v-42h-251v42h251zM95 0v700h53v-700h-53z" />
    <glyph glyph-name="imacron" unicode="&#x12b;" horiz-adv-x="217" 
d="M234 770v-42h-251v42h251zM82 0v550h53v-550h-53z" />
    <glyph glyph-name="Iogonek" unicode="&#x12e;" horiz-adv-x="242" 
d="M31 -167q0 -58 69 -58q25 0 48 5v-36q-22 -5 -55 -5q-48 0 -77.5 23t-29.5 66q0 27 17.5 56.5t37.5 50.5t67 65h-13v700h53v-700q-66 -66 -91.5 -101t-25.5 -66z" />
    <glyph glyph-name="iogonek" unicode="&#x12f;" horiz-adv-x="217" 
d="M108 786q19 0 31 -12t12 -29q0 -18 -12 -30t-31 -12q-17 0 -29.5 12t-12.5 30q0 17 12.5 29t29.5 12zM135 0q-66 -66 -91.5 -101t-25.5 -66q0 -58 69 -58q25 0 48 5v-36q-23 -5 -55 -5q-48 0 -77.5 23t-29.5 66q0 39 26.5 75t90.5 97h-8v550h53v-550z" />
    <glyph glyph-name="dotlessi" unicode="&#x131;" horiz-adv-x="217" 
d="M82 0v550h53v-550h-53z" />
    <glyph glyph-name="Kcommaaccent" unicode="&#x136;" horiz-adv-x="616" 
d="M208 356l371 -356h-70l-362 344v-344h-53v700h53v-335l352 335h70zM315 -75q15 0 25.5 -9.5t11.5 -26.5q2 -18 -45 -139h-39l42 104q-32 5 -32 34q0 16 11 26.5t26 10.5z" />
    <glyph glyph-name="kcommaaccent" unicode="&#x137;" horiz-adv-x="569" 
d="M200 290l341 -290h-73l-328 276v-276h-53v770h53v-471l299 251h72zM292 -75q15 0 25.5 -9.5t11.5 -26.5q2 -18 -45 -139h-39l42 104q-32 5 -32 34q0 16 11 26.5t26 10.5z" />
    <glyph glyph-name="Lacute" unicode="&#x139;" horiz-adv-x="539" 
d="M370 930l-172 -160l-28 28l166 167zM147 51h356v-51h-409v700h53v-649z" />
    <glyph glyph-name="lacute" unicode="&#x13a;" horiz-adv-x="217" 
d="M174 1035l34 -35l-172 -160l-28 28zM86 0v770h54v-770h-54z" />
    <glyph glyph-name="Lcommaaccent" unicode="&#x13b;" horiz-adv-x="539" 
d="M147 51h356v-51h-409v700h53v-649zM277 -75q15 0 25.5 -9.5t11.5 -26.5q2 -18 -45 -139h-39l42 104q-32 5 -32 34q0 16 11 26.5t26 10.5z" />
    <glyph glyph-name="lcommaaccent" unicode="&#x13c;" horiz-adv-x="217" 
d="M140 770v-770h-54v770h54zM152 -111q2 -18 -45 -139h-39l42 104q-32 5 -32 34q0 16 11 26.5t26 10.5t25.5 -9.5t11.5 -26.5z" />
    <glyph glyph-name="Lcaron" unicode="&#x13d;" horiz-adv-x="539" 
d="M362 536h-38l42 104q-32 5 -32 34q0 16 11 26.5t26 10.5q14 0 25 -9.5t12 -26.5q2 -19 -46 -139zM147 51h356v-51h-409v700h53v-649z" />
    <glyph glyph-name="lcaron" unicode="&#x13e;" horiz-adv-x="216" 
d="M294 746q1 -15 -46 -139h-38l42 105q-15 2 -24 11t-9 23q0 15 11.5 25.5t26.5 10.5q14 0 25 -9t12 -27zM86 0v770h54v-770h-54z" />
    <glyph glyph-name="Lslash" unicode="&#x141;" horiz-adv-x="539" 
d="M147 51h356v-51h-409v296l-75 -18v51l75 19v352h53v-339l160 39v-51l-160 -40v-258z" />
    <glyph glyph-name="lslash" unicode="&#x142;" horiz-adv-x="216" 
d="M232 389v-51l-92 -23v-315h-54v302l-97 -24v51l97 24v417h54v-404z" />
    <glyph glyph-name="Nacute" unicode="&#x143;" horiz-adv-x="737" 
d="M468 930l-172 -160l-28 28l166 167zM595 700h53v-700h-71l-439 636l4 -343v-293h-53v700h70l440 -636l-4 343v293z" />
    <glyph glyph-name="nacute" unicode="&#x144;" horiz-adv-x="621" 
d="M410 806l-172 -160l-28 28l166 167zM346 561q93 0 145.5 -55t52.5 -156v-350h-53v343q0 82 -41 124.5t-115 42.5q-94 0 -147 -63.5t-53 -168.5v-278h-53v550h53v-129q59 140 211 140z" />
    <glyph glyph-name="Ncommaaccent" unicode="&#x145;" horiz-adv-x="737" 
d="M595 700h53v-700h-71l-439 636l4 -343v-293h-53v700h70l440 -636l-4 343v293zM376 -75q15 0 25.5 -9.5t11.5 -26.5q2 -18 -45 -139h-39l42 104q-32 5 -32 34q0 16 11 26.5t26 10.5z" />
    <glyph glyph-name="ncommaaccent" unicode="&#x146;" horiz-adv-x="621" 
d="M346 561q93 0 145.5 -55t52.5 -156v-350h-53v343q0 82 -41 124.5t-115 42.5q-94 0 -147 -63.5t-53 -168.5v-278h-53v550h53v-129q59 140 211 140zM317 -75q15 0 25.5 -9.5t11.5 -26.5q2 -18 -45 -139h-39l42 104q-32 5 -32 34q0 16 11 26.5t26 10.5z" />
    <glyph glyph-name="Ncaron" unicode="&#x147;" horiz-adv-x="737" 
d="M534 937l-166 -166l-166 166l32 32l134 -136l134 136zM595 700h53v-700h-71l-439 636l4 -343v-293h-53v700h70l440 -636l-4 343v293z" />
    <glyph glyph-name="ncaron" unicode="&#x148;" horiz-adv-x="621" 
d="M476 812l-166 -166l-166 166l32 32l134 -136l134 136zM346 561q93 0 145.5 -55t52.5 -156v-350h-53v343q0 82 -41 124.5t-115 42.5q-94 0 -147 -63.5t-53 -168.5v-278h-53v550h53v-129q59 140 211 140z" />
    <glyph glyph-name="Eng" unicode="&#x14a;" horiz-adv-x="737" 
d="M595 700h53v-700v-41q0 -104 -51 -162t-142 -58q-74 0 -140 32l10 45q66 -27 122 -27q148 0 148 172v39h-18l-439 636l4 -343v-293h-53v700h70l436 -631v59h3l-3 279v293z" />
    <glyph glyph-name="eng" unicode="&#x14b;" horiz-adv-x="621" 
d="M346 561q93 0 145.5 -55t52.5 -156v-350v-41q0 -104 -51 -162t-143 -58q-74 0 -140 32l10 45q66 -27 123 -27q74 0 111 44.5t37 127.5v143v239q0 82 -41 124.5t-115 42.5q-94 0 -147 -63.5t-53 -168.5v-278h-53v550h53v-129q59 140 211 140z" />
    <glyph glyph-name="Omacron" unicode="&#x14c;" horiz-adv-x="847" 
d="M549 894v-42h-251v42h251zM424 711q153 0 256 -103.5t103 -257.5t-103 -257.5t-256 -103.5t-256.5 103.5t-103.5 257.5t104 257.5t256 103.5zM424 660q-129 0 -217.5 -89t-88.5 -221t88.5 -221t217.5 -89t217.5 89t87.5 221q1 132 -87.5 221t-217.5 89z" />
    <glyph glyph-name="omacron" unicode="&#x14d;" horiz-adv-x="675" 
d="M463 770v-42h-251v42h251zM338 561q118 0 200 -81.5t82 -204.5q0 -122 -81.5 -204t-200.5 -82t-200.5 82t-81.5 204t82 204t200 82zM338 510q-96 0 -162 -66.5t-66 -168.5q0 -101 66 -168t162 -67t162 67t66 168q0 102 -66 168.5t-162 66.5z" />
    <glyph glyph-name="Ohungarumlaut" unicode="&#x150;" horiz-adv-x="847" 
d="M403 973l37 -19l-109 -184l-31 16zM510 973l37 -19l-109 -184l-31 16zM424 711q153 0 256 -103.5t103 -257.5t-103 -257.5t-256 -103.5t-256.5 103.5t-103.5 257.5t104 257.5t256 103.5zM424 660q-129 0 -217.5 -89t-88.5 -221t88.5 -221t217.5 -89t217.5 89t87.5 221
q1 132 -87.5 221t-217.5 89z" />
    <glyph glyph-name="ohungarumlaut" unicode="&#x151;" horiz-adv-x="675" 
d="M317 849l37 -19l-109 -184l-31 16zM424 849l37 -19l-109 -184l-31 16zM338 561q118 0 200 -81.5t82 -204.5q0 -122 -81.5 -204t-200.5 -82t-200.5 82t-81.5 204t82 204t200 82zM338 510q-96 0 -162 -66.5t-66 -168.5q0 -101 66 -168t162 -67t162 67t66 168
q0 102 -66 168.5t-162 66.5z" />
    <glyph glyph-name="OE" unicode="&#x152;" horiz-adv-x="1209" 
d="M1162 649h-379v-262h355v-51h-355v-285h379v-51h-432v167q-44 -82 -125 -130t-181 -48q-153 0 -256.5 103.5t-103.5 257.5t104 257.5t256 103.5q100 0 181 -48t125 -130v167h432v-51zM424 40q129 0 217.5 89t88.5 221t-88.5 221t-217.5 89t-217.5 -89t-88.5 -221
t88.5 -221t217.5 -89z" />
    <glyph glyph-name="oe" unicode="&#x153;" horiz-adv-x="1164" 
d="M844 561q126 0 200 -84t72 -219h-496q4 -101 67.5 -159.5t160.5 -58.5q67 0 119 28t79 81h55q-33 -78 -101 -119t-153 -41q-89 0 -157 43t-100 119q-33 -74 -100.5 -118t-151.5 -44q-119 0 -200.5 82t-81.5 204t82 204t200 82q84 0 152 -44.5t100 -119.5q32 76 99 120
t155 44zM844 511q-90 0 -151 -56.5t-72 -146.5h439q-10 90 -68.5 146.5t-147.5 56.5zM338 40q96 0 162 66.5t66 168.5t-66 168.5t-162 66.5t-162 -66.5t-66 -168.5q0 -101 66 -168t162 -67z" />
    <glyph glyph-name="Racute" unicode="&#x154;" horiz-adv-x="654" 
d="M426 930l-172 -160l-28 28l166 167zM550 0l-241 280h-161v-280h-54v700h265q114 0 175 -58.5t61 -150.5q0 -90 -57 -147.5t-163 -62.5l242 -281h-67zM148 649v-321h207q92 0 139.5 45.5t47.5 116.5t-47 115t-140 44h-207z" />
    <glyph glyph-name="racute" unicode="&#x155;" horiz-adv-x="407" 
d="M303 806l-172 -160l-28 28l166 167zM343 561q23 0 36 -3v-53q-18 2 -35 2q-95 0 -152 -65t-57 -175v-267h-53v550h53v-137q25 68 78 108t130 40z" />
    <glyph glyph-name="Rcommaaccent" unicode="&#x156;" horiz-adv-x="654" 
d="M375 281l242 -281h-67l-241 280h-161v-280h-54v700h265q114 0 175 -58.5t61 -150.5q0 -90 -57 -147.5t-163 -62.5zM148 649v-321h207q92 0 139.5 45.5t47.5 116.5t-47 115t-140 44h-207zM334 -75q15 0 25.5 -9.5t11.5 -26.5q2 -18 -45 -139h-39l42 104q-32 5 -32 34
q0 16 11 26.5t26 10.5z" />
    <glyph glyph-name="rcommaaccent" unicode="&#x157;" horiz-adv-x="407" 
d="M343 561q23 0 36 -3v-53q-18 2 -35 2q-95 0 -152 -65t-57 -175v-267h-53v550h53v-137q25 68 78 108t130 40zM211 -75q15 0 25.5 -9.5t11.5 -26.5q2 -18 -45 -139h-39l42 104q-32 5 -32 34q0 16 11 26.5t26 10.5z" />
    <glyph glyph-name="Rcaron" unicode="&#x158;" horiz-adv-x="654" 
d="M492 937l-166 -166l-166 166l32 32l134 -136l134 136zM550 0l-241 280h-161v-280h-54v700h265q114 0 175 -58.5t61 -150.5q0 -90 -57 -147.5t-163 -62.5l242 -281h-67zM148 649v-321h207q92 0 139.5 45.5t47.5 116.5t-47 115t-140 44h-207z" />
    <glyph glyph-name="rcaron" unicode="&#x159;" horiz-adv-x="407" 
d="M370 812l-166 -166l-166 166l32 32l134 -136l134 136zM343 561q23 0 36 -3v-53q-18 2 -35 2q-95 0 -152 -65t-57 -175v-267h-53v550h53v-137q25 68 78 108t130 40z" />
    <glyph glyph-name="Sacute" unicode="&#x15a;" horiz-adv-x="638" 
d="M385 965l34 -35l-172 -160l-28 28zM333 381q56 -12 88.5 -21t69.5 -24.5t55.5 -33.5t31.5 -46.5t13 -65.5q0 -97 -71 -149t-180 -52q-127 0 -200.5 58t-92.5 156h53q42 -164 238 -164q92 0 146 39t54 109q0 62 -47 88.5t-170 53.5q-67 15 -108 28.5t-77.5 34.5t-52.5 51
t-16 73q0 90 69.5 142.5t174.5 52.5q110 0 178 -46t91 -125h-53q-50 121 -214 121q-87 0 -140 -39t-53 -108q0 -51 44 -78t169 -55z" />
    <glyph glyph-name="sacute" unicode="&#x15b;" horiz-adv-x="562" 
d="M344 841l34 -35l-172 -160l-28 28zM300 -11q-107 0 -176 48t-86 135h54q35 -132 207 -132q72 0 119 28t47 79q0 29 -22 48.5t-47 28t-88 24.5q-15 4 -23 6q-126 32 -171.5 60.5t-45.5 87.5q0 74 59.5 116.5t153.5 42.5q90 0 150.5 -40t78.5 -112h-54q-37 101 -174 101
q-71 0 -116 -28.5t-45 -75.5q0 -40 35.5 -57.5t145.5 -45.5q44 -11 66 -17.5t52 -16.5t44 -20t29 -24t20.5 -32.5t5.5 -41.5q0 -78 -62.5 -120t-156.5 -42z" />
    <glyph glyph-name="Scedilla" unicode="&#x15e;" horiz-adv-x="638" 
d="M340 -11h-4l-33 -73q42 -4 75 -25.5t33 -62.5q0 -43 -35.5 -66t-93.5 -23q-38 0 -60 5v34q22 -5 55 -5q41 0 65 14t24 42q0 59 -112 62l43 100q-108 10 -170.5 66.5t-79.5 145.5h53q42 -164 238 -164q92 0 146 39t54 109q0 62 -47 88.5t-170 53.5q-67 15 -108 28.5
t-77.5 34.5t-52.5 51t-16 73q0 90 69.5 142.5t174.5 52.5q110 0 178 -46t91 -125h-53q-50 121 -214 121q-87 0 -140 -39t-53 -108q0 -51 44 -78t169 -55q56 -12 88.5 -21t69.5 -24.5t55.5 -33.5t31.5 -46.5t13 -65.5q0 -97 -71 -149t-180 -52z" />
    <glyph glyph-name="scedilla" unicode="&#x15f;" horiz-adv-x="562" 
d="M300 -11q-1 0 -2.5 0.5t-2.5 0.5l-33 -74q42 -4 75 -25.5t33 -62.5q0 -43 -35.5 -66t-93.5 -23q-37 0 -60 5v34q23 -5 55 -5q41 0 65 14t24 42q0 59 -112 62l43 101q-89 9 -146 55.5t-72 124.5h54q35 -132 207 -132q72 0 119 28t47 79q0 29 -22 48.5t-47 28t-88 24.5
q-15 4 -23 6q-126 32 -171.5 60.5t-45.5 87.5q0 74 59.5 116.5t153.5 42.5q90 0 150.5 -40t78.5 -112h-54q-37 101 -174 101q-71 0 -116 -28.5t-45 -75.5q0 -40 35.5 -57.5t145.5 -45.5q44 -11 66 -17.5t52 -16.5t44 -20t29 -24t20.5 -32.5t5.5 -41.5q0 -78 -62.5 -120
t-156.5 -42z" />
    <glyph glyph-name="Scaron" unicode="&#x160;" horiz-adv-x="638" 
d="M485 937l-166 -166l-166 166l32 32l134 -136l134 136zM333 381q56 -12 88.5 -21t69.5 -24.5t55.5 -33.5t31.5 -46.5t13 -65.5q0 -97 -71 -149t-180 -52q-127 0 -200.5 58t-92.5 156h53q42 -164 238 -164q92 0 146 39t54 109q0 62 -47 88.5t-170 53.5q-67 15 -108 28.5
t-77.5 34.5t-52.5 51t-16 73q0 90 69.5 142.5t174.5 52.5q110 0 178 -46t91 -125h-53q-50 121 -214 121q-87 0 -140 -39t-53 -108q0 -51 44 -78t169 -55z" />
    <glyph glyph-name="scaron" unicode="&#x161;" horiz-adv-x="562" 
d="M444 812l-166 -166l-166 166l32 32l134 -136l134 136zM300 -11q-107 0 -176 48t-86 135h54q35 -132 207 -132q72 0 119 28t47 79q0 29 -22 48.5t-47 28t-88 24.5q-15 4 -23 6q-126 32 -171.5 60.5t-45.5 87.5q0 74 59.5 116.5t153.5 42.5q90 0 150.5 -40t78.5 -112h-54
q-37 101 -174 101q-71 0 -116 -28.5t-45 -75.5q0 -40 35.5 -57.5t145.5 -45.5q44 -11 66 -17.5t52 -16.5t44 -20t29 -24t20.5 -32.5t5.5 -41.5q0 -78 -62.5 -120t-156.5 -42z" />
    <glyph glyph-name="uni0162" unicode="&#x162;" horiz-adv-x="603" 
d="M328 0h-5l-38 -84q42 -4 75 -25.5t33 -62.5q0 -43 -35.5 -66t-93.5 -23q-38 0 -60 5v34q22 -5 55 -5q41 0 65 14t24 42q0 59 -112 62l47 109h-8v649h-238v51h529v-51h-238v-649z" />
    <glyph glyph-name="uni0163" unicode="&#x163;" horiz-adv-x="510" 
d="M316 -84q42 -4 75 -25.5t33 -62.5q0 -43 -35.5 -66t-93.5 -23q-37 0 -60 5v34q23 -5 55 -5q41 0 65 14t24 42q0 59 -112 62l43 99q-82 7 -127 64.5t-45 154.5v291h-110v50h110v138l53 12v-150h269v-50h-269v-289q0 -83 37 -127.5t111 -44.5q56 0 122 27l10 -45
q-51 -27 -122 -31z" />
    <glyph glyph-name="Tcaron" unicode="&#x164;" horiz-adv-x="603" 
d="M467 937l-166 -166l-166 166l32 32l134 -136l134 136zM566 700v-51h-238v-649h-53v649h-238v51h529z" />
    <glyph glyph-name="tcaron" unicode="&#x165;" horiz-adv-x="519" 
d="M371 607h-38l42 105q-14 2 -23 11t-9 23q0 15 11 25.5t26 10.5q14 0 25 -9.5t12 -26.5q1 -18 -46 -139zM461 66l10 -45q-64 -32 -140 -32q-91 0 -142 58t-51 162v291h-110v50h110v138l53 12v-150h269v-50h-269v-289q0 -83 37 -127.5t111 -44.5q56 0 122 27z" />
    <glyph glyph-name="Tbar" unicode="&#x166;" horiz-adv-x="603" 
d="M566 649h-238v-274h118v-51h-118v-324h-53v324h-117v51h117v274h-238v51h529v-51z" />
    <glyph glyph-name="tbar" unicode="&#x167;" horiz-adv-x="510" 
d="M461 66l10 -45q-64 -32 -140 -32q-91 0 -142 58t-51 162v40h-110v51h110v200h-110v50h110v138l53 12v-150h269v-50h-269v-200h125v-51h-125v-38q0 -83 37 -127.5t111 -44.5q56 0 122 27z" />
    <glyph glyph-name="Umacron" unicode="&#x16a;" horiz-adv-x="725" 
d="M488 894v-42h-251v42h251zM582 700h54v-428q0 -138 -75.5 -210.5t-195.5 -72.5t-195.5 72.5t-75.5 210.5v428h54v-425q0 -116 60 -175.5t157 -59.5t157 59.5t60 175.5v425z" />
    <glyph glyph-name="umacron" unicode="&#x16b;" horiz-adv-x="612" 
d="M431 770v-42h-251v42h251zM481 550h53v-550h-53v129q-60 -140 -209 -140q-92 0 -143.5 55.5t-51.5 155.5v350h53v-343q0 -82 39.5 -124.5t113.5 -42.5q92 0 145 63.5t53 168.5v278z" />
    <glyph glyph-name="Uring" unicode="&#x16e;" horiz-adv-x="725" 
d="M362 1003q50 0 84 -33.5t33 -82.5q1 -49 -33.5 -83t-83.5 -34q-48 0 -82 34t-34 83t33.5 82.5t82.5 33.5zM362 966q-33 0 -56 -23t-22 -57q0 -33 23 -56.5t55 -23.5q33 0 56 23.5t23 56.5q0 34 -22.5 57t-56.5 23zM582 700h54v-428q0 -138 -75.5 -210.5t-195.5 -72.5
t-195.5 72.5t-75.5 210.5v428h54v-425q0 -116 60 -175.5t157 -59.5t157 59.5t60 175.5v425z" />
    <glyph glyph-name="uring" unicode="&#x16f;" horiz-adv-x="612" 
d="M305 646q-48 0 -82 34t-34 82q0 49 33.5 83t82.5 34q50 0 84 -34t33 -83q1 -48 -33.5 -82t-83.5 -34zM305 842q-33 0 -56 -23t-22 -57q0 -34 23 -57t55 -23q33 0 56 23t23 57t-22.5 57t-56.5 23zM481 550h53v-550h-53v129q-60 -140 -209 -140q-92 0 -143.5 55.5
t-51.5 155.5v350h53v-343q0 -82 39.5 -124.5t113.5 -42.5q92 0 145 63.5t53 168.5v278z" />
    <glyph glyph-name="Uhungarumlaut" unicode="&#x170;" horiz-adv-x="725" 
d="M342 973l37 -19l-109 -184l-31 16zM449 973l37 -19l-109 -184l-31 16zM582 700h54v-428q0 -138 -75.5 -210.5t-195.5 -72.5t-195.5 72.5t-75.5 210.5v428h54v-425q0 -116 60 -175.5t157 -59.5t157 59.5t60 175.5v425z" />
    <glyph glyph-name="uhungarumlaut" unicode="&#x171;" horiz-adv-x="612" 
d="M321 830l-109 -184l-31 16l103 187zM319 646l-31 16l103 187l37 -19zM481 550h53v-550h-53v129q-60 -140 -209 -140q-92 0 -143.5 55.5t-51.5 155.5v350h53v-343q0 -82 39.5 -124.5t113.5 -42.5q92 0 145 63.5t53 168.5v278z" />
    <glyph glyph-name="Uogonek" unicode="&#x172;" horiz-adv-x="725" 
d="M582 700h54v-428q0 -111 -50.5 -180t-135.5 -92q-66 -66 -91.5 -101t-25.5 -66q0 -58 69 -58q26 0 48 5v-36q-22 -5 -55 -5q-48 0 -77.5 23t-29.5 66q0 38 25.5 71.5t87.5 91.5q-24 -2 -36 -2q-120 0 -195.5 72.5t-75.5 210.5v428h54v-425q0 -116 60 -175.5t157 -59.5
t157 59.5t60 175.5v425z" />
    <glyph glyph-name="uogonek" unicode="&#x173;" horiz-adv-x="612" 
d="M417 -167q0 -58 69 -58q26 0 48 5v-36q-23 -5 -55 -5q-48 0 -77.5 23t-29.5 66q0 39 26.5 75t90.5 97h-8v129q-60 -140 -209 -140q-92 0 -143.5 55.5t-51.5 155.5v350h53v-343q0 -82 39.5 -124.5t113.5 -42.5q92 0 145 63.5t53 168.5v278h53v-550q-66 -66 -91.5 -101
t-25.5 -66z" />
    <glyph glyph-name="Wcircumflex" unicode="&#x174;" horiz-adv-x="990" 
d="M495 906l-134 -136l-32 32l166 166l166 -166l-32 -32zM898 700h55l-203 -700h-70l-74 253l-106 381h-10l-106 -381l-73 -253h-70l-204 700h55l98 -335l86 -310l87 310l97 335h71l97 -335l86 -311l87 311z" />
    <glyph glyph-name="wcircumflex" unicode="&#x175;" horiz-adv-x="825" 
d="M412 782l-134 -136l-32 31l166 167l166 -167l-32 -31zM743 550h54l-168 -550h-67l-57 185l-88 307h-10l-87 -306l-57 -186h-67l-168 550h54l53 -173l95 -323l96 323l52 173h68l53 -173l95 -321l96 321z" />
    <glyph glyph-name="Ycircumflex" unicode="&#x176;" horiz-adv-x="656" 
d="M328 906l-134 -136l-32 32l166 166l166 -166l-32 -32zM619 700l-264 -438v-262h-54v260l-264 440h61l230 -380l230 380h61z" />
    <glyph glyph-name="ycircumflex" unicode="&#x177;" horiz-adv-x="572" 
d="M286 782l-134 -136l-32 31l166 167l166 -167l-32 -31zM487 550h57l-377 -800h-58l148 313l-229 487h57l200 -428z" />
    <glyph glyph-name="Ydieresis" unicode="&#x178;" horiz-adv-x="656" 
d="M214 830q-17 0 -28.5 11.5t-11.5 27.5q0 17 11.5 28.5t28.5 11.5t29 -11.5t12 -28.5q0 -16 -12 -27.5t-29 -11.5zM441 830q-17 0 -29 11.5t-12 27.5q0 17 12 28.5t29 11.5t29 -11.5t12 -28.5q0 -16 -12 -27.5t-29 -11.5zM619 700l-264 -438v-262h-54v260l-264 440h61
l230 -380l230 380h61z" />
    <glyph glyph-name="Zacute" unicode="&#x179;" horiz-adv-x="594" 
d="M397 930l-172 -160l-28 28l166 167zM112 51h435v-51h-500v51l434 598h-416v51h482v-51z" />
    <glyph glyph-name="zacute" unicode="&#x17a;" horiz-adv-x="536" 
d="M368 806l-172 -160l-28 28l166 167zM110 50l383 1v-51h-450v51l381 449l-360 -1v51h427v-51z" />
    <glyph glyph-name="Zdotaccent" unicode="&#x17b;" horiz-adv-x="594" 
d="M297 830q-17 0 -28.5 11.5t-11.5 27.5q0 17 11.5 28.5t28.5 11.5t29 -11.5t12 -28.5q0 -16 -12 -27.5t-29 -11.5zM112 51h435v-51h-500v51l434 598h-416v51h482v-51z" />
    <glyph glyph-name="zdotaccent" unicode="&#x17c;" horiz-adv-x="536" 
d="M268 703q-17 0 -29.5 12t-12.5 30q0 17 12.5 29t29.5 12q19 0 31 -12t12 -29q0 -18 -12 -30t-31 -12zM110 50l383 1v-51h-450v51l381 449l-360 -1v51h427v-51z" />
    <glyph glyph-name="Zcaron" unicode="&#x17d;" horiz-adv-x="594" 
d="M463 937l-166 -166l-166 166l32 32l134 -136l134 136zM112 51h435v-51h-500v51l434 598h-416v51h482v-51z" />
    <glyph glyph-name="zcaron" unicode="&#x17e;" horiz-adv-x="536" 
d="M434 812l-166 -166l-166 166l32 32l134 -136l134 136zM110 50l383 1v-51h-450v51l381 449l-360 -1v51h427v-51z" />
    <glyph glyph-name="uni0237" unicode="&#x237;" horiz-adv-x="217" 
d="M82 -250v800h53v-800h-53z" />
    <glyph glyph-name="circumflex" unicode="&#x2c6;" horiz-adv-x="520" 
d="M426 677l-32 -31l-134 136l-134 -136l-32 31l166 167z" />
    <glyph glyph-name="caron" unicode="&#x2c7;" horiz-adv-x="520" 
d="M426 812l-166 -166l-166 166l32 32l134 -136l134 136z" />
    <glyph glyph-name="breve" unicode="&#x2d8;" horiz-adv-x="500" 
d="M407 822v-13q0 -67 -45 -107.5t-112 -40.5q-68 0 -112.5 40.5t-44.5 107.5v13h46v-11q0 -49 30.5 -77.5t80.5 -28.5t80.5 28.5t30.5 77.5v11h46z" />
    <glyph glyph-name="dotaccent" unicode="&#x2d9;" horiz-adv-x="269" 
d="M134 786q19 0 31 -12t12 -29q0 -18 -12 -30t-31 -12q-17 0 -29.5 12t-12.5 30q0 17 12.5 29t29.5 12z" />
    <glyph glyph-name="ring" unicode="&#x2da;" horiz-adv-x="421" 
d="M210 879q50 0 84 -34t33 -83q1 -48 -33.5 -82t-83.5 -34q-48 0 -82 34t-34 82q0 49 33.5 83t82.5 34zM210 842q-33 0 -56 -23t-22 -57q0 -34 23 -57t55 -23q33 0 56 23t23 57t-22.5 57t-56.5 23z" />
    <glyph glyph-name="ogonek" unicode="&#x2db;" horiz-adv-x="346" 
d="M256 -256q-22 -5 -55 -5q-48 0 -77.5 23t-29.5 66q0 40 27.5 76.5t94.5 100.5l40 -5q-66 -66 -91.5 -101t-25.5 -66q0 -58 69 -58q26 0 48 5v-36z" />
    <glyph glyph-name="tilde" unicode="&#x2dc;" horiz-adv-x="523" 
d="M393 803h39q0 -136 -87 -136q-23 0 -41 11.5t-49 41.5l-12.5 12.5l-12 12t-11 9t-12.5 8t-12 4.5t-14 2q-28 0 -38 -23t-10 -68h-39q0 135 86 135q23 0 41 -11t50 -42l12.5 -12.5l12 -12t11 -9t12.5 -8t12 -4.5t14 -2q27 0 37.5 23.5t10.5 68.5z" />
    <glyph glyph-name="hungarumlaut" unicode="&#x2dd;" horiz-adv-x="435" 
d="M197 849l37 -19l-109 -184l-31 16zM304 849l37 -19l-109 -184l-31 16z" />
    <glyph glyph-name="gravecomb" unicode="&#x300;" 
d="M-260 840l166 -166l-29 -29l-171 161z" />
    <glyph glyph-name="acutecomb" unicode="&#x301;" 
d="M-128 841l34 -35l-172 -160l-28 28z" />
    <glyph glyph-name="uni0302" unicode="&#x302;" 
d="M-94 677l-32 -31l-134 136l-134 -136l-32 31l166 167z" />
    <glyph glyph-name="tildecomb" unicode="&#x303;" 
d="M-133 803h39q0 -136 -87 -136q-23 0 -41 11.5t-49 41.5l-12.5 12.5l-12 12t-11 9t-12.5 8t-12 4.5t-14 2q-28 0 -38 -23t-10 -68h-39q0 135 86 135q23 0 41 -11t50 -42l12.5 -12.5l12 -12t11 -9t12.5 -8t12 -4.5t14 -2q27 0 37.5 23.5t10.5 68.5z" />
    <glyph glyph-name="uni0304" unicode="&#x304;" 
d="M-94 770v-42h-251v42h251z" />
    <glyph glyph-name="uni0306" unicode="&#x306;" 
d="M-93 822v-13q0 -67 -45 -107.5t-112 -40.5q-68 0 -112.5 40.5t-44.5 107.5v13h46v-11q0 -49 30.5 -77.5t80.5 -28.5t80.5 28.5t30.5 77.5v11h46z" />
    <glyph glyph-name="uni0307" unicode="&#x307;" 
d="M-135 786q19 0 31 -12t12 -29q0 -18 -12 -30t-31 -12q-17 0 -29.5 12t-12.5 30q0 17 12.5 29t29.5 12z" />
    <glyph glyph-name="uni0308" unicode="&#x308;" 
d="M-362 784q17 0 29 -11.5t12 -27.5q0 -17 -12 -28.5t-29 -11.5t-28.5 11.5t-11.5 28.5q0 16 11.5 27.5t28.5 11.5zM-135 784q17 0 29 -11.5t12 -27.5q0 -17 -12 -28.5t-29 -11.5t-29 11.5t-12 28.5q0 16 12 27.5t29 11.5z" />
    <glyph glyph-name="uni030A" unicode="&#x30a;" 
d="M-211 879q50 0 84 -34t33 -83q1 -48 -33.5 -82t-83.5 -34q-48 0 -82 34t-34 82q0 49 33.5 83t82.5 34zM-211 842q-33 0 -56 -23t-22 -57q0 -34 23 -57t55 -23q33 0 56 23t23 57t-22.5 57t-56.5 23z" />
    <glyph glyph-name="uni030B" unicode="&#x30b;" 
d="M-238 849l37 -19l-109 -184l-31 16zM-131 849l37 -19l-109 -184l-31 16z" />
    <glyph glyph-name="uni030C" unicode="&#x30c;" 
d="M-94 812l-166 -166l-166 166l32 32l134 -136l134 136z" />
    <glyph glyph-name="uni0312" unicode="&#x312;" 
d="M-137 716q32 -5 32 -34q0 -16 -11 -26t-26 -10q-14 0 -25 9t-12 26q-1 16 46 140h38z" />
    <glyph glyph-name="uni0326" unicode="&#x326;" 
d="M-94 -111q2 -18 -45 -139h-39l42 104q-32 5 -32 34q0 16 11 26.5t26 10.5t25.5 -9.5t11.5 -26.5z" />
    <glyph glyph-name="uni0327" unicode="&#x327;" 
d="M-202 -84q43 -4 75.5 -25t32.5 -63q0 -43 -35.5 -66t-93.5 -23q-37 0 -60 5v34q22 -5 55 -5q41 0 65 14t24 42q0 59 -112 62l47 109h40z" />
    <glyph glyph-name="uni0328" unicode="&#x328;" 
d="M-94 -256q-22 -5 -55 -5q-48 0 -77.5 23t-29.5 66q0 40 27.5 76.5t94.5 100.5l40 -5q-66 -66 -91.5 -101t-25.5 -66q0 -58 69 -58q25 0 48 5v-36z" />
    <glyph glyph-name="uni0335" unicode="&#x335;" 
d="M-94 329v-51h-288v51h288z" />
    <glyph glyph-name="uni0337" unicode="&#x337;" 
d="M-94 550l-395 -550h-44l394 550h45z" />
    <glyph glyph-name="uni0338" unicode="&#x338;" 
d="M-94 770l-385 -770h-54l385 770h54z" />
    <glyph glyph-name="uni0401" unicode="&#x401;" horiz-adv-x="573" 
d="M193 830q-17 0 -28.5 11.5t-11.5 27.5q0 17 11.5 28.5t28.5 11.5t29 -11.5t12 -28.5q0 -16 -12 -27.5t-29 -11.5zM420 830q-17 0 -29 11.5t-12 27.5q0 17 12 28.5t29 11.5t29 -11.5t12 -28.5q0 -16 -12 -27.5t-29 -11.5zM526 649h-379v-262h356v-51h-356v-285h379v-51
h-432v700h432v-51z" />
    <glyph glyph-name="uni0404" unicode="&#x404;" horiz-adv-x="800" 
d="M423 40q92 0 164.5 47.5t108.5 127.5h57q-38 -104 -126 -165t-202 -61q-155 0 -257.5 102.5t-102.5 258.5t102.5 258.5t257.5 102.5q114 0 202 -61t126 -165h-57q-36 80 -108.5 127.5t-164.5 47.5q-122 0 -208 -80.5t-96 -202.5h348v-51h-348q9 -123 95 -204.5t209 -81.5
z" />
    <glyph glyph-name="uni0406" unicode="&#x406;" horiz-adv-x="242" 
d="M95 0v700h53v-700h-53z" />
    <glyph glyph-name="uni0407" unicode="&#x407;" horiz-adv-x="242" 
d="M6 909q17 0 29 -11.5t12 -28.5q0 -16 -12 -27.5t-29 -11.5t-28.5 11.5t-11.5 27.5q0 17 11.5 28.5t28.5 11.5zM233 909q17 0 29 -11.5t12 -28.5q0 -16 -12 -27.5t-29 -11.5t-29 11.5t-12 27.5q0 17 12 28.5t29 11.5zM95 0v700h53v-700h-53z" />
    <glyph glyph-name="uni040E" unicode="&#x40e;" horiz-adv-x="693" 
d="M517 946v-13q0 -66 -45 -107t-112 -41t-112 41t-45 107v13h46v-11q0 -49 30.5 -77.5t80.5 -28.5t80.5 28.5t30.5 77.5v11h46zM656 700l-414 -700h-60l153 259l-261 441h60l232 -385l230 385h60z" />
    <glyph glyph-name="uni0410" unicode="&#x410;" horiz-adv-x="723" 
d="M629 0l-95 233h-345l-95 -233h-57l289 700h71l289 -700h-57zM210 283h303l-152 369z" />
    <glyph glyph-name="uni0411" unicode="&#x411;" horiz-adv-x="656" 
d="M379 412q114 0 172 -56t58 -149q0 -92 -60 -149.5t-174 -57.5h-281v700h54h414v-51h-414v-237h231zM373 51q91 0 136.5 43t45.5 113q0 71 -43.5 113.5t-134.5 42.5h-229v-312h225z" />
    <glyph glyph-name="uni0412" unicode="&#x412;" horiz-adv-x="654" 
d="M478 371q129 -36 129 -180q0 -89 -56.5 -140t-169.5 -51h-287v700h279q212 0 212 -176q0 -116 -107 -153zM532 519q0 63 -37.5 96.5t-125.5 33.5h-222v-260h216q92 0 130.5 33.5t38.5 96.5zM380 51q173 0 173 143q0 71 -41 108.5t-134 37.5h-231v-289h233z" />
    <glyph glyph-name="uni0413" unicode="&#x413;" horiz-adv-x="540" 
d="M503 700v-51h-355v-649h-54v700h409z" />
    <glyph glyph-name="uni0414" unicode="&#x414;" horiz-adv-x="819" 
d="M682 51h100v-202h-54v151h-638v-151h-53v202h100q22 14 36.5 52t26.5 112l80 485h402v-649zM252 213q-19 -120 -51 -162h428v598h-304z" />
    <glyph glyph-name="uni0415" unicode="&#x415;" horiz-adv-x="573" 
d="M526 649h-379v-262h356v-51h-356v-285h379v-51h-432v700h432v-51z" />
    <glyph glyph-name="uni0416" unicode="&#x416;" horiz-adv-x="960" 
d="M923 0h-70l-347 343v-343h-53v343l-347 -343h-69l355 356l-345 344h69l337 -334v334h53v-334l337 334h70l-346 -344z" />
    <glyph glyph-name="uni0417" unicode="&#x417;" horiz-adv-x="629" 
d="M445 370q64 -17 100.5 -64.5t36.5 -113.5q0 -91 -70 -147t-184 -56q-111 0 -187 51t-94 151h54q36 -151 227 -151q92 0 146 42.5t54 113.5q0 65 -44 104.5t-138 39.5h-115v48h87q93 0 138.5 33.5t45.5 92.5q0 68 -52 107t-134 39t-131.5 -32t-70.5 -109h-54
q42 192 257 192q104 0 171.5 -53t67.5 -139q0 -51 -29 -91t-82 -58z" />
    <glyph glyph-name="uni0418" unicode="&#x418;" horiz-adv-x="737" 
d="M578 700h70v-700h-53v293l4 343l-439 -636h-71v700h53v-293l-4 -343z" />
    <glyph glyph-name="uni0419" unicode="&#x419;" horiz-adv-x="737" 
d="M368 785q-67 0 -112 41t-45 107v13h46v-11q0 -49 30.5 -77.5t80.5 -28.5t80.5 28.5t30.5 77.5v11h46v-13q0 -66 -45 -107t-112 -41zM578 700h70v-700h-53v293l4 343l-439 -636h-71v700h53v-293l-4 -343z" />
    <glyph glyph-name="uni041A" unicode="&#x41a;" horiz-adv-x="616" 
d="M579 0h-70l-362 344v-344h-53v700h53v-335l352 335h70l-361 -344z" />
    <glyph glyph-name="uni041B" unicode="&#x41b;" horiz-adv-x="763" 
d="M264 700h405v-700h-53v649h-307l-73 -436q-21 -124 -55.5 -174t-96.5 -50q-27 0 -47 2v49l39 -1q45 0 68 37t40 139z" />
    <glyph glyph-name="uni041C" unicode="&#x41c;" horiz-adv-x="812" 
d="M647 700h71v-700h-53v638l-259 -389h-6l-258 389v-638h-53v700h70l245 -366z" />
    <glyph glyph-name="uni041D" unicode="&#x41d;" horiz-adv-x="747" 
d="M601 700h53v-700h-53v337h-454v-337h-53v700h53v-312h454v312z" />
    <glyph glyph-name="uni041E" unicode="&#x41e;" horiz-adv-x="847" 
d="M424 711q153 0 256 -103.5t103 -257.5t-103 -257.5t-256 -103.5t-256.5 103.5t-103.5 257.5t104 257.5t256 103.5zM424 660q-129 0 -217.5 -89t-88.5 -221t88.5 -221t217.5 -89t217.5 89t87.5 221q1 132 -87.5 221t-217.5 89z" />
    <glyph glyph-name="uni041F" unicode="&#x41f;" horiz-adv-x="747" 
d="M654 700v-700h-53v649h-454v-649h-53v700h53h507z" />
    <glyph glyph-name="uni0420" unicode="&#x420;" horiz-adv-x="671" 
d="M368 700q114 0 176.5 -62t62.5 -157q0 -94 -63 -158t-176 -64h-220v-259h-54v700h274zM367 310q91 0 138.5 49t47.5 122t-47 120.5t-139 47.5h-219v-339h219z" />
    <glyph glyph-name="uni0421" unicode="&#x421;" horiz-adv-x="800" 
d="M425 -11q-155 0 -257.5 102.5t-102.5 258.5t102.5 258.5t257.5 102.5q114 0 202 -61t126 -165h-57q-36 80 -108.5 127.5t-164.5 47.5q-129 0 -217 -89t-88 -221t88 -221t217 -89q92 0 164.5 47.5t108.5 127.5h57q-38 -104 -126 -165t-202 -61z" />
    <glyph glyph-name="uni0422" unicode="&#x422;" horiz-adv-x="603" 
d="M566 700v-51h-238v-649h-53v649h-238v51h529z" />
    <glyph glyph-name="uni0423" unicode="&#x423;" horiz-adv-x="693" 
d="M656 700l-414 -700h-60l153 259l-261 441h60l232 -385l230 385h60z" />
    <glyph glyph-name="uni0424" unicode="&#x424;" horiz-adv-x="905" 
d="M561 620q121 0 200.5 -71t79.5 -191q0 -121 -79 -191.5t-201 -70.5h-79v-96h-53v96h-80q-122 0 -200.5 70.5t-78.5 191.5q0 120 79.5 191t199.5 71h80v80h53v-80h79zM349 146h80v423h-80q-98 0 -162 -56t-64 -155q0 -100 63.5 -156t162.5 -56zM561 146q99 0 162.5 56
t63.5 156q0 99 -63.5 155t-162.5 56h-79v-423h79z" />
    <glyph glyph-name="uni0425" unicode="&#x425;" horiz-adv-x="607" 
d="M571 0h-64l-203 313l-204 -313h-63l234 358l-224 342h64l193 -298l194 298h64l-225 -343z" />
    <glyph glyph-name="uni0426" unicode="&#x426;" horiz-adv-x="793" 
d="M629 51h127v-202h-53v151h-609v51v649h53v-649h429v649h53v-649z" />
    <glyph glyph-name="uni0427" unicode="&#x427;" horiz-adv-x="652" 
d="M505 700h53v-700h-53v279q-78 -39 -204 -39q-110 0 -173.5 56t-63.5 171v233h53v-229q0 -181 191 -181q131 0 197 41v369z" />
    <glyph glyph-name="uni0428" unicode="&#x428;" horiz-adv-x="1020" 
d="M874 700h53v-663v-37h-833v51v649h53v-649h337v649h53v-649h337v649z" />
    <glyph glyph-name="uni0429" unicode="&#x429;" horiz-adv-x="1091" 
d="M927 51h127v-202h-53v151h-907v51v649h53v-649h337v649h53v-649h337v649h53v-649z" />
    <glyph glyph-name="uni042A" unicode="&#x42a;" horiz-adv-x="753" 
d="M458 413q115 0 173 -56t58 -150q0 -93 -60 -150t-174 -57h-276v649h-142v51h173h23v-287h225zM454 51q91 0 136.5 43t45.5 113q0 71 -44 113.5t-135 42.5h-224v-312h221z" />
    <glyph glyph-name="uni042B" unicode="&#x42b;" horiz-adv-x="849" 
d="M373 413q114 0 172.5 -56.5t58.5 -149.5q0 -92 -60 -149.5t-174 -57.5h-276v700h54v-287h225zM707 700h53v-700h-53v700zM368 51q91 0 136.5 43t45.5 113q0 71 -44 113.5t-135 42.5h-223v-312h220z" />
    <glyph glyph-name="uni042C" unicode="&#x42c;" horiz-adv-x="668" 
d="M373 413q114 0 172.5 -56.5t58.5 -149.5q0 -92 -60 -149.5t-174 -57.5h-276v700h54v-287h225zM368 51q91 0 136.5 43t45.5 113q0 71 -44 113.5t-135 42.5h-223v-312h220z" />
    <glyph glyph-name="uni042D" unicode="&#x42d;" horiz-adv-x="797" 
d="M379 711q154 0 253.5 -102.5t99.5 -258.5t-99.5 -258.5t-252.5 -102.5q-117 0 -207 61t-126 165h57q33 -80 107.5 -127.5t168.5 -47.5q123 0 206.5 81t91.5 205h-348v51h348q-9 123 -92 203t-206 80q-95 0 -169 -47.5t-107 -127.5h-57q35 104 124.5 165t207.5 61z" />
    <glyph glyph-name="uni042E" unicode="&#x42e;" horiz-adv-x="1079" 
d="M657 711q152 0 255.5 -103.5t103.5 -257.5t-103.5 -257.5t-256.5 -103.5q-145 0 -247 95t-112 240h-150v-324h-53v700h53v-326h150q9 145 111.5 241t248.5 96zM656 40q130 0 218 89t87 221q1 132 -87 221t-218 89q-129 0 -217 -89t-89 -221q1 -132 89 -221t217 -89z" />
    <glyph glyph-name="uni042F" unicode="&#x42f;" horiz-adv-x="654" 
d="M295 700h265v-700h-54v278h-170l-232 -278h-67l234 279q-102 7 -157 65t-55 146q0 93 61 151.5t175 58.5zM299 327h207v322h-207q-92 0 -139.5 -44.5t-47.5 -115.5t47.5 -116.5t139.5 -45.5z" />
    <glyph glyph-name="uni0430" unicode="&#x430;" horiz-adv-x="682" 
d="M547 550h53v-550h-53v131q-33 -65 -93.5 -103.5t-136.5 -38.5q-115 0 -188 81t-73 205t73 205t187 81q77 0 137.5 -38.5t93.5 -104.5v132zM324 40q96 0 160 66.5t64 168.5t-64 168.5t-160 66.5q-95 0 -155 -66.5t-60 -168.5t60 -168.5t155 -66.5z" />
    <glyph glyph-name="uni0431" unicode="&#x431;" horiz-adv-x="669" 
d="M354 545q112 0 185.5 -75t73.5 -195q0 -127 -79.5 -206.5t-199.5 -79.5t-198.5 81.5t-79.5 222.5q0 123 20.5 209t57.5 140.5t100.5 85.5t137 42t179.5 11v-51q-92 0 -156.5 -8t-118 -29.5t-86 -59.5t-52.5 -96.5t-26 -142.5q31 72 97 111.5t145 39.5zM332 37
q97 0 162.5 65t65.5 171q0 100 -61 162.5t-155 62.5q-95 0 -165 -62.5t-70 -162.5q0 -106 63 -171t160 -65z" />
    <glyph glyph-name="uni0432" unicode="&#x432;" horiz-adv-x="577" 
d="M422 291q56 -14 84 -50.5t28 -85.5q0 -70 -46.5 -112.5t-144.5 -42.5h-261v550h236q189 0 189 -140q0 -82 -85 -119zM454 403q0 49 -30.5 76t-107.5 27h-181v-200h177q74 0 108 27t34 70zM342 44q138 0 138 114q0 47 -33 76.5t-108 29.5h-204v-220h207z" />
    <glyph glyph-name="uni0433" unicode="&#x433;" horiz-adv-x="461" 
d="M433 550v-50h-298v-500h-53v550h351z" />
    <glyph glyph-name="uni0434" unicode="&#x434;" horiz-adv-x="734" 
d="M606 50h100v-201h-53v151h-100h-472v-151h-53v201h92q53 34 81 208l47 292h358v-500zM184 50h369v450h-260l-40 -243q-23 -153 -69 -207z" />
    <glyph glyph-name="uni0435" unicode="&#x435;" horiz-adv-x="654" 
d="M334 561q126 0 200 -84t72 -219h-496q4 -101 67.5 -159.5t160.5 -58.5q67 0 119 28t79 81h55q-33 -78 -101 -119t-153 -41q-123 0 -202 79t-79 205t78.5 207t199.5 81zM334 511q-90 0 -151 -56.5t-72 -146.5h439q-10 90 -68.5 146.5t-147.5 56.5z" />
    <glyph glyph-name="uni0436" unicode="&#x436;" horiz-adv-x="911" 
d="M883 0h-72l-329 276v-276h-53v276l-329 -276h-72l341 290l-311 260h72l299 -251v251h53v-251l299 251h72l-311 -260z" />
    <glyph glyph-name="uni0437" unicode="&#x437;" horiz-adv-x="561" 
d="M418 291q52 -15 76 -53t24 -86q0 -72 -58.5 -117.5t-163.5 -45.5q-227 0 -262 185h53q35 -141 207 -141q84 0 127.5 34.5t43.5 88.5q0 45 -29 77t-103 32h-120v43h92q142 0 142 95q0 49 -39.5 81.5t-121.5 32.5q-65 0 -113 -25.5t-65 -80.5h-54q18 72 78.5 111t155.5 39
q102 0 157.5 -44t55.5 -111q0 -83 -83 -115z" />
    <glyph glyph-name="uni0438" unicode="&#x438;" horiz-adv-x="646" 
d="M494 550h70v-550h-53v299l3 192l-362 -491h-70v550h53v-299l-3 -192z" />
    <glyph glyph-name="uni0439" unicode="&#x439;" horiz-adv-x="646" 
d="M323 661q-68 0 -112.5 40.5t-44.5 107.5v13h46v-11q0 -49 30.5 -77.5t80.5 -28.5t80.5 28.5t30.5 77.5v11h46v-13q0 -67 -45 -107.5t-112 -40.5zM494 550h70v-550h-53v299l3 192l-362 -491h-70v550h53v-299l-3 -192z" />
    <glyph glyph-name="uni043A" unicode="&#x43a;" horiz-adv-x="564" 
d="M536 0h-73l-328 276v-276h-53v550h53v-251l299 251h72l-311 -260z" />
    <glyph glyph-name="uni043B" unicode="&#x43b;" horiz-adv-x="657" 
d="M217 550h358v-550h-53v500h-260l-46 -287q-20 -123 -56 -173.5t-98 -50.5q-14 0 -34 2v49q3 0 12 -0.5t13 -0.5q46 0 70 37t40 139z" />
    <glyph glyph-name="uni043C" unicode="&#x43c;" horiz-adv-x="713" 
d="M561 550h70v-550h-53v299l3 195l-223 -312h-3l-223 312l3 -195v-299h-53v550h70l204 -287z" />
    <glyph glyph-name="uni043D" unicode="&#x43d;" horiz-adv-x="654" 
d="M519 550h53v-550h-53v257h-384v-257h-53v550h53v-243h384v243z" />
    <glyph glyph-name="uni043E" unicode="&#x43e;" horiz-adv-x="675" 
d="M338 561q118 0 200 -81.5t82 -204.5q0 -122 -81.5 -204t-200.5 -82t-200.5 82t-81.5 204t82 204t200 82zM338 510q-96 0 -162 -66.5t-66 -168.5q0 -101 66 -168t162 -67t162 67t66 168q0 102 -66 168.5t-162 66.5z" />
    <glyph glyph-name="uni043F" unicode="&#x43f;" horiz-adv-x="651" 
d="M569 550v-550h-53v500h-381v-500h-53v550h53h434z" />
    <glyph glyph-name="uni0440" unicode="&#x440;" horiz-adv-x="687" 
d="M371 561q114 0 187 -81t73 -205t-73 -205t-187 -81q-77 0 -137.5 38.5t-93.5 104.5v-382h-53v800h53v-132q33 66 93.5 104.5t137.5 38.5zM363 40q95 0 155 66.5t60 168.5q0 103 -60 169t-155 66q-96 0 -160 -66.5t-64 -168.5t64 -168.5t160 -66.5z" />
    <glyph glyph-name="uni0441" unicode="&#x441;" horiz-adv-x="648" 
d="M338 -11q-119 0 -200.5 81.5t-81.5 204.5t81.5 204.5t201.5 81.5q94 0 166 -52.5t97 -141.5h-56q-22 65 -78 104.5t-129 39.5q-98 0 -164 -67t-66 -169q0 -101 66 -168.5t163 -67.5q73 0 129.5 39.5t78.5 104.5h56q-25 -89 -97.5 -141.5t-166.5 -52.5z" />
    <glyph glyph-name="uni0442" unicode="&#x442;" horiz-adv-x="510" 
d="M482 550v-50h-200v-500h-53v500h-201v50h254h200z" />
    <glyph glyph-name="uni0443" unicode="&#x443;" horiz-adv-x="572" 
d="M487 550h57l-377 -800h-58l148 313l-229 487h57l200 -428z" />
    <glyph glyph-name="uni0444" unicode="&#x444;" horiz-adv-x="1148" 
d="M831 561q114 0 187.5 -81t73.5 -205t-73 -205t-188 -81q-76 0 -136.5 38.5t-94.5 103.5v-377h-53v377q-33 -65 -93.5 -103.5t-136.5 -38.5q-115 0 -188 81t-73 205t73 205t187 81q77 0 137.5 -38.5t93.5 -104.5v352h53v-352q34 66 94.5 104.5t136.5 38.5zM324 40
q96 0 160 66.5t64 168.5t-64 168.5t-160 66.5q-95 0 -155 -66.5t-60 -168.5t60 -168.5t155 -66.5zM824 40q95 0 155 66.5t60 168.5t-60 168.5t-155 66.5q-96 0 -160 -66.5t-64 -168.5t64 -168.5t160 -66.5z" />
    <glyph glyph-name="uni0445" unicode="&#x445;" horiz-adv-x="528" 
d="M500 0h-64l-172 241l-171 -241h-65l203 283l-191 267h64l161 -226l159 226h65l-192 -267z" />
    <glyph glyph-name="uni0446" unicode="&#x446;" horiz-adv-x="685" 
d="M557 50h100v-201h-53v151h-100h-402h-20v550h53v-500h369v500h53v-500z" />
    <glyph glyph-name="uni0447" unicode="&#x447;" horiz-adv-x="582" 
d="M447 550h53v-550h-53v211q-75 -36 -180 -36q-210 0 -210 206v169h53v-160q0 -87 39.5 -127t125.5 -40q46 0 95.5 10.5t76.5 27.5v289z" />
    <glyph glyph-name="uni0448" unicode="&#x448;" horiz-adv-x="870" 
d="M735 550h53v-550h-53h-327h-305h-21v550h53v-500h273v500h53v-500h274v500z" />
    <glyph glyph-name="uni0449" unicode="&#x449;" horiz-adv-x="916" 
d="M788 50h100v-201h-53v151h-100h-327h-305h-21v550h53v-500h273v500h53v-500h274v500h53v-500z" />
    <glyph glyph-name="uni044A" unicode="&#x44a;" horiz-adv-x="653" 
d="M407 357q190 0 190 -175q0 -85 -48 -133.5t-146 -48.5h-246v499h-129v51h182v-193h197zM403 51q141 0 141 131q0 60 -30.5 93.5t-108.5 33.5h-195v-258h193z" />
    <glyph glyph-name="uni044B" unicode="&#x44b;" horiz-adv-x="751" 
d="M332 357q190 0 190 -175q0 -85 -48 -133.5t-146 -48.5h-246v550h53v-193h197zM616 550h53v-550h-53v550zM328 51q141 0 141 131q0 60 -30.5 93.5t-108.5 33.5h-195v-258h193z" />
    <glyph glyph-name="uni044C" unicode="&#x44c;" horiz-adv-x="578" 
d="M332 357q190 0 190 -175q0 -85 -47.5 -133.5t-145.5 -48.5h-247v550h53v-193h197zM328 51q141 0 141 131q0 60 -30 93.5t-108 33.5h-196v-258h193z" />
    <glyph glyph-name="uni044D" unicode="&#x44d;" horiz-adv-x="649" 
d="M312 561q120 0 200.5 -81.5t80.5 -204.5t-80.5 -204.5t-200.5 -81.5q-95 0 -168.5 52.5t-97.5 141.5h56q21 -66 78 -105.5t132 -39.5q92 0 156 61t71 156h-265v44h264q-8 94 -71.5 153.5t-154.5 59.5q-75 0 -132.5 -40t-77.5 -105h-56q24 88 97.5 141t168.5 53z" />
    <glyph glyph-name="uni044E" unicode="&#x44e;" horiz-adv-x="887" 
d="M549 561q118 0 200 -82t82 -204t-81.5 -204t-200.5 -82q-112 0 -191.5 74t-88.5 187h-134v-250h-53v550h53v-250h134q9 113 89 187t191 74zM549 40q97 0 163 66.5t66 168.5q0 101 -66.5 168t-162.5 67q-95 0 -161.5 -67t-66.5 -168t66 -168t162 -67z" />
    <glyph glyph-name="uni044F" unicode="&#x44f;" horiz-adv-x="585" 
d="M243 550h260v-550h-53v218h-176l-179 -218h-67l185 219q-79 8 -120 48t-41 108q0 83 46.5 129t144.5 46zM250 263h200v238h-205q-78 0 -109 -33.5t-31 -92.5q0 -112 145 -112z" />
    <glyph glyph-name="uni0451" unicode="&#x451;" horiz-adv-x="654" 
d="M214 705q-17 0 -28.5 11.5t-11.5 28.5q0 16 11.5 27.5t28.5 11.5t29 -11.5t12 -27.5q0 -17 -12 -28.5t-29 -11.5zM441 705q-17 0 -29 11.5t-12 28.5q0 16 12 27.5t29 11.5t29 -11.5t12 -27.5q0 -17 -12 -28.5t-29 -11.5zM334 561q126 0 200 -84t72 -219h-496
q4 -101 67.5 -159.5t160.5 -58.5q67 0 119 28t79 81h55q-33 -78 -101 -119t-153 -41q-123 0 -202 79t-79 205t78.5 207t199.5 81zM334 511q-90 0 -151 -56.5t-72 -146.5h439q-10 90 -68.5 146.5t-147.5 56.5z" />
    <glyph glyph-name="uni0454" unicode="&#x454;" horiz-adv-x="648" 
d="M338 38q73 0 129.5 40t78.5 105h56q-25 -89 -97.5 -141.5t-166.5 -52.5q-119 0 -200.5 81.5t-81.5 204.5t81.5 204.5t201.5 81.5q94 0 166 -52.5t97 -141.5h-56q-22 66 -78 105.5t-129 39.5q-92 0 -156.5 -59.5t-72.5 -153.5h265v-44h-265q7 -95 71.5 -156t156.5 -61z
" />
    <glyph glyph-name="uni0456" unicode="&#x456;" horiz-adv-x="217" 
d="M108 786q19 0 31 -12t12 -29q0 -18 -12 -30t-31 -12q-17 0 -29.5 12t-12.5 30q0 17 12.5 29t29.5 12zM82 0v550h53v-550h-53z" />
    <glyph glyph-name="uni0457" unicode="&#x457;" horiz-adv-x="217" 
d="M-6 784q17 0 29 -11.5t12 -27.5q0 -17 -12 -28.5t-29 -11.5t-28.5 11.5t-11.5 28.5q0 16 11.5 27.5t28.5 11.5zM221 784q17 0 29 -11.5t12 -27.5q0 -17 -12 -28.5t-29 -11.5t-29 11.5t-12 28.5q0 16 12 27.5t29 11.5zM82 0v550h53v-550h-53z" />
    <glyph glyph-name="uni045E" unicode="&#x45e;" horiz-adv-x="572" 
d="M286 661q-68 0 -112.5 40.5t-44.5 107.5v13h46v-11q0 -49 30.5 -77.5t80.5 -28.5t80.5 28.5t30.5 77.5v11h46v-13q0 -67 -45 -107.5t-112 -40.5zM487 550h57l-377 -800h-58l148 313l-229 487h57l200 -428z" />
    <glyph glyph-name="uni0490" unicode="&#x490;" horiz-adv-x="540" 
d="M503 770v-121h-355v-649h-54v700h356v70h53z" />
    <glyph glyph-name="uni0491" unicode="&#x491;" horiz-adv-x="461" 
d="M433 624v-124h-298v-500h-53v550h298v74h53z" />
    <glyph glyph-name="Wgrave" unicode="&#x1e80;" horiz-adv-x="990" 
d="M595 798l-29 -28l-171 160l34 35zM898 700h55l-203 -700h-70l-74 253l-106 381h-10l-106 -381l-73 -253h-70l-204 700h55l98 -335l86 -310l87 310l97 335h71l97 -335l86 -311l87 311z" />
    <glyph glyph-name="wgrave" unicode="&#x1e81;" horiz-adv-x="825" 
d="M512 674l-29 -29l-171 161l34 34zM743 550h54l-168 -550h-67l-57 185l-88 307h-10l-87 -306l-57 -186h-67l-168 550h54l53 -173l95 -323l96 323l52 173h68l53 -173l95 -321l96 321z" />
    <glyph glyph-name="Wacute" unicode="&#x1e82;" horiz-adv-x="990" 
d="M595 930l-172 -160l-28 28l166 167zM898 700h55l-203 -700h-70l-74 253l-106 381h-10l-106 -381l-73 -253h-70l-204 700h55l98 -335l86 -310l87 310l97 335h71l97 -335l86 -311l87 311z" />
    <glyph glyph-name="wacute" unicode="&#x1e83;" horiz-adv-x="825" 
d="M512 806l-172 -160l-28 28l166 167zM743 550h54l-168 -550h-67l-57 185l-88 307h-10l-87 -306l-57 -186h-67l-168 550h54l53 -173l95 -323l96 323l52 173h68l53 -173l95 -321l96 321z" />
    <glyph glyph-name="Wdieresis" unicode="&#x1e84;" horiz-adv-x="990" 
d="M381 830q-17 0 -28.5 11.5t-11.5 27.5q0 17 11.5 28.5t28.5 11.5t29 -11.5t12 -28.5q0 -16 -12 -27.5t-29 -11.5zM608 830q-17 0 -29 11.5t-12 27.5q0 17 12 28.5t29 11.5t29 -11.5t12 -28.5q0 -16 -12 -27.5t-29 -11.5zM898 700h55l-203 -700h-70l-74 253l-106 381h-10
l-106 -381l-73 -253h-70l-204 700h55l98 -335l86 -310l87 310l97 335h71l97 -335l86 -311l87 311z" />
    <glyph glyph-name="wdieresis" unicode="&#x1e85;" horiz-adv-x="825" 
d="M298 705q-17 0 -28.5 11.5t-11.5 28.5q0 16 11.5 27.5t28.5 11.5t29 -11.5t12 -27.5q0 -17 -12 -28.5t-29 -11.5zM525 705q-17 0 -29 11.5t-12 28.5q0 16 12 27.5t29 11.5t29 -11.5t12 -27.5q0 -17 -12 -28.5t-29 -11.5zM743 550h54l-168 -550h-67l-57 185l-88 307h-10
l-87 -306l-57 -186h-67l-168 550h54l53 -173l95 -323l96 323l52 173h68l53 -173l95 -321l96 321z" />
    <glyph glyph-name="Ygrave" unicode="&#x1ef2;" horiz-adv-x="656" 
d="M428 798l-29 -28l-171 160l34 35zM619 700l-264 -438v-262h-54v260l-264 440h61l230 -380l230 380h61z" />
    <glyph glyph-name="ygrave" unicode="&#x1ef3;" horiz-adv-x="572" 
d="M386 674l-29 -29l-171 161l34 34zM487 550h57l-377 -800h-58l148 313l-229 487h57l200 -428z" />
    <glyph glyph-name="uni2009" unicode="&#x2009;" horiz-adv-x="150" 
 />
    <glyph glyph-name="endash" unicode="&#x2013;" horiz-adv-x="637" 
d="M543 329v-51h-449v51h449z" />
    <glyph glyph-name="emdash" unicode="&#x2014;" horiz-adv-x="764" 
d="M670 329v-51h-576v51h576z" />
    <glyph glyph-name="quoteleft" unicode="&#x2018;" horiz-adv-x="300" 
d="M146 538q33 -7 33 -40q0 -18 -12.5 -30.5t-29.5 -12.5t-29.5 10t-13.5 33q-2 24 71 202h41z" />
    <glyph glyph-name="quoteright" unicode="&#x2019;" horiz-adv-x="300" 
d="M206 667q2 -24 -70 -202h-42l61 162q-34 9 -34 41q0 19 12.5 31t30.5 12q16 0 29 -10.5t13 -33.5z" />
    <glyph glyph-name="quotesinglbase" unicode="&#x201a;" horiz-adv-x="300" 
d="M206 30q2 -24 -70 -202h-42l61 162q-34 7 -34 40q0 19 12.5 31t30.5 12q16 0 29 -10.5t13 -32.5z" />
    <glyph glyph-name="quotedblleft" unicode="&#x201c;" horiz-adv-x="473" 
d="M165 700h41l-60 -162q33 -7 33 -40q0 -18 -12.5 -30.5t-29.5 -12.5t-29.5 10t-13.5 33q-2 24 71 202zM318 538q33 -7 33 -40q0 -19 -12 -31t-30 -12q-16 0 -29 10.5t-14 32.5q0 26 71 202h42z" />
    <glyph glyph-name="quotedblright" unicode="&#x201d;" horiz-adv-x="473" 
d="M164 711q16 0 29 -10.5t13 -33.5q2 -24 -70 -202h-42l61 162q-34 9 -34 41q0 19 12.5 31t30.5 12zM379 667q2 -24 -71 -202h-42l61 162q-33 9 -33 41q0 18 12 30.5t30 12.5q16 0 29 -10.5t14 -33.5z" />
    <glyph glyph-name="quotedblbase" unicode="&#x201e;" horiz-adv-x="473" 
d="M164 73q16 0 29 -10.5t13 -32.5q2 -24 -70 -202h-42l61 162q-34 7 -34 40q0 19 12.5 31t30.5 12zM379 30q2 -24 -71 -202h-42l61 162q-33 7 -33 40q0 18 12 30.5t30 12.5q16 0 29 -10.5t14 -32.5z" />
    <glyph glyph-name="dagger" unicode="&#x2020;" horiz-adv-x="614" 
d="M334 700v-217h186v-51h-186l-1 -533h-53v533h-186v51h186v217h54z" />
    <glyph glyph-name="daggerdbl" unicode="&#x2021;" horiz-adv-x="614" 
d="M334 700v-205h186v-51h-186l-1 -242h187v-50h-187v-253h-53v253h-186v50h186v242h-186v51h186v205h54z" />
    <glyph glyph-name="bullet" unicode="&#x2022;" horiz-adv-x="456" 
d="M228 416q57 0 95.5 -37.5t38.5 -92.5t-38.5 -92.5t-95.5 -37.5t-95.5 37.5t-38.5 92.5t38.5 92.5t95.5 37.5z" />
    <glyph glyph-name="ellipsis" unicode="&#x2026;" horiz-adv-x="704" 
d="M136 73q18 0 30.5 -12t12.5 -29q0 -18 -12.5 -30.5t-30.5 -12.5t-30 12.5t-12 30.5q0 17 12 29t30 12zM352 73q18 0 30.5 -12t12.5 -29q0 -18 -12.5 -30.5t-30.5 -12.5t-30 12.5t-12 30.5q0 17 12 29t30 12zM568 73q18 0 30 -12t12 -29q0 -18 -12 -30.5t-30 -12.5
t-30.5 12.5t-12.5 30.5q0 17 12.5 29t30.5 12z" />
    <glyph glyph-name="perthousand" unicode="&#x2030;" horiz-adv-x="1463" 
d="M270 290q-80 0 -128 54t-48 156q0 103 48 157t128 54t128.5 -54t48.5 -157q0 -102 -48.5 -156t-128.5 -54zM750 700l-400 -700h-54l400 700h54zM270 334q59 0 93.5 41.5t34.5 124.5q0 84 -34 125t-94 41t-94 -41t-34 -125q0 -83 34.5 -124.5t93.5 -41.5zM776 410
q80 0 128.5 -54t48.5 -156q0 -103 -48.5 -157t-128.5 -54t-128 54t-48 157q0 102 48 156t128 54zM1193 410q80 0 128 -54t48 -156q0 -103 -48 -157t-128 -54t-128.5 54t-48.5 157q0 102 48.5 156t128.5 54zM776 366q-59 0 -93.5 -41.5t-34.5 -124.5q0 -84 34 -125t94 -41
t94 41t34 125q0 83 -34.5 124.5t-93.5 41.5zM1193 366q-59 0 -93.5 -41.5t-34.5 -124.5q0 -84 34 -125t94 -41t94 41t34 125q0 83 -34.5 124.5t-93.5 41.5z" />
    <glyph glyph-name="guilsinglleft" unicode="&#x2039;" horiz-adv-x="407" 
d="M277 96l-183 183l183 183l36 -37l-146 -146l146 -146z" />
    <glyph glyph-name="guilsinglright" unicode="&#x203a;" horiz-adv-x="407" 
d="M130 96l-36 37l146 146l-146 146l36 37l183 -183z" />
    <glyph glyph-name="fraction" unicode="&#x2044;" horiz-adv-x="158" 
d="M-148 0l400 700h54l-400 -700h-54z" />
    <glyph glyph-name="uni2070" unicode="&#x2070;" horiz-adv-x="429" 
d="M214 360q-80 0 -128 54t-48 156q0 103 48 157t128 54t128.5 -54t48.5 -157q0 -102 -48.5 -156t-128.5 -54zM214 404q59 0 93.5 41.5t34.5 124.5q0 84 -34 125t-94 41t-94 -41t-34 -125q0 -83 34.5 -124.5t93.5 -41.5z" />
    <glyph glyph-name="uni2074" unicode="&#x2074;" horiz-adv-x="422" 
d="M384 502v-41h-74v-90h-48v90h-224v41l209 268h63v-268h74zM84 502h178v231z" />
    <glyph glyph-name="uni2075" unicode="&#x2075;" horiz-adv-x="399" 
d="M216 636q60 0 102.5 -36.5t42.5 -99.5q0 -60 -41.5 -100t-111.5 -40q-64 0 -111 33.5t-59 96.5h48q10 -43 42.5 -67t77.5 -24q49 0 78.5 28.5t29.5 71.5q0 42 -28.5 71.5t-76.5 29.5q-64 0 -108 -53h-45l47 223h238v-40h-206l-29 -136q46 42 110 42z" />
    <glyph glyph-name="uni2076" unicode="&#x2076;" horiz-adv-x="388" 
d="M206 635q64 0 104 -39.5t40 -95.5q0 -59 -42.5 -99.5t-113.5 -40.5t-113.5 42.5t-42.5 101.5q0 12 1.5 23.5t7 24.5t9.5 23.5t14.5 26t18 26t23.5 30.5t25.5 32t31 38t34.5 42h51l-124 -152q34 17 76 17zM194 400q50 0 79 29t29 71q0 43 -28.5 71t-79.5 28
q-49 0 -78.5 -27.5t-29.5 -70.5t29 -72t79 -29z" />
    <glyph glyph-name="uni2077" unicode="&#x2077;" horiz-adv-x="359" 
d="M38 770h283v-36l-179 -363h-48l178 358h-234v41z" />
    <glyph glyph-name="uni2078" unicode="&#x2078;" horiz-adv-x="401" 
d="M283 581q33 -10 56.5 -37.5t23.5 -65.5q0 -53 -42.5 -85.5t-120.5 -32.5q-77 0 -119.5 32.5t-42.5 85.5q0 38 23.5 65.5t56.5 37.5q-65 28 -65 89q0 49 40.5 80t106.5 31t107 -31t41 -80q0 -61 -65 -89zM200 742q-44 0 -71.5 -20.5t-27.5 -55.5q0 -33 26.5 -52.5
t72.5 -19.5t73 19.5t27 52.5q0 35 -28 55.5t-72 20.5zM200 399q54 0 84 21.5t30 59.5q0 78 -114 78q-56 0 -85 -20.5t-29 -57.5q0 -38 30 -59.5t84 -21.5z" />
    <glyph glyph-name="uni2079" unicode="&#x2079;" horiz-adv-x="388" 
d="M194 781q71 0 113.5 -42.5t42.5 -101.5q0 -12 -1.5 -23.5t-7 -24.5t-9.5 -23.5t-14.5 -26t-18 -26t-23.5 -30.5t-25.5 -32t-31 -38t-34.5 -42h-51l124 152q-34 -17 -76 -17q-64 0 -104 39t-40 95q0 58 42.5 99.5t113.5 41.5zM194 542q49 0 78.5 27.5t29.5 70.5
q0 42 -29 71t-79 29t-79 -29t-29 -71t28.5 -70t79.5 -28z" />
    <glyph glyph-name="Euro" unicode="&#x20ac;" horiz-adv-x="909" 
d="M532 40q92 0 164.5 47.5t108.5 127.5h57q-38 -104 -126 -165t-202 -61q-130 0 -225.5 75t-124.5 196h-135v44h128q-3 22 -3 46t3 45h-128v44h135q28 122 124 197t226 75q114 0 202 -61t126 -165h-57q-36 80 -108.5 127.5t-164.5 47.5q-105 0 -185 -61t-108 -160h330v-44
h-338q-3 -21 -3 -45t3 -46h338v-44h-329q27 -98 107 -159t185 -61z" />
    <glyph glyph-name="uni2116" unicode="&#x2116;" horiz-adv-x="1256" 
d="M953 294q-87 0 -148 61t-61 147q0 87 61.5 148t147.5 61q87 0 148 -61t61 -148t-61 -147.5t-148 -60.5zM601 407v293h54v-700h-72l-439 636l4 -343v-293h-54v700h72l439 -636zM953 664q-67 0 -114 -47.5t-47 -114.5t47 -114.5t114 -47.5t114 47.5t47 114.5t-47 114.5
t-114 47.5zM757 165v43h394v-43h-394zM757 0v44h394v-44h-394z" />
    <glyph glyph-name="trademark" unicode="&#x2122;" horiz-adv-x="822" 
d="M94 734v36h244v-36h-103l1 -270h-39l-1 270h-102zM683 770h45v-306h-38v255l-124 -168h-2l-124 168v-255h-38v306h45l118 -161z" />
    <glyph glyph-name="oneeighth" unicode="&#x215b;" horiz-adv-x="860" 
d="M169 301v346l-131 -49v46l155 56h24v-399h-48zM553 700h54l-400 -700h-54zM741 210q34 -10 57.5 -37t23.5 -66q0 -53 -42.5 -85.5t-120.5 -32.5q-77 0 -119.5 32.5t-42.5 85.5q0 39 23.5 66t56.5 37q-65 28 -65 89q0 50 40.5 80.5t106.5 30.5q67 0 107.5 -30.5
t40.5 -80.5q0 -61 -66 -89zM659 371q-44 0 -71.5 -20.5t-27.5 -55.5q0 -33 26.5 -52.5t72.5 -19.5t73 19.5t27 52.5q0 35 -28 55.5t-72 20.5zM659 28q54 0 84 21.5t30 59.5q0 78 -114 78t-114 -78q0 -38 30 -59.5t84 -21.5z" />
    <glyph glyph-name="threeeighths" unicode="&#x215c;" horiz-adv-x="966" 
d="M369 412q0 -52 -41 -87t-114 -35q-68 0 -116.5 34t-59.5 97h48q10 -45 44 -68.5t82 -23.5q51 0 80 23t29 62q0 36 -21 56t-54 20h-85v36h58q35 0 61 17t26 50q0 36 -27 57.5t-71 21.5q-43 0 -74 -23t-38 -69h-48q8 63 52 97t109 34q67 0 106 -33.5t39 -84.5t-53 -77
q30 -12 49 -39t19 -65zM659 700h54l-400 -700h-54zM847 210q34 -10 57.5 -37t23.5 -66q0 -53 -42.5 -85.5t-120.5 -32.5q-77 0 -119.5 32.5t-42.5 85.5q0 39 23.5 66t56.5 37q-65 28 -65 89q0 50 40.5 80.5t106.5 30.5q67 0 107.5 -30.5t40.5 -80.5q0 -61 -66 -89zM765 371
q-44 0 -71.5 -20.5t-27.5 -55.5q0 -33 26.5 -52.5t72.5 -19.5t73 19.5t27 52.5q0 35 -28 55.5t-72 20.5zM765 28q54 0 84 21.5t30 59.5q0 78 -114 78t-114 -78q0 -38 30 -59.5t84 -21.5z" />
    <glyph glyph-name="fiveeighths" unicode="&#x215d;" horiz-adv-x="958" 
d="M361 430q0 -60 -41.5 -100t-111.5 -40q-64 0 -111 33.5t-59 96.5h48q10 -43 42.5 -67t77.5 -24q49 0 78.5 28.5t29.5 71.5q0 42 -28.5 71.5t-76.5 29.5q-64 0 -108 -53h-45l47 223h238v-40h-206l-29 -136q46 42 110 42q60 0 102.5 -36.5t42.5 -99.5zM651 700h54
l-400 -700h-54zM840 210q34 -10 57.5 -37t23.5 -66q0 -53 -42.5 -85.5t-120.5 -32.5q-77 0 -119.5 32.5t-42.5 85.5q0 39 23.5 66t56.5 37q-65 28 -65 89q0 50 40.5 80.5t106.5 30.5q67 0 107.5 -30.5t40.5 -80.5q0 -61 -66 -89zM758 371q-44 0 -71.5 -20.5t-27.5 -55.5
q0 -33 26.5 -52.5t72.5 -19.5t73 19.5t27 52.5q0 35 -28 55.5t-72 20.5zM758 28q54 0 84 21.5t30 59.5q0 78 -114 78t-114 -78q0 -38 30 -59.5t84 -21.5z" />
    <glyph glyph-name="seveneighths" unicode="&#x215e;" horiz-adv-x="850" 
d="M321 700v-36l-179 -363h-48l178 358h-234v41h283zM543 700h54l-400 -700h-54zM731 210q34 -10 57.5 -37t23.5 -66q0 -53 -42.5 -85.5t-120.5 -32.5q-77 0 -119.5 32.5t-42.5 85.5q0 39 23.5 66t56.5 37q-65 28 -65 89q0 50 40.5 80.5t106.5 30.5q67 0 107.5 -30.5
t40.5 -80.5q0 -61 -66 -89zM649 371q-44 0 -71.5 -20.5t-27.5 -55.5q0 -33 26.5 -52.5t72.5 -19.5t73 19.5t27 52.5q0 35 -28 55.5t-72 20.5zM649 28q54 0 84 21.5t30 59.5q0 78 -114 78t-114 -78q0 -38 30 -59.5t84 -21.5z" />
    <glyph glyph-name="arrowleft" unicode="&#x2190;" horiz-adv-x="954" 
d="M296 176l-202 201l202 202l37 -37l-140 -138h667v-53h-667l140 -138z" />
    <glyph glyph-name="arrowup" unicode="&#x2191;" horiz-adv-x="591" 
d="M269 0v611l-138 -139l-37 37l202 202l202 -202l-38 -37l-138 139v-611h-53z" />
    <glyph glyph-name="arrowright" unicode="&#x2192;" horiz-adv-x="954" 
d="M658 172l-37 37l140 138h-667v54h667l-140 137l37 38l202 -202z" />
    <glyph glyph-name="arrowdown" unicode="&#x2193;" horiz-adv-x="591" 
d="M296 -7l-202 201l37 38l138 -140v668h54v-668l137 139l38 -37z" />
    <glyph glyph-name="arrowboth" unicode="&#x2194;" horiz-adv-x="1108" 
d="M813 176l-37 37l139 138h-722l140 -138l-37 -37l-202 201l202 202l37 -37l-140 -138h722l-139 138l37 37l202 -202z" />
    <glyph glyph-name="arrowupdn" unicode="&#x2195;" horiz-adv-x="591" 
d="M296 -47l-202 202l37 37l138 -140v597l-138 -140l-37 37l202 202l202 -202l-38 -37l-137 140v-597l137 140l38 -37z" />
    <glyph glyph-name="uni2196" unicode="&#x2196;" horiz-adv-x="749" 
d="M617 93l-472 472l2 -196h-53v285h285v-52l-196 2l472 -473z" />
    <glyph glyph-name="uni2197" unicode="&#x2197;" horiz-adv-x="749" 
d="M131 87l-37 38l472 472l-197 -1v52h286v-285h-53l1 196z" />
    <glyph glyph-name="uni2198" unicode="&#x2198;" horiz-adv-x="749" 
d="M369 103v53l197 -2l-472 472l38 38l471 -472l-1 196h53v-285h-286z" />
    <glyph glyph-name="uni2199" unicode="&#x2199;" horiz-adv-x="749" 
d="M94 99v286h53l-1 -197l471 472l38 -38l-472 -472l196 1v-52h-285z" />
    <glyph glyph-name="partialdiff" unicode="&#x2202;" horiz-adv-x="689" 
d="M408 711q243 0 170 -458q-20 -123 -94.5 -193.5t-184.5 -70.5q-105 0 -162 71.5t-40 181.5q17 108 88.5 167.5t171.5 59.5q62 0 112 -28.5t70 -88.5q30 311 -144 311q-83 0 -180 -50l-10 45q101 53 203 53zM522 240q12 74 -31 129.5t-127 55.5q-83 0 -141.5 -48.5
t-72.5 -136.5t29 -144t127 -56q83 0 142.5 55.5t73.5 144.5z" />
    <glyph glyph-name="emptyset" unicode="&#x2205;" horiz-adv-x="818" 
d="M724 561l-100 -99q66 -77 66 -187q0 -122 -81 -204t-200 -82q-109 0 -187 70l-99 -99l-29 29l99 99q-66 79 -66 187q0 122 82 204t200 82q107 0 187 -70l99 99zM181 275q0 -87 49 -150l329 329q-62 56 -150 56q-96 0 -162 -66.5t-66 -168.5zM637 275q0 85 -50 150
l-329 -329q64 -56 151 -56q96 0 162 66.5t66 168.5z" />
    <glyph glyph-name="product" unicode="&#x220f;" horiz-adv-x="843" 
d="M749 700v-51h-99v-649h-53v649h-352v-649h-53v649h-98v51h655z" />
    <glyph glyph-name="summation" unicode="&#x2211;" horiz-adv-x="652" 
d="M558 700v-51h-392l266 -288v-22l-266 -288h392v-51h-464v50l275 300l-275 300v50h464z" />
    <glyph glyph-name="minus" unicode="&#x2212;" horiz-adv-x="689" 
d="M595 329v-51h-501v51h501z" />
    <glyph glyph-name="radical" unicode="&#x221a;" horiz-adv-x="843" 
d="M694 700h56l-275 -700h-68l-196 499h-117v51h154l194 -493z" />
    <glyph glyph-name="infinity" unicode="&#x221e;" horiz-adv-x="908" 
d="M648 456q74 0 120 -47.5t46 -122.5q0 -76 -46 -123t-120 -47q-108 0 -193 127q-85 -127 -194 -127q-75 0 -121 47.5t-46 122.5t46 122.5t119 47.5q110 0 195 -129q87 128 194 129zM260 160q53 0 92.5 32.5t76.5 91.5q-39 62 -78 94.5t-93 32.5q-52 0 -84.5 -34.5
t-32.5 -90.5t32 -91t87 -35zM648 160q54 0 86.5 35t32.5 91t-32 90.5t-87 34.5q-92 -2 -167 -126q39 -61 77 -93t90 -32z" />
    <glyph glyph-name="integral" unicode="&#x222b;" horiz-adv-x="725" 
d="M513 781q60 0 89 -33t29 -88h-42q0 73 -73 73q-47 0 -66 -32.5t-26 -96.5l-70 -685q-8 -87 -41 -133.5t-101 -46.5q-60 0 -89 33t-29 88h41q0 -30 16.5 -51.5t57.5 -21.5q47 0 66 32.5t26 96.5l70 685q8 88 41 134t101 46z" />
    <glyph glyph-name="approxequal" unicode="&#x2248;" horiz-adv-x="630" 
d="M427 326q-33 0 -59 15t-60 44q-4 3 -17.5 14t-20 15.5t-18 11.5t-22.5 10t-22 3q-35 0 -53.5 -27t-18.5 -72h-42q0 67 29.5 104t79.5 37q22 0 45 -9.5t36.5 -19.5t37.5 -30q4 -3 17.5 -14t20 -15.5t18 -11.5t22.5 -10t22 -3q35 0 53 27t18 72h43q0 -67 -29.5 -104
t-79.5 -37zM427 141q-33 0 -59 15t-60 44q-4 3 -15 12t-16 13.5t-15 11t-17.5 10t-17 6t-19.5 2.5q-35 0 -53.5 -27.5t-18.5 -71.5h-42q0 67 29.5 104t79.5 37q22 0 45.5 -10t36 -19.5t37.5 -30.5q4 -3 17.5 -14t20 -15.5t18 -11.5t22.5 -10t22 -3q35 0 53 27t18 72h43
q0 -67 -29.5 -104t-79.5 -37z" />
    <glyph glyph-name="notequal" unicode="&#x2260;" horiz-adv-x="689" 
d="M451 609l-49 -186h193v-50h-206l-36 -137h242v-49h-255l-49 -187h-54l49 187h-192v49h205l36 137h-241v50h254l49 186h54z" />
    <glyph glyph-name="lessequal" unicode="&#x2264;" horiz-adv-x="689" 
d="M595 511v-47l-408 -98l408 -98v-48l-501 125v42zM595 141v-43h-501v43h501z" />
    <glyph glyph-name="greaterequal" unicode="&#x2265;" horiz-adv-x="689" 
d="M94 511l501 -124v-42l-501 -125v48l408 98l-408 98v47zM595 141v-43h-501v43h501z" />
    <glyph glyph-name="lozenge" unicode="&#x25ca;" horiz-adv-x="778" 
d="M389 579l295 -295l-295 -295l-295 295zM389 505l-221 -221l221 -220l221 220z" />
    <glyph glyph-name="A.001" horiz-adv-x="723" 
d="M629 0l-95 233h-345l-95 -233h-57l289 700h71l289 -700h-57zM210 283h303l-152 369z" />
    <glyph glyph-name="zero.subs" horiz-adv-x="429" 
d="M214 360q-80 0 -128 54t-48 156q0 103 48 157t128 54t128.5 -54t48.5 -157q0 -102 -48.5 -156t-128.5 -54zM214 404q59 0 93.5 41.5t34.5 124.5q0 84 -34 125t-94 41t-94 -41t-34 -125q0 -83 34.5 -124.5t93.5 -41.5z" />
    <glyph glyph-name="one.subs" horiz-adv-x="255" 
d="M193 770h24v-399h-48v346l-131 -49v46z" />
    <glyph glyph-name="two.subs" horiz-adv-x="411" 
d="M110 412h263v-41h-335v35l145 108q75 55 100 83t25 62q0 36 -26.5 59.5t-71.5 23.5q-100 0 -115 -103h-49q8 67 52 104.5t113 37.5q67 0 106 -36t39 -87q0 -46 -31 -81.5t-106 -87.5z" />
    <glyph glyph-name="three.subs" horiz-adv-x="407" 
d="M301 586q30 -12 49 -39.5t19 -64.5q0 -52 -41 -87t-114 -35q-68 0 -116.5 34t-59.5 97h48q10 -45 44 -68.5t82 -23.5q51 0 80 23t29 62q0 36 -21 56t-54 20h-85v36h58q35 0 61 17t26 50q0 36 -27 57.5t-71 21.5q-43 0 -74 -23t-38 -69h-48q8 63 52 97t109 34
q67 0 106 -33.5t39 -84.5t-53 -77z" />
    <glyph glyph-name="four.subs" horiz-adv-x="422" 
d="M384 502v-41h-74v-90h-48v90h-224v41l209 268h63v-268h74zM83 502h179v231z" />
    <glyph glyph-name="five.subs" horiz-adv-x="399" 
d="M216 636q60 0 102.5 -36.5t42.5 -99.5q0 -60 -41.5 -100t-111.5 -40q-64 0 -111 33.5t-59 96.5h48q10 -43 42.5 -67t77.5 -24q49 0 78.5 28.5t29.5 71.5q0 42 -28.5 71.5t-76.5 29.5q-64 0 -108 -53h-45l47 223h238v-40h-206l-29 -136q46 42 110 42z" />
    <glyph glyph-name="six.subs" horiz-adv-x="388" 
d="M206 635q64 0 104 -39.5t40 -95.5q0 -59 -42.5 -99.5t-113.5 -40.5t-113.5 42.5t-42.5 101.5q0 12 1.5 23.5t7 24.5t9.5 23.5t14.5 26t18 26t23.5 30.5t25.5 32t31 38t34.5 42h51l-124 -152q34 17 76 17zM194 400q50 0 79 29t29 71q0 43 -28.5 71t-79.5 28
q-49 0 -78.5 -27.5t-29.5 -70.5t29 -72t79 -29z" />
    <glyph glyph-name="seven.subs" horiz-adv-x="359" 
d="M38 770h283v-36l-179 -363h-48l177 358h-233v41z" />
    <glyph glyph-name="eight.subs" horiz-adv-x="401" 
d="M282 581q34 -10 57.5 -37t23.5 -66q0 -53 -42.5 -85.5t-120.5 -32.5q-77 0 -119.5 32.5t-42.5 85.5q0 39 23.5 66t56.5 37q-65 28 -65 89q0 49 40.5 80t106.5 31t107 -31t41 -80q0 -61 -66 -89zM200 742q-44 0 -71.5 -20.5t-27.5 -55.5q0 -33 26.5 -52.5t72.5 -19.5
t73 19.5t27 52.5q0 35 -28 55.5t-72 20.5zM200 399q54 0 84 21.5t30 59.5q0 78 -114 78q-56 0 -85 -20.5t-29 -57.5q0 -38 30 -59.5t84 -21.5z" />
    <glyph glyph-name="nine.subs" horiz-adv-x="388" 
d="M194 781q71 0 113.5 -42.5t42.5 -101.5q0 -12 -1.5 -23.5t-7 -24.5t-9.5 -23.5t-14.5 -26t-18 -26t-23.5 -30.5t-25.5 -32t-31 -38t-34.5 -42h-51l124 152q-34 -17 -76 -17q-64 0 -104 39t-40 95q0 58 42.5 99.5t113.5 41.5zM194 542q49 0 78.5 27.5t29.5 70.5
q0 42 -29 71t-79 29t-79 -29t-29 -71t28.5 -70t79.5 -28z" />
    <glyph glyph-name="zero.dnom" horiz-adv-x="429" 
d="M214 -11q-80 0 -128 54t-48 157q0 102 48 156t128 54t128.5 -54t48.5 -156q0 -103 -48.5 -157t-128.5 -54zM214 34q60 0 94 41t34 125q0 83 -34.5 124.5t-93.5 41.5t-93.5 -41.5t-34.5 -124.5q0 -84 34 -125t94 -41z" />
    <glyph glyph-name="one.dnom" horiz-adv-x="255" 
d="M193 399h24v-399h-48v347l-131 -49v45z" />
    <glyph glyph-name="two.dnom" horiz-adv-x="411" 
d="M110 41h263v-41h-335v35l145 108q75 55 100 83t25 62q0 36 -26.5 59.5t-71.5 23.5q-100 0 -115 -103h-49q8 67 52 104.5t113 37.5q67 0 106 -36t39 -86q0 -46 -31 -81.5t-106 -88.5z" />
    <glyph glyph-name="three.dnom" horiz-adv-x="407" 
d="M301 215q30 -12 49 -39t19 -65q0 -52 -41 -87t-114 -35q-68 0 -116.5 34t-59.5 97h48q10 -45 44 -68.5t82 -23.5q51 0 80 23t29 62q0 36 -21 56t-54 20h-85v36h58q35 0 61 17t26 50q0 36 -27 57.5t-71 21.5q-43 0 -74 -23t-38 -69h-48q8 63 52 97t109 34
q66 0 105.5 -33.5t39.5 -83.5q0 -51 -53 -78z" />
    <glyph glyph-name="four.dnom" horiz-adv-x="422" 
d="M384 131v-41h-74v-90h-48v90h-224v41l209 268h63v-268h74zM84 131h178v231z" />
    <glyph glyph-name="five.dnom" horiz-adv-x="399" 
d="M216 265q60 0 102.5 -36.5t42.5 -98.5q0 -61 -41.5 -101t-111.5 -40q-64 0 -111 34t-59 96h48q10 -43 42.5 -67t77.5 -24q49 0 78.5 28.5t29.5 71.5t-28.5 72.5t-76.5 29.5q-64 0 -108 -54h-45l47 223h238v-40h-206l-29 -136q44 42 110 42z" />
    <glyph glyph-name="six.dnom" horiz-adv-x="388" 
d="M206 264q64 0 104 -39.5t40 -95.5q0 -59 -42.5 -99.5t-113.5 -40.5t-113.5 42.5t-42.5 101.5q0 12 1.5 23.5t7 24.5t9.5 23.5t14.5 26t18 26t23.5 30.5t25.5 32t31 38t34.5 42h51l-124 -152q34 17 76 17zM194 30q50 0 79 28.5t29 71.5q0 42 -28.5 70t-79.5 28
q-49 0 -78.5 -27.5t-29.5 -70.5q0 -42 29 -71t79 -29z" />
    <glyph glyph-name="seven.dnom" horiz-adv-x="359" 
d="M38 399h283v-35l-179 -364h-48l178 358h-234v41z" />
    <glyph glyph-name="eight.dnom" horiz-adv-x="401" 
d="M283 210q33 -10 56.5 -37.5t23.5 -65.5q0 -53 -42.5 -85.5t-120.5 -32.5q-77 0 -119.5 32.5t-42.5 85.5q0 38 23.5 65.5t56.5 37.5q-65 28 -65 89q0 50 40.5 80.5t106.5 30.5q67 0 107.5 -30.5t40.5 -80.5q0 -61 -65 -89zM200 371q-44 0 -71.5 -20.5t-27.5 -55.5
q0 -33 26.5 -52.5t72.5 -19.5t73 19.5t27 52.5q0 35 -28 55.5t-72 20.5zM200 28q54 0 84 21.5t30 59.5q0 78 -114 78t-114 -78q0 -38 30 -59.5t84 -21.5z" />
    <glyph glyph-name="nine.dnom" horiz-adv-x="388" 
d="M194 410q71 0 113.5 -42.5t42.5 -101.5q0 -12 -1.5 -23.5t-7 -24.5t-9.5 -23.5t-14.5 -26t-18 -26t-23.5 -30.5t-25.5 -32t-31 -38t-34.5 -42h-51l124 152q-34 -17 -76 -17q-64 0 -104 39t-40 95q0 59 42.5 100t113.5 41zM194 171q49 0 78.5 27.5t29.5 70.5t-29 72
t-79 29t-79 -29.5t-29 -71.5t28.5 -70t79.5 -28z" />
    <glyph glyph-name="zero.numr" horiz-adv-x="429" 
d="M214 290q-80 0 -128 54t-48 156q0 103 48 157t128 54t128.5 -54t48.5 -157q0 -102 -48.5 -156t-128.5 -54zM214 334q59 0 93.5 41.5t34.5 124.5q0 84 -34 125t-94 41t-94 -41t-34 -125q0 -83 34.5 -124.5t93.5 -41.5z" />
    <glyph glyph-name="one.numr" horiz-adv-x="255" 
d="M193 700h24v-399h-48v346l-131 -49v46z" />
    <glyph glyph-name="two.numr" horiz-adv-x="411" 
d="M110 342h263v-41h-335v35l145 108q75 55 100 83t25 62q0 36 -26.5 59.5t-71.5 23.5q-100 0 -115 -103h-49q8 67 52 104.5t113 37.5q67 0 106 -36t39 -87q0 -46 -31 -81.5t-106 -87.5z" />
    <glyph glyph-name="three.numr" horiz-adv-x="407" 
d="M301 516q30 -12 49 -39t19 -65q0 -52 -41 -87t-114 -35q-68 0 -116.5 34t-59.5 97h48q10 -45 44 -68.5t82 -23.5q51 0 80 23t29 62q0 36 -21 56t-54 20h-85v36h58q35 0 61 17t26 50q0 36 -27 57.5t-71 21.5q-43 0 -74 -23t-38 -69h-48q8 63 52 97t109 34q67 0 106 -33.5
t39 -84.5t-53 -77z" />
    <glyph glyph-name="four.numr" horiz-adv-x="422" 
d="M384 432v-41h-74v-90h-48v90h-224v41l209 268h63v-268h74zM84 432h178v231z" />
    <glyph glyph-name="five.numr" horiz-adv-x="399" 
d="M216 566q60 0 102.5 -36.5t42.5 -99.5q0 -60 -41.5 -100t-111.5 -40q-64 0 -111 33.5t-59 96.5h48q10 -43 42.5 -67t77.5 -24q49 0 78.5 28.5t29.5 71.5q0 42 -28.5 71.5t-76.5 29.5q-64 0 -108 -53h-45l47 223h238v-40h-206l-29 -136q46 42 110 42z" />
    <glyph glyph-name="six.numr" horiz-adv-x="388" 
d="M206 565q64 0 104 -39.5t40 -95.5q0 -59 -42.5 -99.5t-113.5 -40.5t-113.5 42.5t-42.5 101.5q0 12 1.5 23.5t7 24.5t9.5 23.5t14.5 26t18 26t23.5 30.5t25.5 32t31 38t34.5 42h51l-124 -152q34 17 76 17zM194 330q50 0 79 29t29 71q0 43 -28.5 71t-79.5 28
q-49 0 -78.5 -27.5t-29.5 -70.5t29 -72t79 -29z" />
    <glyph glyph-name="seven.numr" horiz-adv-x="359" 
d="M38 700h283v-36l-179 -363h-48l178 358h-234v41z" />
    <glyph glyph-name="eight.numr" horiz-adv-x="401" 
d="M283 511q33 -10 56.5 -37.5t23.5 -65.5q0 -53 -42.5 -85.5t-120.5 -32.5q-77 0 -119.5 32.5t-42.5 85.5q0 38 23.5 65.5t56.5 37.5q-65 28 -65 89q0 49 40.5 80t106.5 31t107 -31t41 -80q0 -61 -65 -89zM200 672q-44 0 -71.5 -20.5t-27.5 -55.5q0 -33 26.5 -52.5
t72.5 -19.5t73 19.5t27 52.5q0 35 -28 55.5t-72 20.5zM200 329q54 0 84 21.5t30 59.5q0 78 -114 78q-56 0 -85 -20.5t-29 -57.5q0 -38 30 -59.5t84 -21.5z" />
    <glyph glyph-name="nine.numr" horiz-adv-x="388" 
d="M194 711q71 0 113.5 -42.5t42.5 -101.5q0 -12 -1.5 -23.5t-7 -24.5t-9.5 -23.5t-14.5 -26t-18 -26t-23.5 -30.5t-25.5 -32t-31 -38t-34.5 -42h-51l124 152q-34 -17 -76 -17q-64 0 -104 39t-40 95q0 58 42.5 99.5t113.5 41.5zM194 472q49 0 78.5 27.5t29.5 70.5
q0 42 -29 71t-79 29t-79 -29t-29 -71t28.5 -70t79.5 -28z" />
    <glyph glyph-name="uni0308.case" 
d="M-362 909q17 0 29 -11.5t12 -28.5q0 -16 -12 -27.5t-29 -11.5t-28.5 11.5t-11.5 27.5q0 17 11.5 28.5t28.5 11.5zM-135 909q17 0 29 -11.5t12 -28.5q0 -16 -12 -27.5t-29 -11.5t-29 11.5t-12 27.5q0 17 12 28.5t29 11.5z" />
    <glyph glyph-name="uni0307.case" 
d="M-135 909q17 0 29 -11.5t12 -28.5q0 -16 -12 -27.5t-29 -11.5t-28.5 11.5t-11.5 27.5q0 17 11.5 28.5t28.5 11.5z" />
    <glyph glyph-name="gravecomb.case" 
d="M-260 965l166 -167l-29 -28l-171 160z" />
    <glyph glyph-name="acutecomb.case" 
d="M-128 965l34 -35l-172 -160l-28 28z" />
    <glyph glyph-name="uni030B.case" 
d="M-238 973l37 -19l-109 -184l-31 16zM-131 973l37 -19l-109 -184l-31 16z" />
    <glyph glyph-name="uni0302.case" 
d="M-94 802l-32 -32l-134 136l-134 -136l-32 32l166 166z" />
    <glyph glyph-name="uni030C.case" 
d="M-94 937l-166 -166l-166 166l32 32l134 -136l134 136z" />
    <glyph glyph-name="uni0306.case" 
d="M-93 946v-13q0 -66 -45 -107t-112 -41t-112 41t-45 107v13h46v-11q0 -49 30.5 -77.5t80.5 -28.5t80.5 28.5t30.5 77.5v11h46z" />
    <glyph glyph-name="uni030A.case" 
d="M-211 1003q50 0 84 -33.5t33 -82.5q1 -49 -33.5 -83t-83.5 -34q-48 0 -82 34t-34 83t33.5 82.5t82.5 33.5zM-211 966q-33 0 -56 -23t-22 -57q0 -33 23 -56.5t55 -23.5q33 0 56 23.5t23 56.5q0 34 -22.5 57t-56.5 23z" />
    <glyph glyph-name="tildecomb.case" 
d="M-133 925h39q0 -135 -87 -135q-23 0 -41.5 11t-48.5 41l-12.5 12.5l-12 12t-11 9t-12.5 8t-12 4.5t-14 2q-28 0 -38 -23t-10 -68h-39q0 135 86 135q23 0 41 -11t50 -42l12 -12t12.5 -12t10.5 -8.5t12.5 -8.5t12 -4t14.5 -2q48 0 48 91z" />
    <glyph glyph-name="uni0304.case" 
d="M-94 894v-42h-251v42h251z" />
    <glyph glyph-name="uni0327.case" 
d="M-202 -84q43 -4 75.5 -25t32.5 -63q0 -43 -35.5 -66t-93.5 -23q-37 0 -60 5v34q22 -5 55 -5q41 0 65 14t24 42q0 59 -112 62l47 109h40z" />
    <glyph glyph-name="uni0328.case" 
d="M-94 -256q-22 -5 -55 -5q-48 0 -77.5 23t-29.5 66q0 27 17.5 56.5t37.5 50.5t67 65h40q-66 -66 -91.5 -101t-25.5 -66q0 -58 69 -58q25 0 48 5v-36z" />
    <glyph glyph-name="newGlyph" horiz-adv-x="600" 
 />
    <glyph glyph-name="Bitcoinsymbol" horiz-adv-x="654" 
d="M607 191q0 -75 -40 -123.5t-120 -62.5v-130h-49v125h-16h-151v-125h-49v125h-88v700h88v124h49v-124h143q16 0 24 -1v125h49v-131q139 -27 139 -169q0 -119 -107 -156q128 -34 128 -177zM532 519q0 63 -37 96.5t-126 33.5h-221v-263h216q92 0 130 34t38 99zM381 51
q173 0 173 143t-175 143h-231v-286h233z" />
    </font>
</defs>
</svg>
