<?xml version="1.0" encoding="UTF-8"?> <svg xmlns="http://www.w3.org/2000/svg" width="79" height="63" viewBox="0 0 79 63" fill="none"> <path d="M23.2664 61.8759L20.1563 58.8525V61.8759H18.8027V52.6937H20.1563V58.1487L23.0086 55.3172H24.749L21.51 58.4366L25.0068 61.8759H23.2664Z" fill="#6496DC"></path> <path d="M32.6606 55.3173V61.876H31.307V60.7722C30.8236 61.5241 30.034 62.02 29.0027 62.02C27.2301 62.02 25.957 60.5963 25.957 58.5967C25.957 56.597 27.2623 55.1733 29.0027 55.1733C30.0501 55.1733 30.8397 55.6852 31.3231 56.4371V55.3173H32.6606ZM31.3231 58.5967C31.3231 57.3489 30.453 56.4691 29.2927 56.4691C28.1325 56.4691 27.3268 57.3489 27.3268 58.5967C27.3268 59.8604 28.1486 60.7243 29.2927 60.7243C30.453 60.7243 31.3231 59.8604 31.3231 58.5967Z" fill="#6496DC"></path> <path d="M34.707 59.7644H36.0929C36.3024 60.4843 36.8341 60.8202 37.9783 60.8202C38.8484 60.8202 39.3963 60.5643 39.3963 60.0684C39.3963 59.5245 38.7679 59.4285 37.6721 59.1725C35.8189 58.7246 35.0454 58.3567 35.0454 57.2529C35.0454 55.9252 36.1734 55.1733 37.8332 55.1733C39.5253 55.1733 40.476 55.9732 40.7177 57.1569H39.348C39.1546 56.613 38.6551 56.3571 37.8171 56.3571C36.9469 56.3571 36.4313 56.661 36.4313 57.1089C36.4313 57.5249 36.8341 57.6368 37.9944 57.9088C39.7831 58.3247 40.8144 58.6286 40.8144 59.9084C40.8144 61.3161 39.5414 62.004 37.9783 62.004C36.2057 62.004 34.9649 61.1721 34.707 59.7644Z" fill="#6496DC"></path> <path d="M42.5068 59.7644H43.8927C44.1022 60.4843 44.6339 60.8202 45.7781 60.8202C46.6483 60.8202 47.1961 60.5643 47.1961 60.0684C47.1961 59.5245 46.5677 59.4285 45.4719 59.1725C43.6187 58.7246 42.8452 58.3567 42.8452 57.2529C42.8452 55.9252 43.9733 55.1733 45.633 55.1733C47.3251 55.1733 48.2758 55.9732 48.5175 57.1569H47.1478C46.9544 56.613 46.4549 56.3571 45.6169 56.3571C44.7467 56.3571 44.2311 56.661 44.2311 57.1089C44.2311 57.5249 44.6339 57.6368 45.7942 57.9088C47.5829 58.3247 48.6142 58.6286 48.6142 59.9084C48.6142 61.3161 47.3412 62.004 45.7781 62.004C44.0055 62.004 42.7647 61.1721 42.5068 59.7644Z" fill="#6496DC"></path> <path d="M52.192 53.1736C52.192 53.6695 51.8214 54.0215 51.3057 54.0215C50.8062 54.0215 50.4355 53.6695 50.4355 53.1736C50.4355 52.6937 50.8223 52.3578 51.3057 52.3578C51.8214 52.3578 52.192 52.6937 52.192 53.1736ZM50.6289 55.3172H51.9825V61.8759H50.6289V55.3172Z" fill="#6496DC"></path> <path d="M58.284 55.2053V56.581C58.1712 56.565 58.0584 56.565 57.8811 56.565C56.6403 56.565 55.6895 57.2529 55.6895 58.8846V61.892H54.3359V55.3333H55.6895V56.629C56.0924 55.7172 56.8498 55.1893 57.8811 55.1893C58.0584 55.1733 58.1873 55.1733 58.284 55.2053Z" fill="#6496DC"></path> <path d="M3.75467 32.6497C4.99548 26.3149 10.6033 21.5958 17.3069 21.5958C20.1269 21.5958 22.8503 22.4596 25.1224 23.9953L27.7813 21.3559C25.7025 19.8202 23.2854 18.7484 20.7393 18.2365C21.4967 10.0301 28.4742 3.67929 36.8699 3.67929C40.1894 3.67929 43.3801 4.67109 46.1034 6.54273C48.4562 8.15842 50.3254 10.35 51.534 12.8935C48.295 13.7413 45.2977 15.309 42.7839 17.4846L45.4105 20.0921C48.6334 17.3886 52.7426 15.8529 57.0452 15.8529C66.6171 15.8529 74.4488 23.2115 75.0289 32.6497H78.7352C78.4613 27.1467 76.0924 21.9957 72.0799 18.1725C68.0191 14.3172 62.6852 12.1736 57.0452 12.1736C56.465 12.1736 55.8849 12.2056 55.3048 12.2536C53.8384 8.71831 51.389 5.6949 48.2144 3.51932C44.8787 1.21576 40.9468 0 36.8699 0C26.5405 0 17.9676 7.80649 17.033 17.9325C8.41174 18.0605 1.27304 24.3473 0 32.6497H3.75467Z" fill="#6496DC"></path> <path d="M7.37891 42.8077C7.37891 39.0964 10.1506 36.2809 13.9536 36.2809C17.0315 36.2809 19.7548 38.1206 20.2382 41.304H16.8703C16.4836 39.9442 15.2911 39.2724 13.9536 39.2724C11.9554 39.2724 10.6824 40.7281 10.6985 42.7917C10.6824 44.8873 12.0038 46.311 13.9214 46.311C15.275 46.311 16.4675 45.6231 16.8542 44.2634H20.2221C19.7226 47.5587 16.9509 49.3184 13.9214 49.3184C10.1506 49.3344 7.37891 46.5189 7.37891 42.8077Z" fill="#393962"></path> <path d="M21.7695 32.6656H25.0408V49.0624H21.7695V32.6656Z" fill="#393962"></path> <path d="M39.9145 42.8077C39.9145 46.583 37.03 49.3344 33.3398 49.3344C29.6657 49.3344 26.7812 46.567 26.7812 42.8077C26.7812 39.0324 29.7141 36.2809 33.3398 36.2809C36.9817 36.2809 39.9145 39.0324 39.9145 42.8077ZM30.0847 42.8077C30.0847 44.8713 31.5028 46.247 33.3398 46.247C35.1769 46.247 36.595 44.8873 36.595 42.8077C36.595 40.7601 35.1769 39.3683 33.3398 39.3683C31.5189 39.3683 30.0847 40.7601 30.0847 42.8077Z" fill="#393962"></path> <path d="M53.1932 36.5529V49.0625H49.922V47.3348C49.0035 48.6146 47.7627 49.3344 46.0223 49.3344C43.2506 49.3344 41.5264 47.4468 41.5264 44.3914V36.5369H44.7976V43.6715C44.7976 45.3032 45.4099 46.2151 47.1181 46.2151C48.9229 46.2151 49.9059 45.1433 49.9059 43.0957V36.5209H53.1932V36.5529Z" fill="#393962"></path> <path d="M68.084 32.6656V49.0624H64.8127V47.3828C63.9425 48.5665 62.6212 49.3344 60.8486 49.3344C57.5773 49.3344 55.0957 46.6469 55.0957 42.8076C55.0957 38.9364 57.5934 36.2809 60.8163 36.2809C62.605 36.2809 63.9264 37.0967 64.7966 38.3125V32.6816H68.084V32.6656ZM64.7966 42.8076C64.7966 40.76 63.3946 39.3683 61.5737 39.3683C59.7367 39.3683 58.383 40.76 58.383 42.8076C58.383 44.8712 59.7528 46.247 61.5737 46.247C63.4108 46.247 64.7966 44.8712 64.7966 42.8076Z" fill="#393962"></path> </svg> 